<svg width="286" height="270" viewBox="0 0 286 270" fill="none" xmlns="http://www.w3.org/2000/svg">
<rect x="44.5" y="38.5" width="199" height="199" stroke="black"/>
<path d="M246 28V248" stroke="#0DC267" stroke-width="2"/>
<path d="M42 28V248" stroke="#0DC267" stroke-width="2"/>
<path d="M254 36L34.0001 36" stroke="#0070FF" stroke-width="2"/>
<path d="M254 240L34.0001 240" stroke="#0070FF" stroke-width="2"/>
<path d="M139.26 28C138.716 28 138.28 27.844 137.952 27.532C137.624 27.212 137.46 26.788 137.46 26.26V22.384H135.564V21.4H137.46V19.54H138.54V21.4H141.24V22.384H138.54V26.26C138.54 26.484 138.604 26.668 138.732 26.812C138.868 26.948 139.044 27.016 139.26 27.016H141.18V28H139.26ZM145.795 28.096C145.003 28.096 144.371 27.864 143.899 27.4C143.435 26.936 143.203 26.288 143.203 25.456V23.944C143.203 23.104 143.435 22.456 143.899 22C144.363 21.536 144.995 21.304 145.795 21.304C146.595 21.304 147.227 21.536 147.691 22C148.155 22.456 148.387 23.104 148.387 23.944V25.456C148.387 26.288 148.151 26.936 147.679 27.4C147.215 27.864 146.587 28.096 145.795 28.096ZM145.795 27.136C146.267 27.136 146.635 27.004 146.899 26.74C147.171 26.476 147.307 26.088 147.307 25.576V23.824C147.307 23.312 147.171 22.924 146.899 22.66C146.635 22.396 146.267 22.264 145.795 22.264C145.331 22.264 144.963 22.396 144.691 22.66C144.419 22.924 144.283 23.312 144.283 23.824V25.576C144.283 26.088 144.419 26.476 144.691 26.74C144.963 27.004 145.331 27.136 145.795 27.136ZM150.495 30.16V21.4H151.575V22.66H151.587C151.643 22.228 151.831 21.892 152.151 21.652C152.471 21.404 152.879 21.28 153.375 21.28C154.039 21.28 154.567 21.5 154.959 21.94C155.351 22.372 155.547 22.968 155.547 23.728V25.66C155.547 26.42 155.351 27.02 154.959 27.46C154.567 27.9 154.039 28.12 153.375 28.12C152.879 28.12 152.471 27.996 152.151 27.748C151.831 27.5 151.643 27.164 151.587 26.74H151.551L151.575 28.24V30.16H150.495ZM153.015 27.184C153.471 27.184 153.827 27.064 154.083 26.824C154.339 26.584 154.467 26.196 154.467 25.66V23.74C154.467 23.196 154.339 22.808 154.083 22.576C153.827 22.336 153.471 22.216 153.015 22.216C152.575 22.216 152.223 22.356 151.959 22.636C151.703 22.916 151.575 23.304 151.575 23.8V25.6C151.575 26.096 151.703 26.484 151.959 26.764C152.223 27.044 152.575 27.184 153.015 27.184Z" fill="#0070FF"/>
<path d="M125.696 121.12C124.896 121.12 124.256 120.896 123.776 120.448C123.296 120 123.056 119.384 123.056 118.6V116.8C123.056 116.016 123.296 115.4 123.776 114.952C124.256 114.504 124.896 114.28 125.696 114.28C126.456 114.28 127.068 114.484 127.532 114.892C128.004 115.3 128.252 115.856 128.276 116.56H127.196C127.172 116.136 127.028 115.812 126.764 115.588C126.5 115.356 126.144 115.24 125.696 115.24C125.224 115.24 124.844 115.376 124.556 115.648C124.276 115.912 124.136 116.292 124.136 116.788V118.6C124.136 119.096 124.276 119.48 124.556 119.752C124.844 120.024 125.224 120.16 125.696 120.16C126.144 120.16 126.5 120.044 126.764 119.812C127.028 119.58 127.172 119.256 127.196 118.84H128.276C128.252 119.544 128.004 120.1 127.532 120.508C127.068 120.916 126.456 121.12 125.696 121.12ZM132.795 121.12C132.019 121.12 131.391 120.888 130.911 120.424C130.439 119.952 130.203 119.304 130.203 118.48V116.92C130.203 116.096 130.439 115.452 130.911 114.988C131.391 114.516 132.019 114.28 132.795 114.28C133.315 114.28 133.767 114.384 134.151 114.592C134.543 114.8 134.847 115.092 135.063 115.468C135.279 115.844 135.387 116.288 135.387 116.8V117.976H131.259V118.6C131.259 119.088 131.399 119.476 131.679 119.764C131.959 120.044 132.331 120.184 132.795 120.184C133.195 120.184 133.523 120.108 133.779 119.956C134.043 119.796 134.203 119.584 134.259 119.32H135.339C135.267 119.872 134.999 120.312 134.535 120.64C134.071 120.96 133.491 121.12 132.795 121.12ZM131.259 117.136H134.331V116.8C134.331 116.28 134.195 115.88 133.923 115.6C133.659 115.312 133.283 115.168 132.795 115.168C132.307 115.168 131.927 115.312 131.655 115.6C131.391 115.88 131.259 116.28 131.259 116.8V117.136ZM137.495 121V114.4H138.575V115.66H138.587C138.643 115.22 138.823 114.88 139.127 114.64C139.431 114.4 139.835 114.28 140.339 114.28C141.003 114.28 141.531 114.484 141.923 114.892C142.315 115.3 142.511 115.856 142.511 116.56V121H141.431V116.752C141.431 116.248 141.303 115.864 141.047 115.6C140.799 115.328 140.459 115.192 140.027 115.192C139.579 115.192 139.223 115.332 138.959 115.612C138.703 115.892 138.575 116.288 138.575 116.8V121H137.495ZM147.846 121C147.302 121 146.866 120.844 146.538 120.532C146.21 120.212 146.046 119.788 146.046 119.26V115.384H144.15V114.4H146.046V112.54H147.126V114.4H149.826V115.384H147.126V119.26C147.126 119.484 147.19 119.668 147.318 119.812C147.454 119.948 147.63 120.016 147.846 120.016H149.766V121H147.846ZM154.381 121.12C153.605 121.12 152.977 120.888 152.497 120.424C152.025 119.952 151.789 119.304 151.789 118.48V116.92C151.789 116.096 152.025 115.452 152.497 114.988C152.977 114.516 153.605 114.28 154.381 114.28C154.901 114.28 155.353 114.384 155.737 114.592C156.129 114.8 156.433 115.092 156.649 115.468C156.865 115.844 156.973 116.288 156.973 116.8V117.976H152.845V118.6C152.845 119.088 152.985 119.476 153.265 119.764C153.545 120.044 153.917 120.184 154.381 120.184C154.781 120.184 155.109 120.108 155.365 119.956C155.629 119.796 155.789 119.584 155.845 119.32H156.925C156.853 119.872 156.585 120.312 156.121 120.64C155.657 120.96 155.077 121.12 154.381 121.12ZM152.845 117.136H155.917V116.8C155.917 116.28 155.781 115.88 155.509 115.6C155.245 115.312 154.869 115.168 154.381 115.168C153.893 115.168 153.513 115.312 153.241 115.6C152.977 115.88 152.845 116.28 152.845 116.8V117.136ZM159.321 121V114.4H160.401V115.66H160.425C160.481 115.236 160.661 114.9 160.965 114.652C161.269 114.404 161.677 114.28 162.189 114.28C162.877 114.28 163.405 114.488 163.773 114.904C164.149 115.312 164.337 115.896 164.337 116.656V117.22H163.257V116.656C163.257 115.696 162.789 115.216 161.853 115.216C161.381 115.216 161.021 115.352 160.773 115.624C160.525 115.896 160.401 116.288 160.401 116.8V121H159.321Z" fill="#FF4D3A"/>
<path d="M125.984 213.12C125.488 213.12 125.08 213 124.76 212.76C124.44 212.512 124.252 212.172 124.196 211.74H124.184V213H123.104V204.24H124.184V206.16L124.16 207.66H124.172C124.236 207.236 124.428 206.9 124.748 206.652C125.076 206.404 125.488 206.28 125.984 206.28C126.648 206.28 127.176 206.5 127.568 206.94C127.96 207.38 128.156 207.98 128.156 208.74V210.672C128.156 211.424 127.96 212.02 127.568 212.46C127.176 212.9 126.648 213.12 125.984 213.12ZM125.624 212.184C126.08 212.184 126.436 212.064 126.692 211.824C126.948 211.584 127.076 211.196 127.076 210.66V208.74C127.076 208.196 126.948 207.808 126.692 207.576C126.436 207.336 126.08 207.216 125.624 207.216C125.184 207.216 124.832 207.356 124.568 207.636C124.312 207.916 124.184 208.304 124.184 208.8V210.6C124.184 211.096 124.312 211.484 124.568 211.764C124.832 212.044 125.184 212.184 125.624 212.184ZM132.795 213.096C132.003 213.096 131.371 212.864 130.899 212.4C130.435 211.936 130.203 211.288 130.203 210.456V208.944C130.203 208.104 130.435 207.456 130.899 207C131.363 206.536 131.995 206.304 132.795 206.304C133.595 206.304 134.227 206.536 134.691 207C135.155 207.456 135.387 208.104 135.387 208.944V210.456C135.387 211.288 135.151 211.936 134.679 212.4C134.215 212.864 133.587 213.096 132.795 213.096ZM132.795 212.136C133.267 212.136 133.635 212.004 133.899 211.74C134.171 211.476 134.307 211.088 134.307 210.576V208.824C134.307 208.312 134.171 207.924 133.899 207.66C133.635 207.396 133.267 207.264 132.795 207.264C132.331 207.264 131.963 207.396 131.691 207.66C131.419 207.924 131.283 208.312 131.283 208.824V210.576C131.283 211.088 131.419 211.476 131.691 211.74C131.963 212.004 132.331 212.136 132.795 212.136ZM140.651 213C140.107 213 139.671 212.844 139.343 212.532C139.015 212.212 138.851 211.788 138.851 211.26V207.384H136.955V206.4H138.851V204.54H139.931V206.4H142.631V207.384H139.931V211.26C139.931 211.484 139.995 211.668 140.123 211.812C140.259 211.948 140.435 212.016 140.651 212.016H142.571V213H140.651ZM147.846 213C147.302 213 146.866 212.844 146.538 212.532C146.21 212.212 146.046 211.788 146.046 211.26V207.384H144.15V206.4H146.046V204.54H147.126V206.4H149.826V207.384H147.126V211.26C147.126 211.484 147.19 211.668 147.318 211.812C147.454 211.948 147.63 212.016 147.846 212.016H149.766V213H147.846ZM154.381 213.096C153.589 213.096 152.957 212.864 152.485 212.4C152.021 211.936 151.789 211.288 151.789 210.456V208.944C151.789 208.104 152.021 207.456 152.485 207C152.949 206.536 153.581 206.304 154.381 206.304C155.181 206.304 155.813 206.536 156.277 207C156.741 207.456 156.973 208.104 156.973 208.944V210.456C156.973 211.288 156.737 211.936 156.265 212.4C155.801 212.864 155.173 213.096 154.381 213.096ZM154.381 212.136C154.853 212.136 155.221 212.004 155.485 211.74C155.757 211.476 155.893 211.088 155.893 210.576V208.824C155.893 208.312 155.757 207.924 155.485 207.66C155.221 207.396 154.853 207.264 154.381 207.264C153.917 207.264 153.549 207.396 153.277 207.66C153.005 207.924 152.869 208.312 152.869 208.824V210.576C152.869 211.088 153.005 211.476 153.277 211.74C153.549 212.004 153.917 212.136 154.381 212.136ZM158.697 213V206.4H159.633V207.276H159.657C159.697 206.98 159.813 206.74 160.005 206.556C160.205 206.372 160.457 206.28 160.761 206.28C161.049 206.28 161.293 206.364 161.493 206.532C161.693 206.7 161.837 206.928 161.925 207.216H161.937C161.993 206.928 162.117 206.7 162.309 206.532C162.509 206.364 162.761 206.28 163.065 206.28C163.489 206.28 163.825 206.44 164.073 206.76C164.329 207.072 164.457 207.48 164.457 207.984V213H163.449V207.972C163.449 207.708 163.385 207.5 163.257 207.348C163.129 207.188 162.953 207.108 162.729 207.108C162.513 207.108 162.341 207.184 162.213 207.336C162.085 207.488 162.021 207.696 162.021 207.96V213H161.133V207.972C161.133 207.708 161.069 207.5 160.941 207.348C160.813 207.188 160.641 207.108 160.425 207.108C160.201 207.108 160.025 207.184 159.897 207.336C159.769 207.488 159.705 207.696 159.705 207.96V213H158.697Z" fill="#FF4D3A"/>
<path d="M30.26 20C29.716 20 29.28 19.844 28.952 19.532C28.624 19.212 28.46 18.788 28.46 18.26V14.384H26.564V13.4H28.46V11.54H29.54V13.4H32.24V14.384H29.54V18.26C29.54 18.484 29.604 18.668 29.732 18.812C29.868 18.948 30.044 19.016 30.26 19.016H32.18V20H30.26ZM36.7953 20.096C36.0033 20.096 35.3713 19.864 34.8993 19.4C34.4353 18.936 34.2033 18.288 34.2033 17.456V15.944C34.2033 15.104 34.4353 14.456 34.8993 14C35.3633 13.536 35.9953 13.304 36.7953 13.304C37.5953 13.304 38.2273 13.536 38.6913 14C39.1553 14.456 39.3873 15.104 39.3873 15.944V17.456C39.3873 18.288 39.1513 18.936 38.6793 19.4C38.2153 19.864 37.5873 20.096 36.7953 20.096ZM36.7953 19.136C37.2673 19.136 37.6353 19.004 37.8993 18.74C38.1713 18.476 38.3073 18.088 38.3073 17.576V15.824C38.3073 15.312 38.1713 14.924 37.8993 14.66C37.6353 14.396 37.2673 14.264 36.7953 14.264C36.3313 14.264 35.9633 14.396 35.6913 14.66C35.4193 14.924 35.2833 15.312 35.2833 15.824V17.576C35.2833 18.088 35.4193 18.476 35.6913 18.74C35.9633 19.004 36.3313 19.136 36.7953 19.136ZM41.4946 22.16V13.4H42.5746V14.66H42.5866C42.6426 14.228 42.8306 13.892 43.1506 13.652C43.4706 13.404 43.8786 13.28 44.3746 13.28C45.0386 13.28 45.5666 13.5 45.9586 13.94C46.3506 14.372 46.5466 14.968 46.5466 15.728V17.66C46.5466 18.42 46.3506 19.02 45.9586 19.46C45.5666 19.9 45.0386 20.12 44.3746 20.12C43.8786 20.12 43.4706 19.996 43.1506 19.748C42.8306 19.5 42.6426 19.164 42.5866 18.74H42.5506L42.5746 20.24V22.16H41.4946ZM44.0146 19.184C44.4706 19.184 44.8266 19.064 45.0826 18.824C45.3386 18.584 45.4666 18.196 45.4666 17.66V15.74C45.4666 15.196 45.3386 14.808 45.0826 14.576C44.8266 14.336 44.4706 14.216 44.0146 14.216C43.5746 14.216 43.2226 14.356 42.9586 14.636C42.7026 14.916 42.5746 15.304 42.5746 15.8V17.6C42.5746 18.096 42.7026 18.484 42.9586 18.764C43.2226 19.044 43.5746 19.184 44.0146 19.184ZM49.1459 20V11.24H50.2259V19.016H54.1859V20H49.1459ZM58.3813 20.12C57.6053 20.12 56.9773 19.888 56.4973 19.424C56.0253 18.952 55.7893 18.304 55.7893 17.48V15.92C55.7893 15.096 56.0253 14.452 56.4973 13.988C56.9773 13.516 57.6053 13.28 58.3813 13.28C58.9013 13.28 59.3533 13.384 59.7373 13.592C60.1293 13.8 60.4333 14.092 60.6493 14.468C60.8653 14.844 60.9733 15.288 60.9733 15.8V16.976H56.8453V17.6C56.8453 18.088 56.9853 18.476 57.2653 18.764C57.5453 19.044 57.9173 19.184 58.3813 19.184C58.7813 19.184 59.1093 19.108 59.3653 18.956C59.6293 18.796 59.7893 18.584 59.8453 18.32H60.9253C60.8533 18.872 60.5853 19.312 60.1213 19.64C59.6573 19.96 59.0773 20.12 58.3813 20.12ZM56.8453 16.136H59.9173V15.8C59.9173 15.28 59.7813 14.88 59.5093 14.6C59.2453 14.312 58.8693 14.168 58.3813 14.168C57.8933 14.168 57.5133 14.312 57.2413 14.6C56.9773 14.88 56.8453 15.28 56.8453 15.8V16.136ZM65.0006 20.12C64.3206 20.12 63.7806 19.932 63.3806 19.556C62.9806 19.172 62.7806 18.672 62.7806 18.056C62.7806 17.648 62.8726 17.292 63.0566 16.988C63.2406 16.684 63.4966 16.448 63.8246 16.28C64.1526 16.104 64.5286 16.016 64.9526 16.016H66.9926V15.5C66.9926 14.644 66.5246 14.216 65.5886 14.216C65.1726 14.216 64.8366 14.292 64.5806 14.444C64.3246 14.596 64.1886 14.808 64.1726 15.08H63.0926C63.1326 14.56 63.3726 14.132 63.8126 13.796C64.2606 13.452 64.8526 13.28 65.5886 13.28C66.3886 13.28 67.0006 13.472 67.4246 13.856C67.8566 14.24 68.0726 14.776 68.0726 15.464V20H67.0046V18.8H66.9806C66.9166 19.208 66.7126 19.532 66.3686 19.772C66.0246 20.004 65.5686 20.12 65.0006 20.12ZM65.2646 19.208C65.7926 19.208 66.2126 19.08 66.5246 18.824C66.8366 18.568 66.9926 18.22 66.9926 17.78V16.856H65.0726C64.7206 16.856 64.4326 16.964 64.2086 17.18C63.9926 17.388 63.8846 17.668 63.8846 18.02C63.8846 18.388 64.0046 18.68 64.2446 18.896C64.4926 19.104 64.8326 19.208 65.2646 19.208ZM72.3879 20.12C71.7319 20.12 71.2039 19.9 70.8039 19.46C70.4119 19.02 70.2159 18.424 70.2159 17.672V15.74C70.2159 14.98 70.4119 14.38 70.8039 13.94C71.1959 13.5 71.7239 13.28 72.3879 13.28C72.8839 13.28 73.2919 13.404 73.6119 13.652C73.9399 13.9 74.1359 14.236 74.1999 14.66H74.2119L74.1879 13.16V11.24H75.2679V20H74.1879V18.74H74.1759C74.1199 19.172 73.9319 19.512 73.6119 19.76C73.2919 20 72.8839 20.12 72.3879 20.12ZM72.7479 19.184C73.1959 19.184 73.5479 19.044 73.8039 18.764C74.0599 18.484 74.1879 18.096 74.1879 17.6V15.8C74.1879 15.304 74.0599 14.916 73.8039 14.636C73.5479 14.356 73.1959 14.216 72.7479 14.216C72.2919 14.216 71.9359 14.336 71.6799 14.576C71.4239 14.808 71.2959 15.196 71.2959 15.74V17.66C71.2959 18.196 71.4239 18.584 71.6799 18.824C71.9359 19.064 72.2919 19.184 72.7479 19.184ZM77.3872 20V19.016H79.7272V14.384H77.6272V13.4H80.8072V19.016H83.0272V20H77.3872ZM80.1472 12.212C79.8832 12.212 79.6752 12.144 79.5232 12.008C79.3712 11.872 79.2952 11.688 79.2952 11.456C79.2952 11.216 79.3712 11.028 79.5232 10.892C79.6752 10.748 79.8832 10.676 80.1472 10.676C80.4112 10.676 80.6192 10.748 80.7712 10.892C80.9232 11.028 80.9992 11.216 80.9992 11.456C80.9992 11.688 80.9232 11.872 80.7712 12.008C80.6192 12.144 80.4112 12.212 80.1472 12.212ZM84.6665 20V13.4H85.7465V14.66H85.7585C85.8145 14.22 85.9945 13.88 86.2985 13.64C86.6025 13.4 87.0065 13.28 87.5105 13.28C88.1745 13.28 88.7025 13.484 89.0945 13.892C89.4865 14.3 89.6825 14.856 89.6825 15.56V20H88.6025V15.752C88.6025 15.248 88.4745 14.864 88.2185 14.6C87.9705 14.328 87.6305 14.192 87.1985 14.192C86.7505 14.192 86.3945 14.332 86.1305 14.612C85.8745 14.892 85.7465 15.288 85.7465 15.8V20H84.6665ZM92.6898 22.16V21.176H94.5498C94.9258 21.176 95.2218 21.068 95.4378 20.852C95.6538 20.644 95.7618 20.36 95.7618 20V19.4L95.7858 18.32H95.7498C95.6858 18.712 95.4978 19.016 95.1858 19.232C94.8738 19.44 94.4818 19.544 94.0098 19.544C93.3298 19.544 92.7938 19.328 92.4018 18.896C92.0098 18.464 91.8138 17.872 91.8138 17.12V15.728C91.8138 14.976 92.0098 14.38 92.4018 13.94C92.7938 13.5 93.3298 13.28 94.0098 13.28C94.4818 13.28 94.8738 13.392 95.1858 13.616C95.4978 13.84 95.6858 14.148 95.7498 14.54H95.7738V13.4H96.8418V20C96.8418 20.664 96.6338 21.188 96.2178 21.572C95.8098 21.964 95.2498 22.16 94.5378 22.16H92.6898ZM94.3338 18.644C94.7818 18.644 95.1338 18.504 95.3898 18.224C95.6458 17.944 95.7738 17.556 95.7738 17.06V15.8C95.7738 15.304 95.6458 14.916 95.3898 14.636C95.1338 14.356 94.7818 14.216 94.3338 14.216C93.8778 14.216 93.5218 14.348 93.2658 14.612C93.0178 14.876 92.8938 15.232 92.8938 15.68V17.18C92.8938 17.628 93.0178 17.984 93.2658 18.248C93.5218 18.512 93.8778 18.644 94.3338 18.644Z" fill="#FF4D3A"/>
<path d="M12 157.44C12 158.024 11.832 158.492 11.496 158.844C11.152 159.188 10.7 159.36 10.14 159.36L4.224 159.36L4.224 161.64L3.24 161.64L3.24 158.28L10.14 158.28C10.412 158.28 10.628 158.204 10.788 158.052C10.94 157.9 11.016 157.696 11.016 157.44L11.016 155.4L12 155.4L12 157.44ZM12.12 151.205C12.12 151.981 11.888 152.609 11.424 153.089C10.952 153.561 10.304 153.797 9.48 153.797L7.92 153.797C7.096 153.797 6.452 153.561 5.988 153.089C5.516 152.609 5.28 151.981 5.28 151.205C5.28 150.685 5.384 150.233 5.592 149.849C5.8 149.457 6.092 149.153 6.468 148.937C6.844 148.721 7.288 148.613 7.8 148.613L8.976 148.613L8.976 152.741L9.6 152.741C10.088 152.741 10.476 152.601 10.764 152.321C11.044 152.041 11.184 151.669 11.184 151.205C11.184 150.805 11.108 150.477 10.956 150.221C10.796 149.957 10.584 149.797 10.32 149.741L10.32 148.661C10.872 148.733 11.312 149.001 11.64 149.465C11.96 149.929 12.12 150.509 12.12 151.205ZM8.136 152.741L8.136 149.669L7.8 149.669C7.28 149.669 6.88 149.805 6.6 150.077C6.312 150.341 6.168 150.717 6.168 151.205C6.168 151.693 6.312 152.073 6.6 152.345C6.88 152.609 7.28 152.741 7.8 152.741L8.136 152.741ZM12.12 144.585C12.12 145.265 11.932 145.805 11.556 146.205C11.172 146.605 10.672 146.805 10.056 146.805C9.648 146.805 9.292 146.713 8.988 146.529C8.684 146.345 8.448 146.089 8.28 145.761C8.104 145.433 8.016 145.057 8.016 144.633L8.016 142.593L7.5 142.593C6.644 142.593 6.216 143.061 6.216 143.997C6.216 144.413 6.292 144.749 6.444 145.005C6.596 145.261 6.808 145.397 7.08 145.413L7.08 146.493C6.56 146.453 6.132 146.213 5.796 145.773C5.452 145.325 5.28 144.733 5.28 143.997C5.28 143.197 5.472 142.585 5.856 142.161C6.24 141.729 6.776 141.513 7.464 141.513L12 141.513L12 142.581L10.8 142.581L10.8 142.605C11.208 142.669 11.532 142.873 11.772 143.217C12.004 143.561 12.12 144.017 12.12 144.585ZM11.208 144.321C11.208 143.793 11.08 143.373 10.824 143.061C10.568 142.749 10.22 142.593 9.78 142.593L8.856 142.593L8.856 144.513C8.856 144.865 8.964 145.153 9.18 145.377C9.388 145.593 9.668 145.701 10.02 145.701C10.388 145.701 10.68 145.581 10.896 145.341C11.104 145.093 11.208 144.753 11.208 144.321ZM12.12 137.198C12.12 137.854 11.9 138.382 11.46 138.782C11.02 139.174 10.424 139.37 9.672 139.37L7.74 139.37C6.98 139.37 6.38 139.174 5.94 138.782C5.5 138.39 5.28 137.862 5.28 137.198C5.28 136.702 5.404 136.294 5.652 135.974C5.9 135.646 6.236 135.45 6.66 135.386L6.66 135.374L5.16 135.398L3.24 135.398L3.24 134.318L12 134.318L12 135.398L10.74 135.398L10.74 135.41C11.172 135.466 11.512 135.654 11.76 135.974C12 136.294 12.12 136.702 12.12 137.198ZM11.184 136.838C11.184 136.39 11.044 136.038 10.764 135.782C10.484 135.526 10.096 135.398 9.6 135.398L7.8 135.398C7.304 135.398 6.916 135.526 6.636 135.782C6.356 136.038 6.216 136.39 6.216 136.838C6.216 137.294 6.336 137.65 6.576 137.906C6.808 138.162 7.196 138.29 7.74 138.29L9.66 138.29C10.196 138.29 10.584 138.162 10.824 137.906C11.064 137.65 11.184 137.294 11.184 136.838ZM12 132.199L11.016 132.199L11.016 129.859L6.384 129.859L6.384 131.959L5.4 131.959L5.4 128.779L11.016 128.779L11.016 126.559L12 126.559L12 132.199ZM4.212 129.439C4.212 129.703 4.144 129.911 4.008 130.063C3.872 130.215 3.688 130.291 3.456 130.291C3.216 130.291 3.028 130.215 2.892 130.063C2.748 129.911 2.676 129.703 2.676 129.439C2.676 129.175 2.748 128.967 2.892 128.815C3.028 128.663 3.216 128.587 3.456 128.587C3.688 128.587 3.872 128.663 4.008 128.815C4.144 128.967 4.212 129.175 4.212 129.439ZM12 124.919L5.4 124.919L5.4 123.839L6.66 123.839L6.66 123.827C6.22 123.771 5.88 123.591 5.64 123.287C5.4 122.983 5.28 122.579 5.28 122.075C5.28 121.411 5.484 120.883 5.892 120.491C6.3 120.099 6.856 119.903 7.56 119.903L12 119.903L12 120.983L7.752 120.983C7.248 120.983 6.864 121.111 6.6 121.367C6.328 121.615 6.192 121.955 6.192 122.387C6.192 122.835 6.332 123.191 6.612 123.455C6.892 123.711 7.288 123.839 7.8 123.839L12 123.839L12 124.919ZM14.16 116.896L13.176 116.896L13.176 115.036C13.176 114.66 13.068 114.364 12.852 114.148C12.644 113.932 12.36 113.824 12 113.824L11.4 113.824L10.32 113.8L10.32 113.836C10.712 113.9 11.016 114.088 11.232 114.4C11.44 114.712 11.544 115.104 11.544 115.576C11.544 116.256 11.328 116.792 10.896 117.184C10.464 117.576 9.872 117.772 9.12 117.772L7.728 117.772C6.976 117.772 6.38 117.576 5.94 117.184C5.5 116.792 5.28 116.256 5.28 115.576C5.28 115.104 5.392 114.712 5.616 114.4C5.84 114.088 6.148 113.9 6.54 113.836L6.54 113.812L5.4 113.812L5.4 112.744L12 112.744C12.664 112.744 13.188 112.952 13.572 113.368C13.964 113.776 14.16 114.336 14.16 115.048L14.16 116.896ZM10.644 115.252C10.644 114.804 10.504 114.452 10.224 114.196C9.944 113.94 9.556 113.812 9.06 113.812L7.8 113.812C7.304 113.812 6.916 113.94 6.636 114.196C6.356 114.452 6.216 114.804 6.216 115.252C6.216 115.708 6.348 116.064 6.612 116.32C6.876 116.568 7.232 116.692 7.68 116.692L9.18 116.692C9.628 116.692 9.984 116.568 10.248 116.32C10.512 116.064 10.644 115.708 10.644 115.252Z" fill="#FF4D3A"/>
<path d="M282 162.74C282 163.284 281.844 163.72 281.532 164.048C281.212 164.376 280.788 164.54 280.26 164.54L276.384 164.54L276.384 166.436L275.4 166.436L275.4 164.54L273.54 164.54L273.54 163.46L275.4 163.46L275.4 160.76L276.384 160.76L276.384 163.46L280.26 163.46C280.484 163.46 280.668 163.396 280.812 163.268C280.948 163.132 281.016 162.956 281.016 162.74L281.016 160.82L282 160.82L282 162.74ZM282 158.461L275.4 158.461L275.4 157.381L276.66 157.381L276.66 157.357C276.236 157.301 275.9 157.121 275.652 156.817C275.404 156.513 275.28 156.105 275.28 155.593C275.28 154.905 275.488 154.377 275.904 154.009C276.312 153.633 276.896 153.445 277.656 153.445L278.22 153.445L278.22 154.525L277.656 154.525C276.696 154.525 276.216 154.993 276.216 155.929C276.216 156.401 276.352 156.761 276.624 157.009C276.896 157.257 277.288 157.381 277.8 157.381L282 157.381L282 158.461ZM282.12 149.585C282.12 150.265 281.932 150.805 281.556 151.205C281.172 151.605 280.672 151.805 280.056 151.805C279.648 151.805 279.292 151.713 278.988 151.529C278.684 151.345 278.448 151.089 278.28 150.761C278.104 150.433 278.016 150.057 278.016 149.633L278.016 147.593L277.5 147.593C276.644 147.593 276.216 148.061 276.216 148.997C276.216 149.413 276.292 149.749 276.444 150.005C276.596 150.261 276.808 150.397 277.08 150.413L277.08 151.493C276.56 151.453 276.132 151.213 275.796 150.773C275.452 150.325 275.28 149.733 275.28 148.997C275.28 148.197 275.472 147.585 275.856 147.161C276.24 146.729 276.776 146.513 277.464 146.513L282 146.513L282 147.581L280.8 147.581L280.8 147.605C281.208 147.669 281.532 147.873 281.772 148.217C282.004 148.561 282.12 149.017 282.12 149.585ZM281.208 149.321C281.208 148.793 281.08 148.373 280.824 148.061C280.568 147.749 280.22 147.593 279.78 147.593L278.856 147.593L278.856 149.513C278.856 149.865 278.964 150.153 279.18 150.377C279.388 150.593 279.668 150.701 280.02 150.701C280.388 150.701 280.68 150.581 280.896 150.341C281.104 150.093 281.208 149.753 281.208 149.321ZM282 144.394L281.016 144.394L281.016 142.054L276.384 142.054L276.384 144.154L275.4 144.154L275.4 140.974L281.016 140.974L281.016 138.754L282 138.754L282 144.394ZM274.212 141.634C274.212 141.898 274.144 142.106 274.008 142.258C273.872 142.41 273.688 142.486 273.456 142.486C273.216 142.486 273.028 142.41 272.892 142.258C272.748 142.106 272.676 141.898 272.676 141.634C272.676 141.37 272.748 141.162 272.892 141.01C273.028 140.858 273.216 140.782 273.456 140.782C273.688 140.782 273.872 140.858 274.008 141.01C274.144 141.162 274.212 141.37 274.212 141.634ZM282 133.659C282 134.243 281.832 134.711 281.496 135.063C281.152 135.407 280.7 135.579 280.14 135.579L274.224 135.579L274.224 137.859L273.24 137.859L273.24 134.499L280.14 134.499C280.412 134.499 280.628 134.423 280.788 134.271C280.94 134.119 281.016 133.915 281.016 133.659L281.016 131.619L282 131.619L282 133.659ZM282 130.003L281.016 130.003L281.016 127.663L276.384 127.663L276.384 129.763L275.4 129.763L275.4 126.583L281.016 126.583L281.016 124.363L282 124.363L282 130.003ZM274.212 127.243C274.212 127.507 274.144 127.715 274.008 127.867C273.872 128.019 273.688 128.095 273.456 128.095C273.216 128.095 273.028 128.019 272.892 127.867C272.748 127.715 272.676 127.507 272.676 127.243C272.676 126.979 272.748 126.771 272.892 126.619C273.028 126.467 273.216 126.391 273.456 126.391C273.688 126.391 273.872 126.467 274.008 126.619C274.144 126.771 274.212 126.979 274.212 127.243ZM282 122.724L275.4 122.724L275.4 121.644L276.66 121.644L276.66 121.632C276.22 121.576 275.88 121.396 275.64 121.092C275.4 120.788 275.28 120.384 275.28 119.88C275.28 119.216 275.484 118.688 275.892 118.296C276.3 117.904 276.856 117.708 277.56 117.708L282 117.708L282 118.788L277.752 118.788C277.248 118.788 276.864 118.916 276.6 119.172C276.328 119.42 276.192 119.76 276.192 120.192C276.192 120.64 276.332 120.996 276.612 121.26C276.892 121.516 277.288 121.644 277.8 121.644L282 121.644L282 122.724ZM284.16 114.701L283.176 114.701L283.176 112.841C283.176 112.465 283.068 112.169 282.852 111.953C282.644 111.737 282.36 111.629 282 111.629L281.4 111.629L280.32 111.605L280.32 111.641C280.712 111.705 281.016 111.893 281.232 112.205C281.44 112.517 281.544 112.909 281.544 113.381C281.544 114.061 281.328 114.597 280.896 114.989C280.464 115.381 279.872 115.577 279.12 115.577L277.728 115.577C276.976 115.577 276.38 115.381 275.94 114.989C275.5 114.597 275.28 114.061 275.28 113.381C275.28 112.909 275.392 112.517 275.616 112.205C275.84 111.893 276.148 111.705 276.54 111.641L276.54 111.617L275.4 111.617L275.4 110.549L282 110.549C282.664 110.549 283.188 110.757 283.572 111.173C283.964 111.581 284.16 112.141 284.16 112.853L284.16 114.701ZM280.644 113.057C280.644 112.609 280.504 112.257 280.224 112.001C279.944 111.745 279.556 111.617 279.06 111.617L277.8 111.617C277.304 111.617 276.916 111.745 276.636 112.001C276.356 112.257 276.216 112.609 276.216 113.057C276.216 113.513 276.348 113.869 276.612 114.125C276.876 114.373 277.232 114.497 277.68 114.497L279.18 114.497C279.628 114.497 279.984 114.373 280.248 114.125C280.512 113.869 280.644 113.513 280.644 113.057Z" fill="#FF4D3A"/>
<path d="M191.26 20C190.716 20 190.28 19.844 189.952 19.532C189.624 19.212 189.46 18.788 189.46 18.26V14.384H187.564V13.4H189.46V11.54H190.54V13.4H193.24V14.384H190.54V18.26C190.54 18.484 190.604 18.668 190.732 18.812C190.868 18.948 191.044 19.016 191.26 19.016H193.18V20H191.26ZM197.795 20.096C197.003 20.096 196.371 19.864 195.899 19.4C195.435 18.936 195.203 18.288 195.203 17.456V15.944C195.203 15.104 195.435 14.456 195.899 14C196.363 13.536 196.995 13.304 197.795 13.304C198.595 13.304 199.227 13.536 199.691 14C200.155 14.456 200.387 15.104 200.387 15.944V17.456C200.387 18.288 200.151 18.936 199.679 19.4C199.215 19.864 198.587 20.096 197.795 20.096ZM197.795 19.136C198.267 19.136 198.635 19.004 198.899 18.74C199.171 18.476 199.307 18.088 199.307 17.576V15.824C199.307 15.312 199.171 14.924 198.899 14.66C198.635 14.396 198.267 14.264 197.795 14.264C197.331 14.264 196.963 14.396 196.691 14.66C196.419 14.924 196.283 15.312 196.283 15.824V17.576C196.283 18.088 196.419 18.476 196.691 18.74C196.963 19.004 197.331 19.136 197.795 19.136ZM202.495 22.16V13.4H203.575V14.66H203.587C203.643 14.228 203.831 13.892 204.151 13.652C204.471 13.404 204.879 13.28 205.375 13.28C206.039 13.28 206.567 13.5 206.959 13.94C207.351 14.372 207.547 14.968 207.547 15.728V17.66C207.547 18.42 207.351 19.02 206.959 19.46C206.567 19.9 206.039 20.12 205.375 20.12C204.879 20.12 204.471 19.996 204.151 19.748C203.831 19.5 203.643 19.164 203.587 18.74H203.551L203.575 20.24V22.16H202.495ZM205.015 19.184C205.471 19.184 205.827 19.064 206.083 18.824C206.339 18.584 206.467 18.196 206.467 17.66V15.74C206.467 15.196 206.339 14.808 206.083 14.576C205.827 14.336 205.471 14.216 205.015 14.216C204.575 14.216 204.223 14.356 203.959 14.636C203.703 14.916 203.575 15.304 203.575 15.8V17.6C203.575 18.096 203.703 18.484 203.959 18.764C204.223 19.044 204.575 19.184 205.015 19.184ZM211.646 20V12.224H209.246V11.24H215.126V12.224H212.726V20H211.646ZM217.125 20V13.4H218.205V14.66H218.229C218.285 14.236 218.465 13.9 218.769 13.652C219.073 13.404 219.481 13.28 219.993 13.28C220.681 13.28 221.209 13.488 221.577 13.904C221.953 14.312 222.141 14.896 222.141 15.656V16.22H221.061V15.656C221.061 14.696 220.593 14.216 219.657 14.216C219.185 14.216 218.825 14.352 218.577 14.624C218.329 14.896 218.205 15.288 218.205 15.8V20H217.125ZM226.001 20.12C225.321 20.12 224.781 19.932 224.381 19.556C223.981 19.172 223.781 18.672 223.781 18.056C223.781 17.648 223.873 17.292 224.057 16.988C224.241 16.684 224.497 16.448 224.825 16.28C225.153 16.104 225.529 16.016 225.953 16.016H227.993V15.5C227.993 14.644 227.525 14.216 226.589 14.216C226.173 14.216 225.837 14.292 225.581 14.444C225.325 14.596 225.189 14.808 225.173 15.08H224.093C224.133 14.56 224.373 14.132 224.813 13.796C225.261 13.452 225.853 13.28 226.589 13.28C227.389 13.28 228.001 13.472 228.425 13.856C228.857 14.24 229.073 14.776 229.073 15.464V20H228.005V18.8H227.981C227.917 19.208 227.713 19.532 227.369 19.772C227.025 20.004 226.569 20.12 226.001 20.12ZM226.265 19.208C226.793 19.208 227.213 19.08 227.525 18.824C227.837 18.568 227.993 18.22 227.993 17.78V16.856H226.073C225.721 16.856 225.433 16.964 225.209 17.18C224.993 17.388 224.885 17.668 224.885 18.02C224.885 18.388 225.005 18.68 225.245 18.896C225.493 19.104 225.833 19.208 226.265 19.208ZM231.192 20V19.016H233.532V14.384H231.432V13.4H234.612V19.016H236.832V20H231.192ZM233.952 12.212C233.688 12.212 233.48 12.144 233.328 12.008C233.176 11.872 233.1 11.688 233.1 11.456C233.1 11.216 233.176 11.028 233.328 10.892C233.48 10.748 233.688 10.676 233.952 10.676C234.216 10.676 234.424 10.748 234.576 10.892C234.728 11.028 234.804 11.216 234.804 11.456C234.804 11.688 234.728 11.872 234.576 12.008C234.424 12.144 234.216 12.212 233.952 12.212ZM241.927 20C241.343 20 240.875 19.832 240.523 19.496C240.179 19.152 240.007 18.7 240.007 18.14V12.224H237.727V11.24H241.087V18.14C241.087 18.412 241.163 18.628 241.315 18.788C241.467 18.94 241.671 19.016 241.927 19.016H243.967V20H241.927ZM245.583 20V19.016H247.923V14.384H245.823V13.4H249.003V19.016H251.223V20H245.583ZM248.343 12.212C248.079 12.212 247.871 12.144 247.719 12.008C247.567 11.872 247.491 11.688 247.491 11.456C247.491 11.216 247.567 11.028 247.719 10.892C247.871 10.748 248.079 10.676 248.343 10.676C248.607 10.676 248.815 10.748 248.967 10.892C249.119 11.028 249.195 11.216 249.195 11.456C249.195 11.688 249.119 11.872 248.967 12.008C248.815 12.144 248.607 12.212 248.343 12.212ZM252.862 20V13.4H253.942V14.66H253.954C254.01 14.22 254.19 13.88 254.494 13.64C254.798 13.4 255.202 13.28 255.706 13.28C256.37 13.28 256.898 13.484 257.29 13.892C257.682 14.3 257.878 14.856 257.878 15.56V20H256.798V15.752C256.798 15.248 256.67 14.864 256.414 14.6C256.166 14.328 255.826 14.192 255.394 14.192C254.946 14.192 254.59 14.332 254.326 14.612C254.07 14.892 253.942 15.288 253.942 15.8V20H252.862ZM260.885 22.16V21.176H262.745C263.121 21.176 263.417 21.068 263.633 20.852C263.849 20.644 263.957 20.36 263.957 20V19.4L263.981 18.32H263.945C263.881 18.712 263.693 19.016 263.381 19.232C263.069 19.44 262.677 19.544 262.205 19.544C261.525 19.544 260.989 19.328 260.597 18.896C260.205 18.464 260.009 17.872 260.009 17.12V15.728C260.009 14.976 260.205 14.38 260.597 13.94C260.989 13.5 261.525 13.28 262.205 13.28C262.677 13.28 263.069 13.392 263.381 13.616C263.693 13.84 263.881 14.148 263.945 14.54H263.969V13.4H265.037V20C265.037 20.664 264.829 21.188 264.413 21.572C264.005 21.964 263.445 22.16 262.733 22.16H260.885ZM262.529 18.644C262.977 18.644 263.329 18.504 263.585 18.224C263.841 17.944 263.969 17.556 263.969 17.06V15.8C263.969 15.304 263.841 14.916 263.585 14.636C263.329 14.356 262.977 14.216 262.529 14.216C262.073 14.216 261.717 14.348 261.461 14.612C261.213 14.876 261.089 15.232 261.089 15.68V17.18C261.089 17.628 261.213 17.984 261.461 18.248C261.717 18.512 262.073 18.644 262.529 18.644Z" fill="#FF4D3A"/>
<path d="M168.984 266.12C168.488 266.12 168.08 266 167.76 265.76C167.44 265.512 167.252 265.172 167.196 264.74H167.184V266H166.104V257.24H167.184V259.16L167.16 260.66H167.172C167.236 260.236 167.428 259.9 167.748 259.652C168.076 259.404 168.488 259.28 168.984 259.28C169.648 259.28 170.176 259.5 170.568 259.94C170.96 260.38 171.156 260.98 171.156 261.74V263.672C171.156 264.424 170.96 265.02 170.568 265.46C170.176 265.9 169.648 266.12 168.984 266.12ZM168.624 265.184C169.08 265.184 169.436 265.064 169.692 264.824C169.948 264.584 170.076 264.196 170.076 263.66V261.74C170.076 261.196 169.948 260.808 169.692 260.576C169.436 260.336 169.08 260.216 168.624 260.216C168.184 260.216 167.832 260.356 167.568 260.636C167.312 260.916 167.184 261.304 167.184 261.8V263.6C167.184 264.096 167.312 264.484 167.568 264.764C167.832 265.044 168.184 265.184 168.624 265.184ZM175.795 266.096C175.003 266.096 174.371 265.864 173.899 265.4C173.435 264.936 173.203 264.288 173.203 263.456V261.944C173.203 261.104 173.435 260.456 173.899 260C174.363 259.536 174.995 259.304 175.795 259.304C176.595 259.304 177.227 259.536 177.691 260C178.155 260.456 178.387 261.104 178.387 261.944V263.456C178.387 264.288 178.151 264.936 177.679 265.4C177.215 265.864 176.587 266.096 175.795 266.096ZM175.795 265.136C176.267 265.136 176.635 265.004 176.899 264.74C177.171 264.476 177.307 264.088 177.307 263.576V261.824C177.307 261.312 177.171 260.924 176.899 260.66C176.635 260.396 176.267 260.264 175.795 260.264C175.331 260.264 174.963 260.396 174.691 260.66C174.419 260.924 174.283 261.312 174.283 261.824V263.576C174.283 264.088 174.419 264.476 174.691 264.74C174.963 265.004 175.331 265.136 175.795 265.136ZM183.651 266C183.107 266 182.671 265.844 182.343 265.532C182.015 265.212 181.851 264.788 181.851 264.26V260.384H179.955V259.4H181.851V257.54H182.931V259.4H185.631V260.384H182.931V264.26C182.931 264.484 182.995 264.668 183.123 264.812C183.259 264.948 183.435 265.016 183.651 265.016H185.571V266H183.651ZM190.846 266C190.302 266 189.866 265.844 189.538 265.532C189.21 265.212 189.046 264.788 189.046 264.26V260.384H187.15V259.4H189.046V257.54H190.126V259.4H192.826V260.384H190.126V264.26C190.126 264.484 190.19 264.668 190.318 264.812C190.454 264.948 190.63 265.016 190.846 265.016H192.766V266H190.846ZM197.381 266.096C196.589 266.096 195.957 265.864 195.485 265.4C195.021 264.936 194.789 264.288 194.789 263.456V261.944C194.789 261.104 195.021 260.456 195.485 260C195.949 259.536 196.581 259.304 197.381 259.304C198.181 259.304 198.813 259.536 199.277 260C199.741 260.456 199.973 261.104 199.973 261.944V263.456C199.973 264.288 199.737 264.936 199.265 265.4C198.801 265.864 198.173 266.096 197.381 266.096ZM197.381 265.136C197.853 265.136 198.221 265.004 198.485 264.74C198.757 264.476 198.893 264.088 198.893 263.576V261.824C198.893 261.312 198.757 260.924 198.485 260.66C198.221 260.396 197.853 260.264 197.381 260.264C196.917 260.264 196.549 260.396 196.277 260.66C196.005 260.924 195.869 261.312 195.869 261.824V263.576C195.869 264.088 196.005 264.476 196.277 264.74C196.549 265.004 196.917 265.136 197.381 265.136ZM201.697 266V259.4H202.633V260.276H202.657C202.697 259.98 202.813 259.74 203.005 259.556C203.205 259.372 203.457 259.28 203.761 259.28C204.049 259.28 204.293 259.364 204.493 259.532C204.693 259.7 204.837 259.928 204.925 260.216H204.937C204.993 259.928 205.117 259.7 205.309 259.532C205.509 259.364 205.761 259.28 206.065 259.28C206.489 259.28 206.825 259.44 207.073 259.76C207.329 260.072 207.457 260.48 207.457 260.984V266H206.449V260.972C206.449 260.708 206.385 260.5 206.257 260.348C206.129 260.188 205.953 260.108 205.729 260.108C205.513 260.108 205.341 260.184 205.213 260.336C205.085 260.488 205.021 260.696 205.021 260.96V266H204.133V260.972C204.133 260.708 204.069 260.5 203.941 260.348C203.813 260.188 203.641 260.108 203.425 260.108C203.201 260.108 203.025 260.184 202.897 260.336C202.769 260.488 202.705 260.696 202.705 260.96V266H201.697ZM211.232 266V258.224H208.832V257.24H214.712V258.224H212.312V266H211.232ZM216.711 266V259.4H217.791V260.66H217.815C217.871 260.236 218.051 259.9 218.355 259.652C218.659 259.404 219.067 259.28 219.579 259.28C220.267 259.28 220.795 259.488 221.163 259.904C221.539 260.312 221.727 260.896 221.727 261.656V262.22H220.647V261.656C220.647 260.696 220.179 260.216 219.243 260.216C218.771 260.216 218.411 260.352 218.163 260.624C217.915 260.896 217.791 261.288 217.791 261.8V266H216.711ZM225.587 266.12C224.907 266.12 224.367 265.932 223.967 265.556C223.567 265.172 223.367 264.672 223.367 264.056C223.367 263.648 223.459 263.292 223.643 262.988C223.827 262.684 224.083 262.448 224.411 262.28C224.739 262.104 225.115 262.016 225.539 262.016H227.579V261.5C227.579 260.644 227.111 260.216 226.175 260.216C225.759 260.216 225.423 260.292 225.167 260.444C224.911 260.596 224.775 260.808 224.759 261.08H223.679C223.719 260.56 223.959 260.132 224.399 259.796C224.847 259.452 225.439 259.28 226.175 259.28C226.975 259.28 227.587 259.472 228.011 259.856C228.443 260.24 228.659 260.776 228.659 261.464V266H227.591V264.8H227.567C227.503 265.208 227.299 265.532 226.955 265.772C226.611 266.004 226.155 266.12 225.587 266.12ZM225.851 265.208C226.379 265.208 226.799 265.08 227.111 264.824C227.423 264.568 227.579 264.22 227.579 263.78V262.856H225.659C225.307 262.856 225.019 262.964 224.795 263.18C224.579 263.388 224.471 263.668 224.471 264.02C224.471 264.388 224.591 264.68 224.831 264.896C225.079 265.104 225.419 265.208 225.851 265.208ZM230.778 266V265.016H233.118V260.384H231.018V259.4H234.198V265.016H236.418V266H230.778ZM233.538 258.212C233.274 258.212 233.066 258.144 232.914 258.008C232.762 257.872 232.686 257.688 232.686 257.456C232.686 257.216 232.762 257.028 232.914 256.892C233.066 256.748 233.274 256.676 233.538 256.676C233.802 256.676 234.01 256.748 234.162 256.892C234.314 257.028 234.39 257.216 234.39 257.456C234.39 257.688 234.314 257.872 234.162 258.008C234.01 258.144 233.802 258.212 233.538 258.212ZM241.513 266C240.929 266 240.461 265.832 240.109 265.496C239.765 265.152 239.593 264.7 239.593 264.14V258.224H237.313V257.24H240.673V264.14C240.673 264.412 240.749 264.628 240.901 264.788C241.053 264.94 241.257 265.016 241.513 265.016H243.553V266H241.513ZM245.168 266V265.016H247.508V260.384H245.408V259.4H248.588V265.016H250.808V266H245.168ZM247.928 258.212C247.664 258.212 247.456 258.144 247.304 258.008C247.152 257.872 247.076 257.688 247.076 257.456C247.076 257.216 247.152 257.028 247.304 256.892C247.456 256.748 247.664 256.676 247.928 256.676C248.192 256.676 248.4 256.748 248.552 256.892C248.704 257.028 248.78 257.216 248.78 257.456C248.78 257.688 248.704 257.872 248.552 258.008C248.4 258.144 248.192 258.212 247.928 258.212ZM252.448 266V259.4H253.528V260.66H253.54C253.596 260.22 253.776 259.88 254.08 259.64C254.384 259.4 254.788 259.28 255.292 259.28C255.956 259.28 256.484 259.484 256.876 259.892C257.268 260.3 257.464 260.856 257.464 261.56V266H256.384V261.752C256.384 261.248 256.256 260.864 256 260.6C255.752 260.328 255.412 260.192 254.98 260.192C254.532 260.192 254.176 260.332 253.912 260.612C253.656 260.892 253.528 261.288 253.528 261.8V266H252.448ZM260.471 268.16V267.176H262.331C262.707 267.176 263.003 267.068 263.219 266.852C263.435 266.644 263.543 266.36 263.543 266V265.4L263.567 264.32H263.531C263.467 264.712 263.279 265.016 262.967 265.232C262.655 265.44 262.263 265.544 261.791 265.544C261.111 265.544 260.575 265.328 260.183 264.896C259.791 264.464 259.595 263.872 259.595 263.12V261.728C259.595 260.976 259.791 260.38 260.183 259.94C260.575 259.5 261.111 259.28 261.791 259.28C262.263 259.28 262.655 259.392 262.967 259.616C263.279 259.84 263.467 260.148 263.531 260.54H263.555V259.4H264.623V266C264.623 266.664 264.415 267.188 263.999 267.572C263.591 267.964 263.031 268.16 262.319 268.16H260.471ZM262.115 264.644C262.563 264.644 262.915 264.504 263.171 264.224C263.427 263.944 263.555 263.556 263.555 263.06V261.8C263.555 261.304 263.427 260.916 263.171 260.636C262.915 260.356 262.563 260.216 262.115 260.216C261.659 260.216 261.303 260.348 261.047 260.612C260.799 260.876 260.675 261.232 260.675 261.68V263.18C260.675 263.628 260.799 263.984 261.047 264.248C261.303 264.512 261.659 264.644 262.115 264.644Z" fill="#FF4D3A"/>
<path d="M29.984 266.12C29.488 266.12 29.08 266 28.76 265.76C28.44 265.512 28.252 265.172 28.196 264.74H28.184V266H27.104V257.24H28.184V259.16L28.16 260.66H28.172C28.236 260.236 28.428 259.9 28.748 259.652C29.076 259.404 29.488 259.28 29.984 259.28C30.648 259.28 31.176 259.5 31.568 259.94C31.96 260.38 32.156 260.98 32.156 261.74V263.672C32.156 264.424 31.96 265.02 31.568 265.46C31.176 265.9 30.648 266.12 29.984 266.12ZM29.624 265.184C30.08 265.184 30.436 265.064 30.692 264.824C30.948 264.584 31.076 264.196 31.076 263.66V261.74C31.076 261.196 30.948 260.808 30.692 260.576C30.436 260.336 30.08 260.216 29.624 260.216C29.184 260.216 28.832 260.356 28.568 260.636C28.312 260.916 28.184 261.304 28.184 261.8V263.6C28.184 264.096 28.312 264.484 28.568 264.764C28.832 265.044 29.184 265.184 29.624 265.184ZM36.7953 266.096C36.0033 266.096 35.3713 265.864 34.8993 265.4C34.4353 264.936 34.2033 264.288 34.2033 263.456V261.944C34.2033 261.104 34.4353 260.456 34.8993 260C35.3633 259.536 35.9953 259.304 36.7953 259.304C37.5953 259.304 38.2273 259.536 38.6913 260C39.1553 260.456 39.3873 261.104 39.3873 261.944V263.456C39.3873 264.288 39.1513 264.936 38.6793 265.4C38.2153 265.864 37.5873 266.096 36.7953 266.096ZM36.7953 265.136C37.2673 265.136 37.6353 265.004 37.8993 264.74C38.1713 264.476 38.3073 264.088 38.3073 263.576V261.824C38.3073 261.312 38.1713 260.924 37.8993 260.66C37.6353 260.396 37.2673 260.264 36.7953 260.264C36.3313 260.264 35.9633 260.396 35.6913 260.66C35.4193 260.924 35.2833 261.312 35.2833 261.824V263.576C35.2833 264.088 35.4193 264.476 35.6913 264.74C35.9633 265.004 36.3313 265.136 36.7953 265.136ZM44.6506 266C44.1066 266 43.6706 265.844 43.3426 265.532C43.0146 265.212 42.8506 264.788 42.8506 264.26V260.384H40.9546V259.4H42.8506V257.54H43.9306V259.4H46.6306V260.384H43.9306V264.26C43.9306 264.484 43.9946 264.668 44.1226 264.812C44.2586 264.948 44.4346 265.016 44.6506 265.016H46.5706V266H44.6506ZM51.8459 266C51.3019 266 50.8659 265.844 50.5379 265.532C50.2099 265.212 50.0459 264.788 50.0459 264.26V260.384H48.1499V259.4H50.0459V257.54H51.1259V259.4H53.8259V260.384H51.1259V264.26C51.1259 264.484 51.1899 264.668 51.3179 264.812C51.4539 264.948 51.6299 265.016 51.8459 265.016H53.7659V266H51.8459ZM58.3813 266.096C57.5893 266.096 56.9573 265.864 56.4853 265.4C56.0213 264.936 55.7893 264.288 55.7893 263.456V261.944C55.7893 261.104 56.0213 260.456 56.4853 260C56.9493 259.536 57.5813 259.304 58.3813 259.304C59.1813 259.304 59.8133 259.536 60.2773 260C60.7413 260.456 60.9733 261.104 60.9733 261.944V263.456C60.9733 264.288 60.7373 264.936 60.2653 265.4C59.8013 265.864 59.1733 266.096 58.3813 266.096ZM58.3813 265.136C58.8533 265.136 59.2213 265.004 59.4853 264.74C59.7573 264.476 59.8933 264.088 59.8933 263.576V261.824C59.8933 261.312 59.7573 260.924 59.4853 260.66C59.2213 260.396 58.8533 260.264 58.3813 260.264C57.9173 260.264 57.5493 260.396 57.2773 260.66C57.0053 260.924 56.8693 261.312 56.8693 261.824V263.576C56.8693 264.088 57.0053 264.476 57.2773 264.74C57.5493 265.004 57.9173 265.136 58.3813 265.136ZM62.6966 266V259.4H63.6326V260.276H63.6566C63.6966 259.98 63.8126 259.74 64.0046 259.556C64.2046 259.372 64.4566 259.28 64.7606 259.28C65.0486 259.28 65.2926 259.364 65.4926 259.532C65.6926 259.7 65.8366 259.928 65.9246 260.216H65.9366C65.9926 259.928 66.1166 259.7 66.3086 259.532C66.5086 259.364 66.7606 259.28 67.0646 259.28C67.4886 259.28 67.8246 259.44 68.0726 259.76C68.3286 260.072 68.4566 260.48 68.4566 260.984V266H67.4486V260.972C67.4486 260.708 67.3846 260.5 67.2566 260.348C67.1286 260.188 66.9526 260.108 66.7286 260.108C66.5126 260.108 66.3406 260.184 66.2126 260.336C66.0846 260.488 66.0206 260.696 66.0206 260.96V266H65.1326V260.972C65.1326 260.708 65.0686 260.5 64.9406 260.348C64.8126 260.188 64.6406 260.108 64.4246 260.108C64.2006 260.108 64.0246 260.184 63.8966 260.336C63.7686 260.488 63.7046 260.696 63.7046 260.96V266H62.6966ZM70.7319 266V257.24H71.8119V265.016H75.7719V266H70.7319ZM79.9672 266.12C79.1912 266.12 78.5632 265.888 78.0832 265.424C77.6112 264.952 77.3752 264.304 77.3752 263.48V261.92C77.3752 261.096 77.6112 260.452 78.0832 259.988C78.5632 259.516 79.1912 259.28 79.9672 259.28C80.4872 259.28 80.9392 259.384 81.3232 259.592C81.7152 259.8 82.0192 260.092 82.2352 260.468C82.4512 260.844 82.5592 261.288 82.5592 261.8V262.976H78.4312V263.6C78.4312 264.088 78.5712 264.476 78.8512 264.764C79.1312 265.044 79.5032 265.184 79.9672 265.184C80.3672 265.184 80.6952 265.108 80.9512 264.956C81.2152 264.796 81.3752 264.584 81.4312 264.32H82.5112C82.4392 264.872 82.1712 265.312 81.7072 265.64C81.2432 265.96 80.6632 266.12 79.9672 266.12ZM78.4312 262.136H81.5032V261.8C81.5032 261.28 81.3672 260.88 81.0952 260.6C80.8312 260.312 80.4552 260.168 79.9672 260.168C79.4792 260.168 79.0992 260.312 78.8272 260.6C78.5632 260.88 78.4312 261.28 78.4312 261.8V262.136ZM86.5865 266.12C85.9065 266.12 85.3665 265.932 84.9665 265.556C84.5665 265.172 84.3665 264.672 84.3665 264.056C84.3665 263.648 84.4585 263.292 84.6425 262.988C84.8265 262.684 85.0825 262.448 85.4105 262.28C85.7385 262.104 86.1145 262.016 86.5385 262.016H88.5785V261.5C88.5785 260.644 88.1105 260.216 87.1745 260.216C86.7585 260.216 86.4225 260.292 86.1665 260.444C85.9105 260.596 85.7745 260.808 85.7585 261.08H84.6785C84.7185 260.56 84.9585 260.132 85.3985 259.796C85.8465 259.452 86.4385 259.28 87.1745 259.28C87.9745 259.28 88.5865 259.472 89.0105 259.856C89.4425 260.24 89.6585 260.776 89.6585 261.464V266H88.5905V264.8H88.5665C88.5025 265.208 88.2985 265.532 87.9545 265.772C87.6105 266.004 87.1545 266.12 86.5865 266.12ZM86.8505 265.208C87.3785 265.208 87.7985 265.08 88.1105 264.824C88.4225 264.568 88.5785 264.22 88.5785 263.78V262.856H86.6585C86.3065 262.856 86.0185 262.964 85.7945 263.18C85.5785 263.388 85.4705 263.668 85.4705 264.02C85.4705 264.388 85.5905 264.68 85.8305 264.896C86.0785 265.104 86.4185 265.208 86.8505 265.208ZM93.9738 266.12C93.3178 266.12 92.7898 265.9 92.3898 265.46C91.9978 265.02 91.8018 264.424 91.8018 263.672V261.74C91.8018 260.98 91.9978 260.38 92.3898 259.94C92.7818 259.5 93.3098 259.28 93.9738 259.28C94.4698 259.28 94.8778 259.404 95.1978 259.652C95.5258 259.9 95.7218 260.236 95.7858 260.66H95.7978L95.7738 259.16V257.24H96.8538V266H95.7738V264.74H95.7618C95.7058 265.172 95.5178 265.512 95.1978 265.76C94.8778 266 94.4698 266.12 93.9738 266.12ZM94.3338 265.184C94.7818 265.184 95.1338 265.044 95.3898 264.764C95.6458 264.484 95.7738 264.096 95.7738 263.6V261.8C95.7738 261.304 95.6458 260.916 95.3898 260.636C95.1338 260.356 94.7818 260.216 94.3338 260.216C93.8778 260.216 93.5218 260.336 93.2658 260.576C93.0098 260.808 92.8818 261.196 92.8818 261.74V263.66C92.8818 264.196 93.0098 264.584 93.2658 264.824C93.5218 265.064 93.8778 265.184 94.3338 265.184ZM98.9731 266V265.016H101.313V260.384H99.2131V259.4H102.393V265.016H104.613V266H98.9731ZM101.733 258.212C101.469 258.212 101.261 258.144 101.109 258.008C100.957 257.872 100.881 257.688 100.881 257.456C100.881 257.216 100.957 257.028 101.109 256.892C101.261 256.748 101.469 256.676 101.733 256.676C101.997 256.676 102.205 256.748 102.357 256.892C102.509 257.028 102.585 257.216 102.585 257.456C102.585 257.688 102.509 257.872 102.357 258.008C102.205 258.144 101.997 258.212 101.733 258.212ZM106.252 266V259.4H107.332V260.66H107.344C107.4 260.22 107.58 259.88 107.884 259.64C108.188 259.4 108.592 259.28 109.096 259.28C109.76 259.28 110.288 259.484 110.68 259.892C111.072 260.3 111.268 260.856 111.268 261.56V266H110.188V261.752C110.188 261.248 110.06 260.864 109.804 260.6C109.556 260.328 109.216 260.192 108.784 260.192C108.336 260.192 107.98 260.332 107.716 260.612C107.46 260.892 107.332 261.288 107.332 261.8V266H106.252ZM114.276 268.16V267.176H116.136C116.512 267.176 116.808 267.068 117.024 266.852C117.24 266.644 117.348 266.36 117.348 266V265.4L117.372 264.32H117.336C117.272 264.712 117.084 265.016 116.772 265.232C116.46 265.44 116.068 265.544 115.596 265.544C114.916 265.544 114.38 265.328 113.988 264.896C113.596 264.464 113.4 263.872 113.4 263.12V261.728C113.4 260.976 113.596 260.38 113.988 259.94C114.38 259.5 114.916 259.28 115.596 259.28C116.068 259.28 116.46 259.392 116.772 259.616C117.084 259.84 117.272 260.148 117.336 260.54H117.36V259.4H118.428V266C118.428 266.664 118.22 267.188 117.804 267.572C117.396 267.964 116.836 268.16 116.124 268.16H114.276ZM115.92 264.644C116.368 264.644 116.72 264.504 116.976 264.224C117.232 263.944 117.36 263.556 117.36 263.06V261.8C117.36 261.304 117.232 260.916 116.976 260.636C116.72 260.356 116.368 260.216 115.92 260.216C115.464 260.216 115.108 260.348 114.852 260.612C114.604 260.876 114.48 261.232 114.48 261.68V263.18C114.48 263.628 114.604 263.984 114.852 264.248C115.108 264.512 115.464 264.644 115.92 264.644Z" fill="#FF4D3A"/>
<path d="M139.26 12C138.716 12 138.28 11.844 137.952 11.532C137.624 11.212 137.46 10.788 137.46 10.26V6.384H135.564V5.4H137.46V3.54H138.54V5.4H141.24V6.384H138.54V10.26C138.54 10.484 138.604 10.668 138.732 10.812C138.868 10.948 139.044 11.016 139.26 11.016H141.18V12H139.26ZM145.795 12.096C145.003 12.096 144.371 11.864 143.899 11.4C143.435 10.936 143.203 10.288 143.203 9.456V7.944C143.203 7.104 143.435 6.456 143.899 6C144.363 5.536 144.995 5.304 145.795 5.304C146.595 5.304 147.227 5.536 147.691 6C148.155 6.456 148.387 7.104 148.387 7.944V9.456C148.387 10.288 148.151 10.936 147.679 11.4C147.215 11.864 146.587 12.096 145.795 12.096ZM145.795 11.136C146.267 11.136 146.635 11.004 146.899 10.74C147.171 10.476 147.307 10.088 147.307 9.576V7.824C147.307 7.312 147.171 6.924 146.899 6.66C146.635 6.396 146.267 6.264 145.795 6.264C145.331 6.264 144.963 6.396 144.691 6.66C144.419 6.924 144.283 7.312 144.283 7.824V9.576C144.283 10.088 144.419 10.476 144.691 10.74C144.963 11.004 145.331 11.136 145.795 11.136ZM150.495 14.16V5.4H151.575V6.66H151.587C151.643 6.228 151.831 5.892 152.151 5.652C152.471 5.404 152.879 5.28 153.375 5.28C154.039 5.28 154.567 5.5 154.959 5.94C155.351 6.372 155.547 6.968 155.547 7.728V9.66C155.547 10.42 155.351 11.02 154.959 11.46C154.567 11.9 154.039 12.12 153.375 12.12C152.879 12.12 152.471 11.996 152.151 11.748C151.831 11.5 151.643 11.164 151.587 10.74H151.551L151.575 12.24V14.16H150.495ZM153.015 11.184C153.471 11.184 153.827 11.064 154.083 10.824C154.339 10.584 154.467 10.196 154.467 9.66V7.74C154.467 7.196 154.339 6.808 154.083 6.576C153.827 6.336 153.471 6.216 153.015 6.216C152.575 6.216 152.223 6.356 151.959 6.636C151.703 6.916 151.575 7.304 151.575 7.8V9.6C151.575 10.096 151.703 10.484 151.959 10.764C152.223 11.044 152.575 11.184 153.015 11.184Z" fill="#FF4D3A"/>
<path d="M30 158.44C30 159.024 29.832 159.492 29.496 159.844C29.152 160.188 28.7 160.36 28.14 160.36L22.224 160.36L22.224 162.64L21.24 162.64L21.24 159.28L28.14 159.28C28.412 159.28 28.628 159.204 28.788 159.052C28.94 158.9 29.016 158.696 29.016 158.44L29.016 156.4L30 156.4L30 158.44ZM30.12 152.205C30.12 152.981 29.888 153.609 29.424 154.089C28.952 154.561 28.304 154.797 27.48 154.797L25.92 154.797C25.096 154.797 24.452 154.561 23.988 154.089C23.516 153.609 23.28 152.981 23.28 152.205C23.28 151.685 23.384 151.233 23.592 150.849C23.8 150.457 24.092 150.153 24.468 149.937C24.844 149.721 25.288 149.613 25.8 149.613L26.976 149.613L26.976 153.741L27.6 153.741C28.088 153.741 28.476 153.601 28.764 153.321C29.044 153.041 29.184 152.669 29.184 152.205C29.184 151.805 29.108 151.477 28.956 151.221C28.796 150.957 28.584 150.797 28.32 150.741L28.32 149.661C28.872 149.733 29.312 150.001 29.64 150.465C29.96 150.929 30.12 151.509 30.12 152.205ZM26.136 153.741L26.136 150.669L25.8 150.669C25.28 150.669 24.88 150.805 24.6 151.077C24.312 151.341 24.168 151.717 24.168 152.205C24.168 152.693 24.312 153.073 24.6 153.345C24.88 153.609 25.28 153.741 25.8 153.741L26.136 153.741ZM30.12 145.585C30.12 146.265 29.932 146.805 29.556 147.205C29.172 147.605 28.672 147.805 28.056 147.805C27.648 147.805 27.292 147.713 26.988 147.529C26.684 147.345 26.448 147.089 26.28 146.761C26.104 146.433 26.016 146.057 26.016 145.633L26.016 143.593L25.5 143.593C24.644 143.593 24.216 144.061 24.216 144.997C24.216 145.413 24.292 145.749 24.444 146.005C24.596 146.261 24.808 146.397 25.08 146.413L25.08 147.493C24.56 147.453 24.132 147.213 23.796 146.773C23.452 146.325 23.28 145.733 23.28 144.997C23.28 144.197 23.472 143.585 23.856 143.161C24.24 142.729 24.776 142.513 25.464 142.513L30 142.513L30 143.581L28.8 143.581L28.8 143.605C29.208 143.669 29.532 143.873 29.772 144.217C30.004 144.561 30.12 145.017 30.12 145.585ZM29.208 145.321C29.208 144.793 29.08 144.373 28.824 144.061C28.568 143.749 28.22 143.593 27.78 143.593L26.856 143.593L26.856 145.513C26.856 145.865 26.964 146.153 27.18 146.377C27.388 146.593 27.668 146.701 28.02 146.701C28.388 146.701 28.68 146.581 28.896 146.341C29.104 146.093 29.208 145.753 29.208 145.321ZM30.12 138.198C30.12 138.854 29.9 139.382 29.46 139.782C29.02 140.174 28.424 140.37 27.672 140.37L25.74 140.37C24.98 140.37 24.38 140.174 23.94 139.782C23.5 139.39 23.28 138.862 23.28 138.198C23.28 137.702 23.404 137.294 23.652 136.974C23.9 136.646 24.236 136.45 24.66 136.386L24.66 136.374L23.16 136.398L21.24 136.398L21.24 135.318L30 135.318L30 136.398L28.74 136.398L28.74 136.41C29.172 136.466 29.512 136.654 29.76 136.974C30 137.294 30.12 137.702 30.12 138.198ZM29.184 137.838C29.184 137.39 29.044 137.038 28.764 136.782C28.484 136.526 28.096 136.398 27.6 136.398L25.8 136.398C25.304 136.398 24.916 136.526 24.636 136.782C24.356 137.038 24.216 137.39 24.216 137.838C24.216 138.294 24.336 138.65 24.576 138.906C24.808 139.162 25.196 139.29 25.74 139.29L27.66 139.29C28.196 139.29 28.584 139.162 28.824 138.906C29.064 138.65 29.184 138.294 29.184 137.838ZM30 133.199L29.016 133.199L29.016 130.859L24.384 130.859L24.384 132.959L23.4 132.959L23.4 129.779L29.016 129.779L29.016 127.559L30 127.559L30 133.199ZM22.212 130.439C22.212 130.703 22.144 130.911 22.008 131.063C21.872 131.215 21.688 131.291 21.456 131.291C21.216 131.291 21.028 131.215 20.892 131.063C20.748 130.911 20.676 130.703 20.676 130.439C20.676 130.175 20.748 129.967 20.892 129.815C21.028 129.663 21.216 129.587 21.456 129.587C21.688 129.587 21.872 129.663 22.008 129.815C22.144 129.967 22.212 130.175 22.212 130.439ZM30 125.919L23.4 125.919L23.4 124.839L24.66 124.839L24.66 124.827C24.22 124.771 23.88 124.591 23.64 124.287C23.4 123.983 23.28 123.579 23.28 123.075C23.28 122.411 23.484 121.883 23.892 121.491C24.3 121.099 24.856 120.903 25.56 120.903L30 120.903L30 121.983L25.752 121.983C25.248 121.983 24.864 122.111 24.6 122.367C24.328 122.615 24.192 122.955 24.192 123.387C24.192 123.835 24.332 124.191 24.612 124.455C24.892 124.711 25.288 124.839 25.8 124.839L30 124.839L30 125.919ZM32.16 117.896L31.176 117.896L31.176 116.036C31.176 115.66 31.068 115.364 30.852 115.148C30.644 114.932 30.36 114.824 30 114.824L29.4 114.824L28.32 114.8L28.32 114.836C28.712 114.9 29.016 115.088 29.232 115.4C29.44 115.712 29.544 116.104 29.544 116.576C29.544 117.256 29.328 117.792 28.896 118.184C28.464 118.576 27.872 118.772 27.12 118.772L25.728 118.772C24.976 118.772 24.38 118.576 23.94 118.184C23.5 117.792 23.28 117.256 23.28 116.576C23.28 116.104 23.392 115.712 23.616 115.4C23.84 115.088 24.148 114.9 24.54 114.836L24.54 114.812L23.4 114.812L23.4 113.744L30 113.744C30.664 113.744 31.188 113.952 31.572 114.368C31.964 114.776 32.16 115.336 32.16 116.048L32.16 117.896ZM28.644 116.252C28.644 115.804 28.504 115.452 28.224 115.196C27.944 114.94 27.556 114.812 27.06 114.812L25.8 114.812C25.304 114.812 24.916 114.94 24.636 115.196C24.356 115.452 24.216 115.804 24.216 116.252C24.216 116.708 24.348 117.064 24.612 117.32C24.876 117.568 25.232 117.692 25.68 117.692L27.18 117.692C27.628 117.692 27.984 117.568 28.248 117.32C28.512 117.064 28.644 116.708 28.644 116.252Z" fill="#0DC267"/>
<path d="M266 162.74C266 163.284 265.844 163.72 265.532 164.048C265.212 164.376 264.788 164.54 264.26 164.54L260.384 164.54L260.384 166.436L259.4 166.436L259.4 164.54L257.54 164.54L257.54 163.46L259.4 163.46L259.4 160.76L260.384 160.76L260.384 163.46L264.26 163.46C264.484 163.46 264.668 163.396 264.812 163.268C264.948 163.132 265.016 162.956 265.016 162.74L265.016 160.82L266 160.82L266 162.74ZM266 158.461L259.4 158.461L259.4 157.381L260.66 157.381L260.66 157.357C260.236 157.301 259.9 157.121 259.652 156.817C259.404 156.513 259.28 156.105 259.28 155.593C259.28 154.905 259.488 154.377 259.904 154.009C260.312 153.633 260.896 153.445 261.656 153.445L262.22 153.445L262.22 154.525L261.656 154.525C260.696 154.525 260.216 154.993 260.216 155.929C260.216 156.401 260.352 156.761 260.624 157.009C260.896 157.257 261.288 157.381 261.8 157.381L266 157.381L266 158.461ZM266.12 149.585C266.12 150.265 265.932 150.805 265.556 151.205C265.172 151.605 264.672 151.805 264.056 151.805C263.648 151.805 263.292 151.713 262.988 151.529C262.684 151.345 262.448 151.089 262.28 150.761C262.104 150.433 262.016 150.057 262.016 149.633L262.016 147.593L261.5 147.593C260.644 147.593 260.216 148.061 260.216 148.997C260.216 149.413 260.292 149.749 260.444 150.005C260.596 150.261 260.808 150.397 261.08 150.413L261.08 151.493C260.56 151.453 260.132 151.213 259.796 150.773C259.452 150.325 259.28 149.733 259.28 148.997C259.28 148.197 259.472 147.585 259.856 147.161C260.24 146.729 260.776 146.513 261.464 146.513L266 146.513L266 147.581L264.8 147.581L264.8 147.605C265.208 147.669 265.532 147.873 265.772 148.217C266.004 148.561 266.12 149.017 266.12 149.585ZM265.208 149.321C265.208 148.793 265.08 148.373 264.824 148.061C264.568 147.749 264.22 147.593 263.78 147.593L262.856 147.593L262.856 149.513C262.856 149.865 262.964 150.153 263.18 150.377C263.388 150.593 263.668 150.701 264.02 150.701C264.388 150.701 264.68 150.581 264.896 150.341C265.104 150.093 265.208 149.753 265.208 149.321ZM266 144.394L265.016 144.394L265.016 142.054L260.384 142.054L260.384 144.154L259.4 144.154L259.4 140.974L265.016 140.974L265.016 138.754L266 138.754L266 144.394ZM258.212 141.634C258.212 141.898 258.144 142.106 258.008 142.258C257.872 142.41 257.688 142.486 257.456 142.486C257.216 142.486 257.028 142.41 256.892 142.258C256.748 142.106 256.676 141.898 256.676 141.634C256.676 141.37 256.748 141.162 256.892 141.01C257.028 140.858 257.216 140.782 257.456 140.782C257.688 140.782 257.872 140.858 258.008 141.01C258.144 141.162 258.212 141.37 258.212 141.634ZM266 133.659C266 134.243 265.832 134.711 265.496 135.063C265.152 135.407 264.7 135.579 264.14 135.579L258.224 135.579L258.224 137.859L257.24 137.859L257.24 134.499L264.14 134.499C264.412 134.499 264.628 134.423 264.788 134.271C264.94 134.119 265.016 133.915 265.016 133.659L265.016 131.619L266 131.619L266 133.659ZM266 130.003L265.016 130.003L265.016 127.663L260.384 127.663L260.384 129.763L259.4 129.763L259.4 126.583L265.016 126.583L265.016 124.363L266 124.363L266 130.003ZM258.212 127.243C258.212 127.507 258.144 127.715 258.008 127.867C257.872 128.019 257.688 128.095 257.456 128.095C257.216 128.095 257.028 128.019 256.892 127.867C256.748 127.715 256.676 127.507 256.676 127.243C256.676 126.979 256.748 126.771 256.892 126.619C257.028 126.467 257.216 126.391 257.456 126.391C257.688 126.391 257.872 126.467 258.008 126.619C258.144 126.771 258.212 126.979 258.212 127.243ZM266 122.724L259.4 122.724L259.4 121.644L260.66 121.644L260.66 121.632C260.22 121.576 259.88 121.396 259.64 121.092C259.4 120.788 259.28 120.384 259.28 119.88C259.28 119.216 259.484 118.688 259.892 118.296C260.3 117.904 260.856 117.708 261.56 117.708L266 117.708L266 118.788L261.752 118.788C261.248 118.788 260.864 118.916 260.6 119.172C260.328 119.42 260.192 119.76 260.192 120.192C260.192 120.64 260.332 120.996 260.612 121.26C260.892 121.516 261.288 121.644 261.8 121.644L266 121.644L266 122.724ZM268.16 114.701L267.176 114.701L267.176 112.841C267.176 112.465 267.068 112.169 266.852 111.953C266.644 111.737 266.36 111.629 266 111.629L265.4 111.629L264.32 111.605L264.32 111.641C264.712 111.705 265.016 111.893 265.232 112.205C265.44 112.517 265.544 112.909 265.544 113.381C265.544 114.061 265.328 114.597 264.896 114.989C264.464 115.381 263.872 115.577 263.12 115.577L261.728 115.577C260.976 115.577 260.38 115.381 259.94 114.989C259.5 114.597 259.28 114.061 259.28 113.381C259.28 112.909 259.392 112.517 259.616 112.205C259.84 111.893 260.148 111.705 260.54 111.641L260.54 111.617L259.4 111.617L259.4 110.549L266 110.549C266.664 110.549 267.188 110.757 267.572 111.173C267.964 111.581 268.16 112.141 268.16 112.853L268.16 114.701ZM264.644 113.057C264.644 112.609 264.504 112.257 264.224 112.001C263.944 111.745 263.556 111.617 263.06 111.617L261.8 111.617C261.304 111.617 260.916 111.745 260.636 112.001C260.356 112.257 260.216 112.609 260.216 113.057C260.216 113.513 260.348 113.869 260.612 114.125C260.876 114.373 261.232 114.497 261.68 114.497L263.18 114.497C263.628 114.497 263.984 114.373 264.248 114.125C264.512 113.869 264.644 113.513 264.644 113.057Z" fill="#0DC267"/>
<path d="M126.984 229.12C126.488 229.12 126.08 229 125.76 228.76C125.44 228.512 125.252 228.172 125.196 227.74H125.184V229H124.104V220.24H125.184V222.16L125.16 223.66H125.172C125.236 223.236 125.428 222.9 125.748 222.652C126.076 222.404 126.488 222.28 126.984 222.28C127.648 222.28 128.176 222.5 128.568 222.94C128.96 223.38 129.156 223.98 129.156 224.74V226.672C129.156 227.424 128.96 228.02 128.568 228.46C128.176 228.9 127.648 229.12 126.984 229.12ZM126.624 228.184C127.08 228.184 127.436 228.064 127.692 227.824C127.948 227.584 128.076 227.196 128.076 226.66V224.74C128.076 224.196 127.948 223.808 127.692 223.576C127.436 223.336 127.08 223.216 126.624 223.216C126.184 223.216 125.832 223.356 125.568 223.636C125.312 223.916 125.184 224.304 125.184 224.8V226.6C125.184 227.096 125.312 227.484 125.568 227.764C125.832 228.044 126.184 228.184 126.624 228.184ZM133.795 229.096C133.003 229.096 132.371 228.864 131.899 228.4C131.435 227.936 131.203 227.288 131.203 226.456V224.944C131.203 224.104 131.435 223.456 131.899 223C132.363 222.536 132.995 222.304 133.795 222.304C134.595 222.304 135.227 222.536 135.691 223C136.155 223.456 136.387 224.104 136.387 224.944V226.456C136.387 227.288 136.151 227.936 135.679 228.4C135.215 228.864 134.587 229.096 133.795 229.096ZM133.795 228.136C134.267 228.136 134.635 228.004 134.899 227.74C135.171 227.476 135.307 227.088 135.307 226.576V224.824C135.307 224.312 135.171 223.924 134.899 223.66C134.635 223.396 134.267 223.264 133.795 223.264C133.331 223.264 132.963 223.396 132.691 223.66C132.419 223.924 132.283 224.312 132.283 224.824V226.576C132.283 227.088 132.419 227.476 132.691 227.74C132.963 228.004 133.331 228.136 133.795 228.136ZM141.651 229C141.107 229 140.671 228.844 140.343 228.532C140.015 228.212 139.851 227.788 139.851 227.26V223.384H137.955V222.4H139.851V220.54H140.931V222.4H143.631V223.384H140.931V227.26C140.931 227.484 140.995 227.668 141.123 227.812C141.259 227.948 141.435 228.016 141.651 228.016H143.571V229H141.651ZM148.846 229C148.302 229 147.866 228.844 147.538 228.532C147.21 228.212 147.046 227.788 147.046 227.26V223.384H145.15V222.4H147.046V220.54H148.126V222.4H150.826V223.384H148.126V227.26C148.126 227.484 148.19 227.668 148.318 227.812C148.454 227.948 148.63 228.016 148.846 228.016H150.766V229H148.846ZM155.381 229.096C154.589 229.096 153.957 228.864 153.485 228.4C153.021 227.936 152.789 227.288 152.789 226.456V224.944C152.789 224.104 153.021 223.456 153.485 223C153.949 222.536 154.581 222.304 155.381 222.304C156.181 222.304 156.813 222.536 157.277 223C157.741 223.456 157.973 224.104 157.973 224.944V226.456C157.973 227.288 157.737 227.936 157.265 228.4C156.801 228.864 156.173 229.096 155.381 229.096ZM155.381 228.136C155.853 228.136 156.221 228.004 156.485 227.74C156.757 227.476 156.893 227.088 156.893 226.576V224.824C156.893 224.312 156.757 223.924 156.485 223.66C156.221 223.396 155.853 223.264 155.381 223.264C154.917 223.264 154.549 223.396 154.277 223.66C154.005 223.924 153.869 224.312 153.869 224.824V226.576C153.869 227.088 154.005 227.476 154.277 227.74C154.549 228.004 154.917 228.136 155.381 228.136ZM159.697 229V222.4H160.633V223.276H160.657C160.697 222.98 160.813 222.74 161.005 222.556C161.205 222.372 161.457 222.28 161.761 222.28C162.049 222.28 162.293 222.364 162.493 222.532C162.693 222.7 162.837 222.928 162.925 223.216H162.937C162.993 222.928 163.117 222.7 163.309 222.532C163.509 222.364 163.761 222.28 164.065 222.28C164.489 222.28 164.825 222.44 165.073 222.76C165.329 223.072 165.457 223.48 165.457 223.984V229H164.449V223.972C164.449 223.708 164.385 223.5 164.257 223.348C164.129 223.188 163.953 223.108 163.729 223.108C163.513 223.108 163.341 223.184 163.213 223.336C163.085 223.488 163.021 223.696 163.021 223.96V229H162.133V223.972C162.133 223.708 162.069 223.5 161.941 223.348C161.813 223.188 161.641 223.108 161.425 223.108C161.201 223.108 161.025 223.184 160.897 223.336C160.769 223.488 160.705 223.696 160.705 223.96V229H159.697Z" fill="#0070FF"/>
<circle cx="42" cy="37" r="4" fill="#FF4D3A"/>
<circle cx="144" cy="37" r="4" fill="#FF4D3A"/>
<circle cx="244" cy="38" r="4" fill="#FF4D3A"/>
<circle cx="42" cy="132" r="4" fill="#FF4D3A"/>
<circle cx="42" cy="239" r="4" fill="#FF4D3A"/>
<circle cx="144" cy="239" r="4" fill="#FF4D3A"/>
<circle cx="246" cy="240" r="4" fill="#FF4D3A"/>
<circle cx="244" cy="132" r="4" fill="#FF4D3A"/>
<circle cx="144" cy="132" r="4" fill="#FF4D3A"/>
</svg>
