<svg width="252" height="220" viewBox="0 0 252 220" fill="none" xmlns="http://www.w3.org/2000/svg">
<rect x="26.5" y="10.5" width="199" height="199" stroke="black"/>
<path d="M228 0V220" stroke="#0DC267" stroke-width="2"/>
<path d="M24 0V220" stroke="#0DC267" stroke-width="2"/>
<path d="M236 49L16 49" stroke="#0070FF" stroke-width="2"/>
<path d="M236 212L16 212" stroke="#0070FF" stroke-width="2"/>
<path d="M236 179L16 179" stroke="#0070FF" stroke-width="2"/>
<path d="M119.26 41C118.716 41 118.28 40.844 117.952 40.532C117.624 40.212 117.46 39.788 117.46 39.26V35.384H115.564V34.4H117.46V32.54H118.54V34.4H121.24V35.384H118.54V39.26C118.54 39.484 118.604 39.668 118.732 39.812C118.868 39.948 119.044 40.016 119.26 40.016H121.18V41H119.26ZM125.795 41.096C125.003 41.096 124.371 40.864 123.899 40.4C123.435 39.936 123.203 39.288 123.203 38.456V36.944C123.203 36.104 123.435 35.456 123.899 35C124.363 34.536 124.995 34.304 125.795 34.304C126.595 34.304 127.227 34.536 127.691 35C128.155 35.456 128.387 36.104 128.387 36.944V38.456C128.387 39.288 128.151 39.936 127.679 40.4C127.215 40.864 126.587 41.096 125.795 41.096ZM125.795 40.136C126.267 40.136 126.635 40.004 126.899 39.74C127.171 39.476 127.307 39.088 127.307 38.576V36.824C127.307 36.312 127.171 35.924 126.899 35.66C126.635 35.396 126.267 35.264 125.795 35.264C125.331 35.264 124.963 35.396 124.691 35.66C124.419 35.924 124.283 36.312 124.283 36.824V38.576C124.283 39.088 124.419 39.476 124.691 39.74C124.963 40.004 125.331 40.136 125.795 40.136ZM130.495 43.16V34.4H131.575V35.66H131.587C131.643 35.228 131.831 34.892 132.151 34.652C132.471 34.404 132.879 34.28 133.375 34.28C134.039 34.28 134.567 34.5 134.959 34.94C135.351 35.372 135.547 35.968 135.547 36.728V38.66C135.547 39.42 135.351 40.02 134.959 40.46C134.567 40.9 134.039 41.12 133.375 41.12C132.879 41.12 132.471 40.996 132.151 40.748C131.831 40.5 131.643 40.164 131.587 39.74H131.551L131.575 41.24V43.16H130.495ZM133.015 40.184C133.471 40.184 133.827 40.064 134.083 39.824C134.339 39.584 134.467 39.196 134.467 38.66V36.74C134.467 36.196 134.339 35.808 134.083 35.576C133.827 35.336 133.471 35.216 133.015 35.216C132.575 35.216 132.223 35.356 131.959 35.636C131.703 35.916 131.575 36.304 131.575 36.8V38.6C131.575 39.096 131.703 39.484 131.959 39.764C132.223 40.044 132.575 40.184 133.015 40.184Z" fill="#0070FF"/>
<path d="M12 130.44C12 131.024 11.832 131.492 11.496 131.844C11.152 132.188 10.7 132.36 10.14 132.36L4.224 132.36L4.224 134.64L3.24 134.64L3.24 131.28L10.14 131.28C10.412 131.28 10.628 131.204 10.788 131.052C10.94 130.9 11.016 130.696 11.016 130.44L11.016 128.4L12 128.4L12 130.44ZM12.12 124.205C12.12 124.981 11.888 125.609 11.424 126.089C10.952 126.561 10.304 126.797 9.48 126.797L7.92 126.797C7.096 126.797 6.452 126.561 5.988 126.089C5.516 125.609 5.28 124.981 5.28 124.205C5.28 123.685 5.384 123.233 5.592 122.849C5.8 122.457 6.092 122.153 6.468 121.937C6.844 121.721 7.288 121.613 7.8 121.613L8.976 121.613L8.976 125.741L9.6 125.741C10.088 125.741 10.476 125.601 10.764 125.321C11.044 125.041 11.184 124.669 11.184 124.205C11.184 123.805 11.108 123.477 10.956 123.221C10.796 122.957 10.584 122.797 10.32 122.741L10.32 121.661C10.872 121.733 11.312 122.001 11.64 122.465C11.96 122.929 12.12 123.509 12.12 124.205ZM8.136 125.741L8.136 122.669L7.8 122.669C7.28 122.669 6.88 122.805 6.6 123.077C6.312 123.341 6.168 123.717 6.168 124.205C6.168 124.693 6.312 125.073 6.6 125.345C6.88 125.609 7.28 125.741 7.8 125.741L8.136 125.741ZM12.12 117.585C12.12 118.265 11.932 118.805 11.556 119.205C11.172 119.605 10.672 119.805 10.056 119.805C9.648 119.805 9.292 119.713 8.988 119.529C8.684 119.345 8.448 119.089 8.28 118.761C8.104 118.433 8.016 118.057 8.016 117.633L8.016 115.593L7.5 115.593C6.644 115.593 6.216 116.061 6.216 116.997C6.216 117.413 6.292 117.749 6.444 118.005C6.596 118.261 6.808 118.397 7.08 118.413L7.08 119.493C6.56 119.453 6.132 119.213 5.796 118.773C5.452 118.325 5.28 117.733 5.28 116.997C5.28 116.197 5.472 115.585 5.856 115.161C6.24 114.729 6.776 114.513 7.464 114.513L12 114.513L12 115.581L10.8 115.581L10.8 115.605C11.208 115.669 11.532 115.873 11.772 116.217C12.004 116.561 12.12 117.017 12.12 117.585ZM11.208 117.321C11.208 116.793 11.08 116.373 10.824 116.061C10.568 115.749 10.22 115.593 9.78 115.593L8.856 115.593L8.856 117.513C8.856 117.865 8.964 118.153 9.18 118.377C9.388 118.593 9.668 118.701 10.02 118.701C10.388 118.701 10.68 118.581 10.896 118.341C11.104 118.093 11.208 117.753 11.208 117.321ZM12.12 110.198C12.12 110.854 11.9 111.382 11.46 111.782C11.02 112.174 10.424 112.37 9.672 112.37L7.74 112.37C6.98 112.37 6.38 112.174 5.94 111.782C5.5 111.39 5.28 110.862 5.28 110.198C5.28 109.702 5.404 109.294 5.652 108.974C5.9 108.646 6.236 108.45 6.66 108.386L6.66 108.374L5.16 108.398L3.24 108.398L3.24 107.318L12 107.318L12 108.398L10.74 108.398L10.74 108.41C11.172 108.466 11.512 108.654 11.76 108.974C12 109.294 12.12 109.702 12.12 110.198ZM11.184 109.838C11.184 109.39 11.044 109.038 10.764 108.782C10.484 108.526 10.096 108.398 9.6 108.398L7.8 108.398C7.304 108.398 6.916 108.526 6.636 108.782C6.356 109.038 6.216 109.39 6.216 109.838C6.216 110.294 6.336 110.65 6.576 110.906C6.808 111.162 7.196 111.29 7.74 111.29L9.66 111.29C10.196 111.29 10.584 111.162 10.824 110.906C11.064 110.65 11.184 110.294 11.184 109.838ZM12 105.199L11.016 105.199L11.016 102.859L6.384 102.859L6.384 104.959L5.4 104.959L5.4 101.779L11.016 101.779L11.016 99.5587L12 99.5587L12 105.199ZM4.212 102.439C4.212 102.703 4.144 102.911 4.008 103.063C3.872 103.215 3.688 103.291 3.456 103.291C3.216 103.291 3.028 103.215 2.892 103.063C2.748 102.911 2.676 102.703 2.676 102.439C2.676 102.175 2.748 101.967 2.892 101.815C3.028 101.663 3.216 101.587 3.456 101.587C3.688 101.587 3.872 101.663 4.008 101.815C4.144 101.967 4.212 102.175 4.212 102.439ZM12 97.9194L5.4 97.9194L5.4 96.8394L6.66 96.8394L6.66 96.8274C6.22 96.7714 5.88 96.5914 5.64 96.2874C5.4 95.9834 5.28 95.5794 5.28 95.0754C5.28 94.4114 5.484 93.8834 5.892 93.4914C6.3 93.0994 6.856 92.9034 7.56 92.9034L12 92.9034L12 93.9834L7.752 93.9834C7.248 93.9834 6.864 94.1114 6.6 94.3674C6.328 94.6154 6.192 94.9554 6.192 95.3874C6.192 95.8354 6.332 96.1914 6.612 96.4554C6.892 96.7114 7.288 96.8394 7.8 96.8394L12 96.8394L12 97.9194ZM14.16 89.8961L13.176 89.8961L13.176 88.0361C13.176 87.6601 13.068 87.3641 12.852 87.1481C12.644 86.9321 12.36 86.8241 12 86.8241L11.4 86.8241L10.32 86.8001L10.32 86.8361C10.712 86.9001 11.016 87.0881 11.232 87.4001C11.44 87.7121 11.544 88.1041 11.544 88.5761C11.544 89.2561 11.328 89.7921 10.896 90.1841C10.464 90.5761 9.872 90.7721 9.12 90.7721L7.728 90.7721C6.976 90.7721 6.38 90.5761 5.94 90.1841C5.5 89.7921 5.28 89.2561 5.28 88.5761C5.28 88.1041 5.392 87.7121 5.616 87.4001C5.84 87.0881 6.148 86.9001 6.54 86.8361L6.54 86.8121L5.4 86.8121L5.4 85.7441L12 85.7441C12.664 85.7441 13.188 85.9521 13.572 86.3681C13.964 86.7761 14.16 87.3361 14.16 88.0481L14.16 89.8961ZM10.644 88.2521C10.644 87.8041 10.504 87.4521 10.224 87.1961C9.944 86.9401 9.556 86.8121 9.06 86.8121L7.8 86.8121C7.304 86.8121 6.916 86.9401 6.636 87.1961C6.356 87.4521 6.216 87.8041 6.216 88.2521C6.216 88.7081 6.348 89.0641 6.612 89.3201C6.876 89.5681 7.232 89.6921 7.68 89.6921L9.18 89.6921C9.628 89.6921 9.984 89.5681 10.248 89.3201C10.512 89.0641 10.644 88.7081 10.644 88.2521Z" fill="#0DC267"/>
<path d="M248 134.74C248 135.284 247.844 135.72 247.532 136.048C247.212 136.376 246.788 136.54 246.26 136.54L242.384 136.54L242.384 138.436L241.4 138.436L241.4 136.54L239.54 136.54L239.54 135.46L241.4 135.46L241.4 132.76L242.384 132.76L242.384 135.46L246.26 135.46C246.484 135.46 246.668 135.396 246.812 135.268C246.948 135.132 247.016 134.956 247.016 134.74L247.016 132.82L248 132.82L248 134.74ZM248 130.461L241.4 130.461L241.4 129.381L242.66 129.381L242.66 129.357C242.236 129.301 241.9 129.121 241.652 128.817C241.404 128.513 241.28 128.105 241.28 127.593C241.28 126.905 241.488 126.377 241.904 126.009C242.312 125.633 242.896 125.445 243.656 125.445L244.22 125.445L244.22 126.525L243.656 126.525C242.696 126.525 242.216 126.993 242.216 127.929C242.216 128.401 242.352 128.761 242.624 129.009C242.896 129.257 243.288 129.381 243.8 129.381L248 129.381L248 130.461ZM248.12 121.585C248.12 122.265 247.932 122.805 247.556 123.205C247.172 123.605 246.672 123.805 246.056 123.805C245.648 123.805 245.292 123.713 244.988 123.529C244.684 123.345 244.448 123.089 244.28 122.761C244.104 122.433 244.016 122.057 244.016 121.633L244.016 119.593L243.5 119.593C242.644 119.593 242.216 120.061 242.216 120.997C242.216 121.413 242.292 121.749 242.444 122.005C242.596 122.261 242.808 122.397 243.08 122.413L243.08 123.493C242.56 123.453 242.132 123.213 241.796 122.773C241.452 122.325 241.28 121.733 241.28 120.997C241.28 120.197 241.472 119.585 241.856 119.161C242.24 118.729 242.776 118.513 243.464 118.513L248 118.513L248 119.581L246.8 119.581L246.8 119.605C247.208 119.669 247.532 119.873 247.772 120.217C248.004 120.561 248.12 121.017 248.12 121.585ZM247.208 121.321C247.208 120.793 247.08 120.373 246.824 120.061C246.568 119.749 246.22 119.593 245.78 119.593L244.856 119.593L244.856 121.513C244.856 121.865 244.964 122.153 245.18 122.377C245.388 122.593 245.668 122.701 246.02 122.701C246.388 122.701 246.68 122.581 246.896 122.341C247.104 122.093 247.208 121.753 247.208 121.321ZM248 116.394L247.016 116.394L247.016 114.054L242.384 114.054L242.384 116.154L241.4 116.154L241.4 112.974L247.016 112.974L247.016 110.754L248 110.754L248 116.394ZM240.212 113.634C240.212 113.898 240.144 114.106 240.008 114.258C239.872 114.41 239.688 114.486 239.456 114.486C239.216 114.486 239.028 114.41 238.892 114.258C238.748 114.106 238.676 113.898 238.676 113.634C238.676 113.37 238.748 113.162 238.892 113.01C239.028 112.858 239.216 112.782 239.456 112.782C239.688 112.782 239.872 112.858 240.008 113.01C240.144 113.162 240.212 113.37 240.212 113.634ZM248 105.659C248 106.243 247.832 106.711 247.496 107.063C247.152 107.407 246.7 107.579 246.14 107.579L240.224 107.579L240.224 109.859L239.24 109.859L239.24 106.499L246.14 106.499C246.412 106.499 246.628 106.423 246.788 106.271C246.94 106.119 247.016 105.915 247.016 105.659L247.016 103.619L248 103.619L248 105.659ZM248 102.003L247.016 102.003L247.016 99.6634L242.384 99.6634L242.384 101.763L241.4 101.763L241.4 98.5834L247.016 98.5834L247.016 96.3634L248 96.3634L248 102.003ZM240.212 99.2434C240.212 99.5074 240.144 99.7154 240.008 99.8674C239.872 100.019 239.688 100.095 239.456 100.095C239.216 100.095 239.028 100.019 238.892 99.8674C238.748 99.7154 238.676 99.5074 238.676 99.2434C238.676 98.9794 238.748 98.7714 238.892 98.6194C239.028 98.4674 239.216 98.3914 239.456 98.3914C239.688 98.3914 239.872 98.4674 240.008 98.6194C240.144 98.7714 240.212 98.9794 240.212 99.2434ZM248 94.7241L241.4 94.7241L241.4 93.6441L242.66 93.6441L242.66 93.6321C242.22 93.5761 241.88 93.3961 241.64 93.0921C241.4 92.7881 241.28 92.3841 241.28 91.8801C241.28 91.2161 241.484 90.6881 241.892 90.2961C242.3 89.9041 242.856 89.7081 243.56 89.7081L248 89.7081L248 90.7881L243.752 90.7881C243.248 90.7881 242.864 90.9161 242.6 91.1721C242.328 91.4201 242.192 91.7601 242.192 92.1921C242.192 92.6401 242.332 92.9961 242.612 93.2601C242.892 93.5161 243.288 93.6441 243.8 93.6441L248 93.6441L248 94.7241ZM250.16 86.7008L249.176 86.7008L249.176 84.8408C249.176 84.4648 249.068 84.1688 248.852 83.9528C248.644 83.7368 248.36 83.6288 248 83.6288L247.4 83.6288L246.32 83.6048L246.32 83.6408C246.712 83.7048 247.016 83.8928 247.232 84.2048C247.44 84.5168 247.544 84.9088 247.544 85.3808C247.544 86.0608 247.328 86.5968 246.896 86.9888C246.464 87.3808 245.872 87.5768 245.12 87.5768L243.728 87.5768C242.976 87.5768 242.38 87.3808 241.94 86.9888C241.5 86.5968 241.28 86.0608 241.28 85.3808C241.28 84.9088 241.392 84.5168 241.616 84.2048C241.84 83.8928 242.148 83.7048 242.54 83.6408L242.54 83.6168L241.4 83.6168L241.4 82.5488L248 82.5488C248.664 82.5488 249.188 82.7568 249.572 83.1728C249.964 83.5808 250.16 84.1408 250.16 84.8528L250.16 86.7008ZM246.644 85.0568C246.644 84.6088 246.504 84.2568 246.224 84.0008C245.944 83.7448 245.556 83.6168 245.06 83.6168L243.8 83.6168C243.304 83.6168 242.916 83.7448 242.636 84.0008C242.356 84.2568 242.216 84.6088 242.216 85.0568C242.216 85.5128 242.348 85.8688 242.612 86.1248C242.876 86.3728 243.232 86.4968 243.68 86.4968L245.18 86.4968C245.628 86.4968 245.984 86.3728 246.248 86.1248C246.512 85.8688 246.644 85.5128 246.644 85.0568Z" fill="#0DC267"/>
<path d="M98.984 204.12C98.488 204.12 98.08 204 97.76 203.76C97.44 203.512 97.252 203.172 97.196 202.74H97.184V204H96.104V195.24H97.184V197.16L97.16 198.66H97.172C97.236 198.236 97.428 197.9 97.748 197.652C98.076 197.404 98.488 197.28 98.984 197.28C99.648 197.28 100.176 197.5 100.568 197.94C100.96 198.38 101.156 198.98 101.156 199.74V201.672C101.156 202.424 100.96 203.02 100.568 203.46C100.176 203.9 99.648 204.12 98.984 204.12ZM98.624 203.184C99.08 203.184 99.436 203.064 99.692 202.824C99.948 202.584 100.076 202.196 100.076 201.66V199.74C100.076 199.196 99.948 198.808 99.692 198.576C99.436 198.336 99.08 198.216 98.624 198.216C98.184 198.216 97.832 198.356 97.568 198.636C97.312 198.916 97.184 199.304 97.184 199.8V201.6C97.184 202.096 97.312 202.484 97.568 202.764C97.832 203.044 98.184 203.184 98.624 203.184ZM105.795 204.096C105.003 204.096 104.371 203.864 103.899 203.4C103.435 202.936 103.203 202.288 103.203 201.456V199.944C103.203 199.104 103.435 198.456 103.899 198C104.363 197.536 104.995 197.304 105.795 197.304C106.595 197.304 107.227 197.536 107.691 198C108.155 198.456 108.387 199.104 108.387 199.944V201.456C108.387 202.288 108.151 202.936 107.679 203.4C107.215 203.864 106.587 204.096 105.795 204.096ZM105.795 203.136C106.267 203.136 106.635 203.004 106.899 202.74C107.171 202.476 107.307 202.088 107.307 201.576V199.824C107.307 199.312 107.171 198.924 106.899 198.66C106.635 198.396 106.267 198.264 105.795 198.264C105.331 198.264 104.963 198.396 104.691 198.66C104.419 198.924 104.283 199.312 104.283 199.824V201.576C104.283 202.088 104.419 202.476 104.691 202.74C104.963 203.004 105.331 203.136 105.795 203.136ZM113.651 204C113.107 204 112.671 203.844 112.343 203.532C112.015 203.212 111.851 202.788 111.851 202.26V198.384H109.955V197.4H111.851V195.54H112.931V197.4H115.631V198.384H112.931V202.26C112.931 202.484 112.995 202.668 113.123 202.812C113.259 202.948 113.435 203.016 113.651 203.016H115.571V204H113.651ZM120.846 204C120.302 204 119.866 203.844 119.538 203.532C119.21 203.212 119.046 202.788 119.046 202.26V198.384H117.15V197.4H119.046V195.54H120.126V197.4H122.826V198.384H120.126V202.26C120.126 202.484 120.19 202.668 120.318 202.812C120.454 202.948 120.63 203.016 120.846 203.016H122.766V204H120.846ZM127.381 204.096C126.589 204.096 125.957 203.864 125.485 203.4C125.021 202.936 124.789 202.288 124.789 201.456V199.944C124.789 199.104 125.021 198.456 125.485 198C125.949 197.536 126.581 197.304 127.381 197.304C128.181 197.304 128.813 197.536 129.277 198C129.741 198.456 129.973 199.104 129.973 199.944V201.456C129.973 202.288 129.737 202.936 129.265 203.4C128.801 203.864 128.173 204.096 127.381 204.096ZM127.381 203.136C127.853 203.136 128.221 203.004 128.485 202.74C128.757 202.476 128.893 202.088 128.893 201.576V199.824C128.893 199.312 128.757 198.924 128.485 198.66C128.221 198.396 127.853 198.264 127.381 198.264C126.917 198.264 126.549 198.396 126.277 198.66C126.005 198.924 125.869 199.312 125.869 199.824V201.576C125.869 202.088 126.005 202.476 126.277 202.74C126.549 203.004 126.917 203.136 127.381 203.136ZM131.697 204V197.4H132.633V198.276H132.657C132.697 197.98 132.813 197.74 133.005 197.556C133.205 197.372 133.457 197.28 133.761 197.28C134.049 197.28 134.293 197.364 134.493 197.532C134.693 197.7 134.837 197.928 134.925 198.216H134.937C134.993 197.928 135.117 197.7 135.309 197.532C135.509 197.364 135.761 197.28 136.065 197.28C136.489 197.28 136.825 197.44 137.073 197.76C137.329 198.072 137.457 198.48 137.457 198.984V204H136.449V198.972C136.449 198.708 136.385 198.5 136.257 198.348C136.129 198.188 135.953 198.108 135.729 198.108C135.513 198.108 135.341 198.184 135.213 198.336C135.085 198.488 135.021 198.696 135.021 198.96V204H134.133V198.972C134.133 198.708 134.069 198.5 133.941 198.348C133.813 198.188 133.641 198.108 133.425 198.108C133.201 198.108 133.025 198.184 132.897 198.336C132.769 198.488 132.705 198.696 132.705 198.96V204H131.697Z" fill="#0070FF"/>
<path d="M75.144 171.12C74.36 171.12 73.76 170.896 73.344 170.448C72.936 169.992 72.792 169.376 72.912 168.6L73.188 166.8C73.308 166 73.636 165.38 74.172 164.94C74.716 164.5 75.404 164.28 76.236 164.28C76.996 164.28 77.576 164.488 77.976 164.904C78.384 165.32 78.544 165.872 78.456 166.56H77.376C77.416 166.136 77.32 165.812 77.088 165.588C76.864 165.356 76.528 165.24 76.08 165.24C75.608 165.24 75.208 165.376 74.88 165.648C74.56 165.912 74.36 166.292 74.28 166.788L73.992 168.6C73.912 169.096 73.992 169.48 74.232 169.752C74.472 170.024 74.828 170.16 75.3 170.16C75.748 170.16 76.12 170.044 76.416 169.812C76.72 169.58 76.92 169.256 77.016 168.84H78.096C77.952 169.568 77.62 170.132 77.1 170.532C76.588 170.924 75.936 171.12 75.144 171.12ZM82.2313 171.12C81.4713 171.12 80.8993 170.896 80.5153 170.448C80.1393 169.992 80.0113 169.376 80.1313 168.6L80.7913 164.4H81.8713L81.2113 168.6C81.1313 169.096 81.1953 169.484 81.4033 169.764C81.6193 170.036 81.9473 170.172 82.3873 170.172C82.8353 170.172 83.2113 170.036 83.5153 169.764C83.8193 169.484 84.0113 169.096 84.0913 168.6L84.7513 164.4H85.8313L85.1713 168.6C85.0433 169.4 84.7233 170.02 84.2113 170.46C83.6993 170.9 83.0393 171.12 82.2313 171.12ZM89.1866 171.096C88.4586 171.096 87.9186 170.932 87.5666 170.604C87.2146 170.268 87.0826 169.796 87.1706 169.188H88.2506C88.2026 169.492 88.2706 169.732 88.4546 169.908C88.6466 170.076 88.9386 170.16 89.3306 170.16H89.8586C90.2586 170.16 90.5826 170.072 90.8306 169.896C91.0786 169.72 91.2266 169.472 91.2746 169.152C91.3706 168.584 91.1626 168.264 90.6506 168.192L88.8746 167.928C88.4346 167.864 88.1146 167.68 87.9146 167.376C87.7146 167.064 87.6546 166.656 87.7346 166.152C87.8226 165.552 88.0826 165.096 88.5146 164.784C88.9546 164.464 89.5346 164.304 90.2546 164.304H90.7826C91.4306 164.304 91.9306 164.46 92.2826 164.772C92.6346 165.076 92.7866 165.492 92.7386 166.02H91.6466C91.6626 165.788 91.5786 165.596 91.3946 165.444C91.2186 165.292 90.9666 165.216 90.6386 165.216H90.1106C89.7426 165.216 89.4426 165.3 89.2106 165.468C88.9786 165.636 88.8386 165.864 88.7906 166.152C88.7186 166.624 88.8906 166.888 89.3066 166.944L90.9626 167.184C92.0666 167.344 92.5226 168 92.3306 169.152C92.1226 170.448 91.2506 171.096 89.7146 171.096H89.1866ZM97.3179 171C96.7739 171 96.3619 170.844 96.0819 170.532C95.8099 170.212 95.7139 169.788 95.7939 169.26L96.4059 165.384H94.5099L94.6659 164.4H96.5619L96.8619 162.54H97.9419L97.6419 164.4H100.342L100.186 165.384H97.4859L96.8739 169.26C96.8419 169.484 96.8779 169.668 96.9819 169.812C97.0939 169.948 97.2579 170.016 97.4739 170.016H99.3939L99.2379 171H97.3179ZM103.829 171.12C103.053 171.12 102.473 170.896 102.089 170.448C101.705 169.992 101.573 169.376 101.693 168.6L101.969 166.8C102.089 166 102.405 165.38 102.917 164.94C103.437 164.5 104.105 164.28 104.921 164.28C105.697 164.28 106.277 164.508 106.661 164.964C107.053 165.412 107.189 166.02 107.069 166.788L106.781 168.6C106.653 169.4 106.329 170.02 105.809 170.46C105.297 170.9 104.637 171.12 103.829 171.12ZM103.985 170.16C104.457 170.16 104.841 170.028 105.137 169.764C105.433 169.5 105.621 169.112 105.701 168.6L105.977 166.8C106.057 166.288 105.993 165.9 105.785 165.636C105.577 165.372 105.237 165.24 104.765 165.24C104.301 165.24 103.917 165.372 103.613 165.636C103.317 165.9 103.129 166.288 103.049 166.8L102.773 168.6C102.693 169.112 102.757 169.5 102.965 169.764C103.181 170.028 103.521 170.16 103.985 170.16ZM108.169 171L109.213 164.4H110.149L110.017 165.276H110.041C110.121 164.98 110.273 164.74 110.497 164.556C110.729 164.372 110.997 164.28 111.301 164.28C111.589 164.28 111.817 164.364 111.985 164.532C112.161 164.7 112.269 164.928 112.309 165.216C112.405 164.936 112.569 164.712 112.801 164.544C113.033 164.368 113.301 164.28 113.605 164.28C114.029 164.28 114.341 164.44 114.541 164.76C114.749 165.072 114.809 165.48 114.721 165.984L113.929 171H112.921L113.713 165.972C113.753 165.708 113.721 165.5 113.617 165.348C113.521 165.188 113.361 165.108 113.137 165.108C112.921 165.108 112.737 165.184 112.585 165.336C112.433 165.488 112.337 165.696 112.297 165.96L111.493 171H110.605L111.397 165.972C111.437 165.708 111.405 165.5 111.301 165.348C111.205 165.188 111.049 165.108 110.833 165.108C110.609 165.108 110.421 165.184 110.269 165.336C110.117 165.488 110.021 165.696 109.981 165.96L109.177 171H108.169ZM115.244 171L118.916 162.24H120.368L121.244 171H120.188L119.984 168.672H117.332L116.384 171H115.244ZM117.692 167.76H119.9L119.648 165.06C119.6 164.548 119.568 164.12 119.552 163.776C119.536 163.432 119.528 163.208 119.528 163.104C119.496 163.208 119.416 163.432 119.288 163.776C119.168 164.12 119.004 164.544 118.796 165.048L117.692 167.76ZM126.399 171C125.815 171 125.375 170.832 125.079 170.496C124.791 170.152 124.691 169.7 124.779 169.14L125.715 163.224H123.435L123.591 162.24H126.951L125.859 169.14C125.811 169.412 125.851 169.628 125.979 169.788C126.107 169.94 126.299 170.016 126.555 170.016H128.595L128.439 171H126.399ZM129.995 171L130.151 170.016H132.491L133.223 165.384H131.183L131.339 164.4H134.459L133.571 170.016H135.791L135.635 171H129.995ZM134.051 163.212C133.787 163.212 133.591 163.144 133.463 163.008C133.335 162.872 133.287 162.688 133.319 162.456C133.359 162.216 133.463 162.028 133.631 161.892C133.807 161.748 134.027 161.676 134.291 161.676C134.555 161.676 134.751 161.748 134.879 161.892C135.015 162.028 135.063 162.216 135.023 162.456C134.991 162.688 134.887 162.872 134.711 163.008C134.535 163.144 134.315 163.212 134.051 163.212ZM137.814 173.16L137.97 172.176H139.83C140.206 172.176 140.518 172.068 140.766 171.852C141.022 171.644 141.178 171.36 141.234 171L141.33 170.4L141.522 169.32H141.486C141.358 169.712 141.122 170.016 140.778 170.232C140.434 170.44 140.026 170.544 139.554 170.544C138.874 170.544 138.37 170.328 138.042 169.896C137.722 169.464 137.622 168.872 137.742 168.12L137.958 166.728C138.07 165.976 138.358 165.38 138.822 164.94C139.294 164.5 139.87 164.28 140.55 164.28C141.022 164.28 141.394 164.392 141.666 164.616C141.938 164.832 142.078 165.14 142.086 165.54H142.11L142.29 164.4H143.358L142.314 171C142.21 171.664 141.918 172.188 141.438 172.572C140.966 172.964 140.374 173.16 139.662 173.16H137.814ZM140.022 169.644C140.47 169.644 140.842 169.504 141.138 169.224C141.442 168.944 141.634 168.556 141.714 168.06L141.906 166.8C141.986 166.304 141.918 165.916 141.702 165.636C141.494 165.356 141.166 165.216 140.718 165.216C140.262 165.216 139.886 165.348 139.59 165.612C139.302 165.876 139.122 166.232 139.05 166.68L138.81 168.18C138.738 168.628 138.806 168.984 139.014 169.248C139.23 169.512 139.566 169.644 140.022 169.644ZM144.529 171L145.573 164.4H146.653L146.449 165.66H146.473C146.593 165.22 146.825 164.88 147.169 164.64C147.513 164.4 147.937 164.28 148.441 164.28C149.105 164.28 149.601 164.484 149.929 164.892C150.257 165.3 150.365 165.856 150.253 166.56L149.545 171H148.465L149.137 166.752C149.217 166.248 149.153 165.864 148.945 165.6C148.737 165.328 148.417 165.192 147.985 165.192C147.537 165.192 147.161 165.332 146.857 165.612C146.553 165.892 146.357 166.288 146.269 166.8L145.609 171H144.529ZM151.34 171L152.384 164.4H153.32L153.188 165.276H153.212C153.292 164.98 153.444 164.74 153.668 164.556C153.9 164.372 154.168 164.28 154.472 164.28C154.76 164.28 154.988 164.364 155.156 164.532C155.332 164.7 155.44 164.928 155.48 165.216C155.576 164.936 155.74 164.712 155.972 164.544C156.204 164.368 156.472 164.28 156.776 164.28C157.2 164.28 157.512 164.44 157.712 164.76C157.92 165.072 157.98 165.48 157.892 165.984L157.1 171H156.092L156.884 165.972C156.924 165.708 156.892 165.5 156.788 165.348C156.692 165.188 156.532 165.108 156.308 165.108C156.092 165.108 155.908 165.184 155.756 165.336C155.604 165.488 155.508 165.696 155.468 165.96L154.664 171H153.776L154.568 165.972C154.608 165.708 154.576 165.5 154.472 165.348C154.376 165.188 154.22 165.108 154.004 165.108C153.78 165.108 153.592 165.184 153.44 165.336C153.288 165.488 153.192 165.696 153.152 165.96L152.348 171H151.34ZM161.392 171.12C160.616 171.12 160.028 170.888 159.628 170.424C159.228 169.952 159.092 169.304 159.22 168.48L159.472 166.92C159.608 166.08 159.936 165.432 160.456 164.976C160.984 164.512 161.66 164.28 162.484 164.28C162.988 164.28 163.42 164.372 163.78 164.556C164.14 164.74 164.404 164.992 164.572 165.312C164.748 165.632 164.804 166 164.74 166.416C164.66 166.936 164.448 167.332 164.104 167.604C163.768 167.868 163.328 168 162.784 168H160.36L160.264 168.6C160.184 169.088 160.26 169.476 160.492 169.764C160.732 170.044 161.084 170.184 161.548 170.184C161.948 170.184 162.288 170.108 162.568 169.956C162.856 169.796 163.048 169.584 163.144 169.32H164.224C164.064 169.888 163.736 170.332 163.24 170.652C162.744 170.964 162.128 171.12 161.392 171.12ZM160.492 167.136H162.904C163.096 167.136 163.256 167.08 163.384 166.968C163.52 166.856 163.608 166.672 163.648 166.416C163.712 166.04 163.62 165.74 163.372 165.516C163.132 165.284 162.788 165.168 162.34 165.168C161.852 165.168 161.448 165.312 161.128 165.6C160.816 165.88 160.62 166.28 160.54 166.8L160.492 167.136ZM166.115 171L167.159 164.4H168.239L168.035 165.66H168.059C168.179 165.22 168.411 164.88 168.755 164.64C169.099 164.4 169.523 164.28 170.027 164.28C170.691 164.28 171.187 164.484 171.515 164.892C171.843 165.3 171.951 165.856 171.839 166.56L171.131 171H170.051L170.723 166.752C170.803 166.248 170.739 165.864 170.531 165.6C170.323 165.328 170.003 165.192 169.571 165.192C169.123 165.192 168.747 165.332 168.443 165.612C168.139 165.892 167.943 166.288 167.855 166.8L167.195 171H166.115ZM176.466 171C175.922 171 175.51 170.844 175.23 170.532C174.958 170.212 174.862 169.788 174.942 169.26L175.554 165.384H173.658L173.814 164.4H175.71L176.01 162.54H177.09L176.79 164.4H179.49L179.334 165.384H176.634L176.022 169.26C175.99 169.484 176.026 169.668 176.13 169.812C176.242 169.948 176.406 170.016 176.622 170.016H178.542L178.386 171H176.466Z" fill="#0070FF"/>
</svg>
