<svg width="200" height="232" viewBox="0 0 200 232" fill="none" xmlns="http://www.w3.org/2000/svg">
<rect x="0.5" y="32.5" width="199" height="199" stroke="black"/>
<rect x="63.5" y="103.5" width="103" height="38" stroke="black"/>
<path d="M60 100L67 107" stroke="black"/>
<path d="M67 100L60 107" stroke="black"/>
<path d="M63.6 77L65.94 73.604L63.744 70.4H65.016L66.324 72.44C66.38 72.528 66.432 72.624 66.48 72.728C66.536 72.832 66.58 72.916 66.612 72.98C66.636 72.916 66.672 72.832 66.72 72.728C66.776 72.624 66.832 72.528 66.888 72.44L68.196 70.4H69.468L67.272 73.616L69.6 77H68.328L66.912 74.84C66.856 74.752 66.8 74.652 66.744 74.54C66.696 74.42 66.652 74.324 66.612 74.252C66.58 74.324 66.532 74.42 66.468 74.54C66.412 74.652 66.352 74.752 66.288 74.84L64.872 77H63.6ZM73.7953 72.056C73.4673 72.056 73.2193 71.976 73.0513 71.816C72.8833 71.656 72.7993 71.44 72.7993 71.168C72.7993 70.896 72.8833 70.68 73.0513 70.52C73.2193 70.36 73.4673 70.28 73.7953 70.28C74.1233 70.28 74.3713 70.36 74.5393 70.52C74.7073 70.68 74.7913 70.896 74.7913 71.168C74.7913 71.44 74.7073 71.656 74.5393 71.816C74.3713 71.976 74.1233 72.056 73.7953 72.056ZM73.7953 77.12C73.4673 77.12 73.2193 77.04 73.0513 76.88C72.8833 76.72 72.7993 76.504 72.7993 76.232C72.7993 75.96 72.8833 75.744 73.0513 75.584C73.2193 75.424 73.4673 75.344 73.7953 75.344C74.1233 75.344 74.3713 75.424 74.5393 75.584C74.7073 75.744 74.7913 75.96 74.7913 76.232C74.7913 76.504 74.7073 76.72 74.5393 76.88C74.3713 77.04 74.1233 77.12 73.7953 77.12ZM81.0026 77.12C80.4426 77.12 79.9466 77.004 79.5146 76.772C79.0906 76.532 78.7586 76.204 78.5186 75.788C78.2786 75.364 78.1586 74.876 78.1586 74.324C78.1586 73.94 78.2306 73.548 78.3746 73.148C78.5186 72.74 78.7146 72.316 78.9626 71.876L80.9906 68.24H82.1906L80.0306 71.996L80.0666 72.02C80.1706 71.884 80.3266 71.78 80.5346 71.708C80.7426 71.636 80.9706 71.6 81.2186 71.6C81.7386 71.6 82.1906 71.716 82.5746 71.948C82.9666 72.172 83.2706 72.484 83.4866 72.884C83.7106 73.284 83.8226 73.748 83.8226 74.276C83.8226 74.836 83.7026 75.332 83.4626 75.764C83.2226 76.188 82.8906 76.52 82.4666 76.76C82.0506 77 81.5626 77.12 81.0026 77.12ZM80.9906 76.16C81.5106 76.16 81.9306 75.988 82.2506 75.644C82.5786 75.3 82.7426 74.852 82.7426 74.3C82.7426 73.748 82.5786 73.3 82.2506 72.956C81.9306 72.612 81.5106 72.44 80.9906 72.44C80.4706 72.44 80.0466 72.612 79.7186 72.956C79.3986 73.3 79.2386 73.748 79.2386 74.3C79.2386 74.852 79.3986 75.3 79.7186 75.644C80.0466 75.988 80.4706 76.16 80.9906 76.16ZM88.1859 77.12C87.3779 77.12 86.7339 76.888 86.2539 76.424C85.7819 75.952 85.5459 75.324 85.5459 74.54V70.7C85.5459 69.916 85.7819 69.292 86.2539 68.828C86.7339 68.356 87.3779 68.12 88.1859 68.12C88.9939 68.12 89.6339 68.356 90.1059 68.828C90.5859 69.292 90.8259 69.916 90.8259 70.7V74.54C90.8259 75.06 90.7179 75.516 90.5019 75.908C90.2859 76.292 89.9779 76.592 89.5779 76.808C89.1859 77.016 88.7219 77.12 88.1859 77.12ZM88.1859 76.196C88.6659 76.196 89.0499 76.044 89.3379 75.74C89.6339 75.428 89.7819 75.028 89.7819 74.54V70.7C89.7819 70.212 89.6339 69.816 89.3379 69.512C89.0499 69.2 88.6659 69.044 88.1859 69.044C87.7059 69.044 87.3179 69.2 87.0219 69.512C86.7339 69.816 86.5899 70.212 86.5899 70.7V74.54C86.5899 75.028 86.7339 75.428 87.0219 75.74C87.3179 76.044 87.7059 76.196 88.1859 76.196ZM88.1859 73.28C87.9699 73.28 87.7939 73.22 87.6579 73.1C87.5299 72.98 87.4659 72.808 87.4659 72.584C87.4659 72.368 87.5299 72.204 87.6579 72.092C87.7939 71.972 87.9699 71.912 88.1859 71.912C88.4019 71.912 88.5739 71.972 88.7019 72.092C88.8379 72.204 88.9059 72.368 88.9059 72.584C88.9059 72.808 88.8379 72.98 88.7019 73.1C88.5739 73.22 88.4019 73.28 88.1859 73.28ZM101.113 79.16L102.085 76.592L99.6246 70.4H100.789L102.349 74.48C102.413 74.64 102.473 74.808 102.529 74.984C102.585 75.16 102.625 75.312 102.649 75.44C102.673 75.312 102.713 75.16 102.769 74.984C102.825 74.808 102.881 74.64 102.937 74.48L104.389 70.4H105.529L102.241 79.16H101.113ZM109.772 72.056C109.444 72.056 109.196 71.976 109.028 71.816C108.86 71.656 108.776 71.44 108.776 71.168C108.776 70.896 108.86 70.68 109.028 70.52C109.196 70.36 109.444 70.28 109.772 70.28C110.1 70.28 110.348 70.36 110.516 70.52C110.684 70.68 110.768 70.896 110.768 71.168C110.768 71.44 110.684 71.656 110.516 71.816C110.348 71.976 110.1 72.056 109.772 72.056ZM109.772 77.12C109.444 77.12 109.196 77.04 109.028 76.88C108.86 76.72 108.776 76.504 108.776 76.232C108.776 75.96 108.86 75.744 109.028 75.584C109.196 75.424 109.444 75.344 109.772 75.344C110.1 75.344 110.348 75.424 110.516 75.584C110.684 75.744 110.768 75.96 110.768 76.232C110.768 76.504 110.684 76.72 110.516 76.88C110.348 77.04 110.1 77.12 109.772 77.12ZM115.647 77L118.767 69.224H115.431V70.64H114.351V68.24H119.919V69.248L116.823 77H115.647ZM124.163 77.12C123.355 77.12 122.711 76.888 122.231 76.424C121.759 75.952 121.523 75.324 121.523 74.54V70.7C121.523 69.916 121.759 69.292 122.231 68.828C122.711 68.356 123.355 68.12 124.163 68.12C124.971 68.12 125.611 68.356 126.083 68.828C126.563 69.292 126.803 69.916 126.803 70.7V74.54C126.803 75.06 126.695 75.516 126.479 75.908C126.263 76.292 125.955 76.592 125.555 76.808C125.163 77.016 124.699 77.12 124.163 77.12ZM124.163 76.196C124.643 76.196 125.027 76.044 125.315 75.74C125.611 75.428 125.759 75.028 125.759 74.54V70.7C125.759 70.212 125.611 69.816 125.315 69.512C125.027 69.2 124.643 69.044 124.163 69.044C123.683 69.044 123.295 69.2 122.999 69.512C122.711 69.816 122.567 70.212 122.567 70.7V74.54C122.567 75.028 122.711 75.428 122.999 75.74C123.295 76.044 123.683 76.196 124.163 76.196ZM124.163 73.28C123.947 73.28 123.771 73.22 123.635 73.1C123.507 72.98 123.443 72.808 123.443 72.584C123.443 72.368 123.507 72.204 123.635 72.092C123.771 71.972 123.947 71.912 124.163 71.912C124.379 71.912 124.551 71.972 124.679 72.092C124.815 72.204 124.883 72.368 124.883 72.584C124.883 72.808 124.815 72.98 124.679 73.1C124.551 73.22 124.379 73.28 124.163 73.28ZM66.024 93.12C65.344 93.12 64.804 92.932 64.404 92.556C64.004 92.172 63.804 91.672 63.804 91.056C63.804 90.648 63.896 90.292 64.08 89.988C64.264 89.684 64.52 89.448 64.848 89.28C65.176 89.104 65.552 89.016 65.976 89.016H68.016V88.5C68.016 87.644 67.548 87.216 66.612 87.216C66.196 87.216 65.86 87.292 65.604 87.444C65.348 87.596 65.212 87.808 65.196 88.08H64.116C64.156 87.56 64.396 87.132 64.836 86.796C65.284 86.452 65.876 86.28 66.612 86.28C67.412 86.28 68.024 86.472 68.448 86.856C68.88 87.24 69.096 87.776 69.096 88.464V93H68.028V91.8H68.004C67.94 92.208 67.736 92.532 67.392 92.772C67.048 93.004 66.592 93.12 66.024 93.12ZM66.288 92.208C66.816 92.208 67.236 92.08 67.548 91.824C67.86 91.568 68.016 91.22 68.016 90.78V89.856H66.096C65.744 89.856 65.456 89.964 65.232 90.18C65.016 90.388 64.908 90.668 64.908 91.02C64.908 91.388 65.028 91.68 65.268 91.896C65.516 92.104 65.856 92.208 66.288 92.208ZM73.7953 88.056C73.4673 88.056 73.2193 87.976 73.0513 87.816C72.8833 87.656 72.7993 87.44 72.7993 87.168C72.7993 86.896 72.8833 86.68 73.0513 86.52C73.2193 86.36 73.4673 86.28 73.7953 86.28C74.1233 86.28 74.3713 86.36 74.5393 86.52C74.7073 86.68 74.7913 86.896 74.7913 87.168C74.7913 87.44 74.7073 87.656 74.5393 87.816C74.3713 87.976 74.1233 88.056 73.7953 88.056ZM73.7953 93.12C73.4673 93.12 73.2193 93.04 73.0513 92.88C72.8833 92.72 72.7993 92.504 72.7993 92.232C72.7993 91.96 72.8833 91.744 73.0513 91.584C73.2193 91.424 73.4673 91.344 73.7953 91.344C74.1233 91.344 74.3713 91.424 74.5393 91.584C74.7073 91.744 74.7913 91.96 74.7913 92.232C74.7913 92.504 74.7073 92.72 74.5393 92.88C74.3713 93.04 74.1233 93.12 73.7953 93.12ZM86.2659 89.52V88.56H90.1059V89.52H86.2659ZM95.3813 93.12C94.5733 93.12 93.9293 92.888 93.4493 92.424C92.9773 91.952 92.7413 91.324 92.7413 90.54V86.7C92.7413 85.916 92.9773 85.292 93.4493 84.828C93.9293 84.356 94.5733 84.12 95.3813 84.12C96.1893 84.12 96.8293 84.356 97.3013 84.828C97.7813 85.292 98.0213 85.916 98.0213 86.7V90.54C98.0213 91.06 97.9133 91.516 97.6973 91.908C97.4813 92.292 97.1733 92.592 96.7733 92.808C96.3813 93.016 95.9173 93.12 95.3813 93.12ZM95.3813 92.196C95.8613 92.196 96.2453 92.044 96.5333 91.74C96.8293 91.428 96.9773 91.028 96.9773 90.54V86.7C96.9773 86.212 96.8293 85.816 96.5333 85.512C96.2453 85.2 95.8613 85.044 95.3813 85.044C94.9013 85.044 94.5133 85.2 94.2173 85.512C93.9293 85.816 93.7853 86.212 93.7853 86.7V90.54C93.7853 91.028 93.9293 91.428 94.2173 91.74C94.5133 92.044 94.9013 92.196 95.3813 92.196ZM95.3813 89.28C95.1653 89.28 94.9893 89.22 94.8533 89.1C94.7253 88.98 94.6613 88.808 94.6613 88.584C94.6613 88.368 94.7253 88.204 94.8533 88.092C94.9893 87.972 95.1653 87.912 95.3813 87.912C95.5973 87.912 95.7693 87.972 95.8973 88.092C96.0333 88.204 96.1013 88.368 96.1013 88.584C96.1013 88.808 96.0333 88.98 95.8973 89.1C95.7693 89.22 95.5973 89.28 95.3813 89.28ZM102.577 93.12C102.281 93.12 102.041 93.032 101.857 92.856C101.681 92.68 101.593 92.452 101.593 92.172C101.593 91.876 101.681 91.636 101.857 91.452C102.041 91.268 102.281 91.176 102.577 91.176C102.873 91.176 103.109 91.268 103.285 91.452C103.469 91.636 103.561 91.876 103.561 92.172C103.561 92.452 103.469 92.68 103.285 92.856C103.109 93.032 102.873 93.12 102.577 93.12ZM109.7 93.12C108.892 93.12 108.252 92.896 107.78 92.448C107.308 91.992 107.072 91.376 107.072 90.6H108.152C108.152 91.08 108.292 91.46 108.572 91.74C108.852 92.02 109.232 92.16 109.712 92.16C110.192 92.16 110.572 92.02 110.852 91.74C111.132 91.46 111.272 91.08 111.272 90.6V90.06C111.272 89.58 111.136 89.2 110.864 88.92C110.592 88.64 110.224 88.5 109.76 88.5H107.372V84.24H112.04V85.224H108.38L108.404 87.516H109.82C110.628 87.516 111.252 87.74 111.692 88.188C112.132 88.628 112.352 89.252 112.352 90.06V90.6C112.352 91.376 112.112 91.992 111.632 92.448C111.16 92.896 110.516 93.12 109.7 93.12ZM115.887 94.92L116.547 91.248H117.843L117.003 94.92H115.887ZM122.243 89.52V88.56H126.083V89.52H122.243ZM131.358 93.12C130.55 93.12 129.906 92.888 129.426 92.424C128.954 91.952 128.718 91.324 128.718 90.54V86.7C128.718 85.916 128.954 85.292 129.426 84.828C129.906 84.356 130.55 84.12 131.358 84.12C132.166 84.12 132.806 84.356 133.278 84.828C133.758 85.292 133.998 85.916 133.998 86.7V90.54C133.998 91.06 133.89 91.516 133.674 91.908C133.458 92.292 133.15 92.592 132.75 92.808C132.358 93.016 131.894 93.12 131.358 93.12ZM131.358 92.196C131.838 92.196 132.222 92.044 132.51 91.74C132.806 91.428 132.954 91.028 132.954 90.54V86.7C132.954 86.212 132.806 85.816 132.51 85.512C132.222 85.2 131.838 85.044 131.358 85.044C130.878 85.044 130.49 85.2 130.194 85.512C129.906 85.816 129.762 86.212 129.762 86.7V90.54C129.762 91.028 129.906 91.428 130.194 91.74C130.49 92.044 130.878 92.196 131.358 92.196ZM131.358 89.28C131.142 89.28 130.966 89.22 130.83 89.1C130.702 88.98 130.638 88.808 130.638 88.584C130.638 88.368 130.702 88.204 130.83 88.092C130.966 87.972 131.142 87.912 131.358 87.912C131.574 87.912 131.746 87.972 131.874 88.092C132.01 88.204 132.078 88.368 132.078 88.584C132.078 88.808 132.01 88.98 131.874 89.1C131.746 89.22 131.574 89.28 131.358 89.28ZM138.553 93.12C138.257 93.12 138.017 93.032 137.833 92.856C137.657 92.68 137.569 92.452 137.569 92.172C137.569 91.876 137.657 91.636 137.833 91.452C138.017 91.268 138.257 91.176 138.553 91.176C138.849 91.176 139.085 91.268 139.261 91.452C139.445 91.636 139.537 91.876 139.537 92.172C139.537 92.452 139.445 92.68 139.261 92.856C139.085 93.032 138.849 93.12 138.553 93.12ZM145.676 93.12C144.868 93.12 144.228 92.896 143.756 92.448C143.284 91.992 143.048 91.376 143.048 90.6H144.128C144.128 91.08 144.268 91.46 144.548 91.74C144.828 92.02 145.208 92.16 145.688 92.16C146.168 92.16 146.548 92.02 146.828 91.74C147.108 91.46 147.248 91.08 147.248 90.6V90.06C147.248 89.58 147.112 89.2 146.84 88.92C146.568 88.64 146.2 88.5 145.736 88.5H143.348V84.24H148.016V85.224H144.356L144.38 87.516H145.796C146.604 87.516 147.228 87.74 147.668 88.188C148.108 88.628 148.328 89.252 148.328 90.06V90.6C148.328 91.376 148.088 91.992 147.608 92.448C147.136 92.896 146.492 93.12 145.676 93.12Z" fill="black"/>
<path d="M0.6 12L2.94 8.604L0.744 5.4H2.016L3.324 7.44C3.38 7.528 3.432 7.624 3.48 7.728C3.536 7.832 3.58 7.916 3.612 7.98C3.636 7.916 3.672 7.832 3.72 7.728C3.776 7.624 3.832 7.528 3.888 7.44L5.196 5.4H6.468L4.272 8.616L6.6 12H5.328L3.912 9.84C3.856 9.752 3.8 9.652 3.744 9.54C3.696 9.42 3.652 9.324 3.612 9.252C3.58 9.324 3.532 9.42 3.468 9.54C3.412 9.652 3.352 9.752 3.288 9.84L1.872 12H0.6ZM10.7953 7.056C10.4673 7.056 10.2193 6.976 10.0513 6.816C9.88331 6.656 9.79931 6.44 9.79931 6.168C9.79931 5.896 9.88331 5.68 10.0513 5.52C10.2193 5.36 10.4673 5.28 10.7953 5.28C11.1233 5.28 11.3713 5.36 11.5393 5.52C11.7073 5.68 11.7913 5.896 11.7913 6.168C11.7913 6.44 11.7073 6.656 11.5393 6.816C11.3713 6.976 11.1233 7.056 10.7953 7.056ZM10.7953 12.12C10.4673 12.12 10.2193 12.04 10.0513 11.88C9.88331 11.72 9.79931 11.504 9.79931 11.232C9.79931 10.96 9.88331 10.744 10.0513 10.584C10.2193 10.424 10.4673 10.344 10.7953 10.344C11.1233 10.344 11.3713 10.424 11.5393 10.584C11.7073 10.744 11.7913 10.96 11.7913 11.232C11.7913 11.504 11.7073 11.72 11.5393 11.88C11.3713 12.04 11.1233 12.12 10.7953 12.12ZM17.9906 12.12C17.1826 12.12 16.5386 11.888 16.0586 11.424C15.5866 10.952 15.3506 10.324 15.3506 9.54V5.7C15.3506 4.916 15.5866 4.292 16.0586 3.828C16.5386 3.356 17.1826 3.12 17.9906 3.12C18.7986 3.12 19.4386 3.356 19.9106 3.828C20.3906 4.292 20.6306 4.916 20.6306 5.7V9.54C20.6306 10.06 20.5226 10.516 20.3066 10.908C20.0906 11.292 19.7826 11.592 19.3826 11.808C18.9906 12.016 18.5266 12.12 17.9906 12.12ZM17.9906 11.196C18.4706 11.196 18.8546 11.044 19.1426 10.74C19.4386 10.428 19.5866 10.028 19.5866 9.54V5.7C19.5866 5.212 19.4386 4.816 19.1426 4.512C18.8546 4.2 18.4706 4.044 17.9906 4.044C17.5106 4.044 17.1226 4.2 16.8266 4.512C16.5386 4.816 16.3946 5.212 16.3946 5.7V9.54C16.3946 10.028 16.5386 10.428 16.8266 10.74C17.1226 11.044 17.5106 11.196 17.9906 11.196ZM17.9906 8.28C17.7746 8.28 17.5986 8.22 17.4626 8.1C17.3346 7.98 17.2706 7.808 17.2706 7.584C17.2706 7.368 17.3346 7.204 17.4626 7.092C17.5986 6.972 17.7746 6.912 17.9906 6.912C18.2066 6.912 18.3786 6.972 18.5066 7.092C18.6426 7.204 18.7106 7.368 18.7106 7.584C18.7106 7.808 18.6426 7.98 18.5066 8.1C18.3786 8.22 18.2066 8.28 17.9906 8.28ZM30.9173 14.16L31.8893 11.592L29.4293 5.4H30.5933L32.1533 9.48C32.2173 9.64 32.2773 9.808 32.3333 9.984C32.3893 10.16 32.4293 10.312 32.4533 10.44C32.4773 10.312 32.5173 10.16 32.5733 9.984C32.6293 9.808 32.6853 9.64 32.7413 9.48L34.1933 5.4H35.3333L32.0453 14.16H30.9173ZM39.5766 7.056C39.2486 7.056 39.0006 6.976 38.8326 6.816C38.6646 6.656 38.5806 6.44 38.5806 6.168C38.5806 5.896 38.6646 5.68 38.8326 5.52C39.0006 5.36 39.2486 5.28 39.5766 5.28C39.9046 5.28 40.1526 5.36 40.3206 5.52C40.4886 5.68 40.5726 5.896 40.5726 6.168C40.5726 6.44 40.4886 6.656 40.3206 6.816C40.1526 6.976 39.9046 7.056 39.5766 7.056ZM39.5766 12.12C39.2486 12.12 39.0006 12.04 38.8326 11.88C38.6646 11.72 38.5806 11.504 38.5806 11.232C38.5806 10.96 38.6646 10.744 38.8326 10.584C39.0006 10.424 39.2486 10.344 39.5766 10.344C39.9046 10.344 40.1526 10.424 40.3206 10.584C40.4886 10.744 40.5726 10.96 40.5726 11.232C40.5726 11.504 40.4886 11.72 40.3206 11.88C40.1526 12.04 39.9046 12.12 39.5766 12.12ZM46.7719 12.12C45.9639 12.12 45.3199 11.888 44.8399 11.424C44.3679 10.952 44.1319 10.324 44.1319 9.54V5.7C44.1319 4.916 44.3679 4.292 44.8399 3.828C45.3199 3.356 45.9639 3.12 46.7719 3.12C47.5799 3.12 48.2199 3.356 48.6919 3.828C49.1719 4.292 49.4119 4.916 49.4119 5.7V9.54C49.4119 10.06 49.3039 10.516 49.0879 10.908C48.8719 11.292 48.5639 11.592 48.1639 11.808C47.7719 12.016 47.3079 12.12 46.7719 12.12ZM46.7719 11.196C47.2519 11.196 47.6359 11.044 47.9239 10.74C48.2199 10.428 48.3679 10.028 48.3679 9.54V5.7C48.3679 5.212 48.2199 4.816 47.9239 4.512C47.6359 4.2 47.2519 4.044 46.7719 4.044C46.2919 4.044 45.9039 4.2 45.6079 4.512C45.3199 4.816 45.1759 5.212 45.1759 5.7V9.54C45.1759 10.028 45.3199 10.428 45.6079 10.74C45.9039 11.044 46.2919 11.196 46.7719 11.196ZM46.7719 8.28C46.5559 8.28 46.3799 8.22 46.2439 8.1C46.1159 7.98 46.0519 7.808 46.0519 7.584C46.0519 7.368 46.1159 7.204 46.2439 7.092C46.3799 6.972 46.5559 6.912 46.7719 6.912C46.9879 6.912 47.1599 6.972 47.2879 7.092C47.4239 7.204 47.4919 7.368 47.4919 7.584C47.4919 7.808 47.4239 7.98 47.2879 8.1C47.1599 8.22 46.9879 8.28 46.7719 8.28ZM1.452 28L0.372 21.4H1.308L1.98 26.056C2.004 26.232 2.028 26.428 2.052 26.644C2.076 26.852 2.092 27.024 2.1 27.16C2.116 27.024 2.132 26.852 2.148 26.644C2.172 26.428 2.2 26.232 2.232 26.056L3.06 21.4H4.14L4.968 26.056C5 26.232 5.028 26.428 5.052 26.644C5.084 26.852 5.104 27.024 5.112 27.16C5.128 27.024 5.148 26.852 5.172 26.644C5.196 26.428 5.22 26.232 5.244 26.056L5.94 21.4H6.828L5.7 28H4.512L3.756 23.44C3.724 23.216 3.692 22.98 3.66 22.732C3.636 22.476 3.616 22.28 3.6 22.144C3.592 22.28 3.572 22.476 3.54 22.732C3.508 22.98 3.472 23.216 3.432 23.44L2.64 28H1.452ZM10.7953 23.056C10.4673 23.056 10.2193 22.976 10.0513 22.816C9.88331 22.656 9.79931 22.44 9.79931 22.168C9.79931 21.896 9.88331 21.68 10.0513 21.52C10.2193 21.36 10.4673 21.28 10.7953 21.28C11.1233 21.28 11.3713 21.36 11.5393 21.52C11.7073 21.68 11.7913 21.896 11.7913 22.168C11.7913 22.44 11.7073 22.656 11.5393 22.816C11.3713 22.976 11.1233 23.056 10.7953 23.056ZM10.7953 28.12C10.4673 28.12 10.2193 28.04 10.0513 27.88C9.88331 27.72 9.79931 27.504 9.79931 27.232C9.79931 26.96 9.88331 26.744 10.0513 26.584C10.2193 26.424 10.4673 26.344 10.7953 26.344C11.1233 26.344 11.3713 26.424 11.5393 26.584C11.7073 26.744 11.7913 26.96 11.7913 27.232C11.7913 27.504 11.7073 27.72 11.5393 27.88C11.3713 28.04 11.1233 28.12 10.7953 28.12ZM15.4226 28V27.004L18.3386 23.884C18.7626 23.436 19.0626 23.036 19.2386 22.684C19.4146 22.332 19.5026 21.988 19.5026 21.652C19.5026 21.172 19.3626 20.792 19.0826 20.512C18.8106 20.224 18.4386 20.08 17.9666 20.08C17.4786 20.08 17.0906 20.228 16.8026 20.524C16.5226 20.812 16.3826 21.204 16.3826 21.7H15.3026C15.3266 20.908 15.5786 20.28 16.0586 19.816C16.5386 19.352 17.1746 19.12 17.9666 19.12C18.7746 19.12 19.4146 19.348 19.8866 19.804C20.3666 20.26 20.6066 20.88 20.6066 21.664C20.6066 22.08 20.4906 22.52 20.2586 22.984C20.0346 23.448 19.6466 23.968 19.0946 24.544L16.7306 27.016H20.7146V28H15.4226ZM25.1859 28.12C24.3779 28.12 23.7339 27.888 23.2539 27.424C22.7819 26.952 22.5459 26.324 22.5459 25.54V21.7C22.5459 20.916 22.7819 20.292 23.2539 19.828C23.7339 19.356 24.3779 19.12 25.1859 19.12C25.9939 19.12 26.6339 19.356 27.1059 19.828C27.5859 20.292 27.8259 20.916 27.8259 21.7V25.54C27.8259 26.06 27.7179 26.516 27.5019 26.908C27.2859 27.292 26.9779 27.592 26.5779 27.808C26.1859 28.016 25.7219 28.12 25.1859 28.12ZM25.1859 27.196C25.6659 27.196 26.0499 27.044 26.3379 26.74C26.6339 26.428 26.7819 26.028 26.7819 25.54V21.7C26.7819 21.212 26.6339 20.816 26.3379 20.512C26.0499 20.2 25.6659 20.044 25.1859 20.044C24.7059 20.044 24.3179 20.2 24.0219 20.512C23.7339 20.816 23.5899 21.212 23.5899 21.7V25.54C23.5899 26.028 23.7339 26.428 24.0219 26.74C24.3179 27.044 24.7059 27.196 25.1859 27.196ZM25.1859 24.28C24.9699 24.28 24.7939 24.22 24.6579 24.1C24.5299 23.98 24.4659 23.808 24.4659 23.584C24.4659 23.368 24.5299 23.204 24.6579 23.092C24.7939 22.972 24.9699 22.912 25.1859 22.912C25.4019 22.912 25.5739 22.972 25.7019 23.092C25.8379 23.204 25.9059 23.368 25.9059 23.584C25.9059 23.808 25.8379 23.98 25.7019 24.1C25.5739 24.22 25.4019 24.28 25.1859 24.28ZM32.3813 28.12C31.5733 28.12 30.9293 27.888 30.4493 27.424C29.9773 26.952 29.7413 26.324 29.7413 25.54V21.7C29.7413 20.916 29.9773 20.292 30.4493 19.828C30.9293 19.356 31.5733 19.12 32.3813 19.12C33.1893 19.12 33.8293 19.356 34.3013 19.828C34.7813 20.292 35.0213 20.916 35.0213 21.7V25.54C35.0213 26.06 34.9133 26.516 34.6973 26.908C34.4813 27.292 34.1733 27.592 33.7733 27.808C33.3813 28.016 32.9173 28.12 32.3813 28.12ZM32.3813 27.196C32.8613 27.196 33.2453 27.044 33.5333 26.74C33.8293 26.428 33.9773 26.028 33.9773 25.54V21.7C33.9773 21.212 33.8293 20.816 33.5333 20.512C33.2453 20.2 32.8613 20.044 32.3813 20.044C31.9013 20.044 31.5133 20.2 31.2173 20.512C30.9293 20.816 30.7853 21.212 30.7853 21.7V25.54C30.7853 26.028 30.9293 26.428 31.2173 26.74C31.5133 27.044 31.9013 27.196 32.3813 27.196ZM32.3813 24.28C32.1653 24.28 31.9893 24.22 31.8533 24.1C31.7253 23.98 31.6613 23.808 31.6613 23.584C31.6613 23.368 31.7253 23.204 31.8533 23.092C31.9893 22.972 32.1653 22.912 32.3813 22.912C32.5973 22.912 32.7693 22.972 32.8973 23.092C33.0333 23.204 33.1013 23.368 33.1013 23.584C33.1013 23.808 33.0333 23.98 32.8973 24.1C32.7693 24.22 32.5973 24.28 32.3813 24.28ZM44.2759 28V19.24H45.3559V22.66H45.3679C45.4239 22.22 45.6039 21.88 45.9079 21.64C46.2119 21.4 46.6159 21.28 47.1199 21.28C47.7839 21.28 48.3119 21.484 48.7039 21.892C49.0959 22.3 49.2919 22.856 49.2919 23.56V28H48.2119V23.74C48.2119 23.244 48.0839 22.864 47.8279 22.6C47.5799 22.328 47.2399 22.192 46.8079 22.192C46.3599 22.192 46.0039 22.332 45.7399 22.612C45.4839 22.892 45.3559 23.288 45.3559 23.8V28H44.2759ZM53.9672 23.056C53.6392 23.056 53.3912 22.976 53.2232 22.816C53.0552 22.656 52.9712 22.44 52.9712 22.168C52.9712 21.896 53.0552 21.68 53.2232 21.52C53.3912 21.36 53.6392 21.28 53.9672 21.28C54.2952 21.28 54.5432 21.36 54.7112 21.52C54.8792 21.68 54.9632 21.896 54.9632 22.168C54.9632 22.44 54.8792 22.656 54.7112 22.816C54.5432 22.976 54.2952 23.056 53.9672 23.056ZM53.9672 28.12C53.6392 28.12 53.3912 28.04 53.2232 27.88C53.0552 27.72 52.9712 27.504 52.9712 27.232C52.9712 26.96 53.0552 26.744 53.2232 26.584C53.3912 26.424 53.6392 26.344 53.9672 26.344C54.2952 26.344 54.5432 26.424 54.7112 26.584C54.8792 26.744 54.9632 26.96 54.9632 27.232C54.9632 27.504 54.8792 27.72 54.7112 27.88C54.5432 28.04 54.2952 28.12 53.9672 28.12ZM58.5945 28V27.004L61.5105 23.884C61.9345 23.436 62.2345 23.036 62.4105 22.684C62.5865 22.332 62.6745 21.988 62.6745 21.652C62.6745 21.172 62.5345 20.792 62.2545 20.512C61.9825 20.224 61.6105 20.08 61.1385 20.08C60.6505 20.08 60.2625 20.228 59.9745 20.524C59.6945 20.812 59.5545 21.204 59.5545 21.7H58.4745C58.4985 20.908 58.7505 20.28 59.2305 19.816C59.7105 19.352 60.3465 19.12 61.1385 19.12C61.9465 19.12 62.5865 19.348 63.0585 19.804C63.5385 20.26 63.7785 20.88 63.7785 21.664C63.7785 22.08 63.6625 22.52 63.4305 22.984C63.2065 23.448 62.8185 23.968 62.2665 24.544L59.9025 27.016H63.8865V28H58.5945ZM68.3578 28.12C67.5498 28.12 66.9058 27.888 66.4258 27.424C65.9538 26.952 65.7178 26.324 65.7178 25.54V21.7C65.7178 20.916 65.9538 20.292 66.4258 19.828C66.9058 19.356 67.5498 19.12 68.3578 19.12C69.1658 19.12 69.8058 19.356 70.2778 19.828C70.7578 20.292 70.9978 20.916 70.9978 21.7V25.54C70.9978 26.06 70.8898 26.516 70.6738 26.908C70.4578 27.292 70.1498 27.592 69.7498 27.808C69.3578 28.016 68.8938 28.12 68.3578 28.12ZM68.3578 27.196C68.8378 27.196 69.2218 27.044 69.5098 26.74C69.8058 26.428 69.9538 26.028 69.9538 25.54V21.7C69.9538 21.212 69.8058 20.816 69.5098 20.512C69.2218 20.2 68.8378 20.044 68.3578 20.044C67.8778 20.044 67.4898 20.2 67.1938 20.512C66.9058 20.816 66.7618 21.212 66.7618 21.7V25.54C66.7618 26.028 66.9058 26.428 67.1938 26.74C67.4898 27.044 67.8778 27.196 68.3578 27.196ZM68.3578 24.28C68.1418 24.28 67.9658 24.22 67.8298 24.1C67.7018 23.98 67.6378 23.808 67.6378 23.584C67.6378 23.368 67.7018 23.204 67.8298 23.092C67.9658 22.972 68.1418 22.912 68.3578 22.912C68.5738 22.912 68.7458 22.972 68.8738 23.092C69.0098 23.204 69.0778 23.368 69.0778 23.584C69.0778 23.808 69.0098 23.98 68.8738 24.1C68.7458 24.22 68.5738 24.28 68.3578 24.28ZM75.5531 28.12C74.7451 28.12 74.1011 27.888 73.6211 27.424C73.1491 26.952 72.9131 26.324 72.9131 25.54V21.7C72.9131 20.916 73.1491 20.292 73.6211 19.828C74.1011 19.356 74.7451 19.12 75.5531 19.12C76.3611 19.12 77.0011 19.356 77.4731 19.828C77.9531 20.292 78.1931 20.916 78.1931 21.7V25.54C78.1931 26.06 78.0851 26.516 77.8691 26.908C77.6531 27.292 77.3451 27.592 76.9451 27.808C76.5531 28.016 76.0891 28.12 75.5531 28.12ZM75.5531 27.196C76.0331 27.196 76.4171 27.044 76.7051 26.74C77.0011 26.428 77.1491 26.028 77.1491 25.54V21.7C77.1491 21.212 77.0011 20.816 76.7051 20.512C76.4171 20.2 76.0331 20.044 75.5531 20.044C75.0731 20.044 74.6851 20.2 74.3891 20.512C74.1011 20.816 73.9571 21.212 73.9571 21.7V25.54C73.9571 26.028 74.1011 26.428 74.3891 26.74C74.6851 27.044 75.0731 27.196 75.5531 27.196ZM75.5531 24.28C75.3371 24.28 75.1611 24.22 75.0251 24.1C74.8971 23.98 74.8331 23.808 74.8331 23.584C74.8331 23.368 74.8971 23.204 75.0251 23.092C75.1611 22.972 75.3371 22.912 75.5531 22.912C75.7691 22.912 75.9411 22.972 76.0691 23.092C76.2051 23.204 76.2731 23.368 76.2731 23.584C76.2731 23.808 76.2051 23.98 76.0691 24.1C75.9411 24.22 75.7691 24.28 75.5531 24.28Z" fill="black"/>
</svg>
