<svg width="252" height="232" viewBox="0 0 252 232" fill="none" xmlns="http://www.w3.org/2000/svg">
<rect x="26.5" y="22.5" width="199" height="199" stroke="black"/>
<path d="M228 12V232" stroke="#0DC267" stroke-width="2"/>
<path d="M24 12V232" stroke="#0DC267" stroke-width="2"/>
<path d="M236 20L16 20" stroke="#0070FF" stroke-width="2"/>
<path d="M236 224L16 224" stroke="#0070FF" stroke-width="2"/>
<path d="M121.26 12C120.716 12 120.28 11.844 119.952 11.532C119.624 11.212 119.46 10.788 119.46 10.26V6.384H117.564V5.4H119.46V3.54H120.54V5.4H123.24V6.384H120.54V10.26C120.54 10.484 120.604 10.668 120.732 10.812C120.868 10.948 121.044 11.016 121.26 11.016H123.18V12H121.26ZM127.795 12.096C127.003 12.096 126.371 11.864 125.899 11.4C125.435 10.936 125.203 10.288 125.203 9.456V7.944C125.203 7.104 125.435 6.456 125.899 6C126.363 5.536 126.995 5.304 127.795 5.304C128.595 5.304 129.227 5.536 129.691 6C130.155 6.456 130.387 7.104 130.387 7.944V9.456C130.387 10.288 130.151 10.936 129.679 11.4C129.215 11.864 128.587 12.096 127.795 12.096ZM127.795 11.136C128.267 11.136 128.635 11.004 128.899 10.74C129.171 10.476 129.307 10.088 129.307 9.576V7.824C129.307 7.312 129.171 6.924 128.899 6.66C128.635 6.396 128.267 6.264 127.795 6.264C127.331 6.264 126.963 6.396 126.691 6.66C126.419 6.924 126.283 7.312 126.283 7.824V9.576C126.283 10.088 126.419 10.476 126.691 10.74C126.963 11.004 127.331 11.136 127.795 11.136ZM132.495 14.16V5.4H133.575V6.66H133.587C133.643 6.228 133.831 5.892 134.151 5.652C134.471 5.404 134.879 5.28 135.375 5.28C136.039 5.28 136.567 5.5 136.959 5.94C137.351 6.372 137.547 6.968 137.547 7.728V9.66C137.547 10.42 137.351 11.02 136.959 11.46C136.567 11.9 136.039 12.12 135.375 12.12C134.879 12.12 134.471 11.996 134.151 11.748C133.831 11.5 133.643 11.164 133.587 10.74H133.551L133.575 12.24V14.16H132.495ZM135.015 11.184C135.471 11.184 135.827 11.064 136.083 10.824C136.339 10.584 136.467 10.196 136.467 9.66V7.74C136.467 7.196 136.339 6.808 136.083 6.576C135.827 6.336 135.471 6.216 135.015 6.216C134.575 6.216 134.223 6.356 133.959 6.636C133.703 6.916 133.575 7.304 133.575 7.8V9.6C133.575 10.096 133.703 10.484 133.959 10.764C134.223 11.044 134.575 11.184 135.015 11.184Z" fill="#0070FF"/>
<path d="M12 142.44C12 143.024 11.832 143.492 11.496 143.844C11.152 144.188 10.7 144.36 10.14 144.36L4.224 144.36L4.224 146.64L3.24 146.64L3.24 143.28L10.14 143.28C10.412 143.28 10.628 143.204 10.788 143.052C10.94 142.9 11.016 142.696 11.016 142.44L11.016 140.4L12 140.4L12 142.44ZM12.12 136.205C12.12 136.981 11.888 137.609 11.424 138.089C10.952 138.561 10.304 138.797 9.48 138.797L7.92 138.797C7.096 138.797 6.452 138.561 5.988 138.089C5.516 137.609 5.28 136.981 5.28 136.205C5.28 135.685 5.384 135.233 5.592 134.849C5.8 134.457 6.092 134.153 6.468 133.937C6.844 133.721 7.288 133.613 7.8 133.613L8.976 133.613L8.976 137.741L9.6 137.741C10.088 137.741 10.476 137.601 10.764 137.321C11.044 137.041 11.184 136.669 11.184 136.205C11.184 135.805 11.108 135.477 10.956 135.221C10.796 134.957 10.584 134.797 10.32 134.741L10.32 133.661C10.872 133.733 11.312 134.001 11.64 134.465C11.96 134.929 12.12 135.509 12.12 136.205ZM8.136 137.741L8.136 134.669L7.8 134.669C7.28 134.669 6.88 134.805 6.6 135.077C6.312 135.341 6.168 135.717 6.168 136.205C6.168 136.693 6.312 137.073 6.6 137.345C6.88 137.609 7.28 137.741 7.8 137.741L8.136 137.741ZM12.12 129.585C12.12 130.265 11.932 130.805 11.556 131.205C11.172 131.605 10.672 131.805 10.056 131.805C9.648 131.805 9.292 131.713 8.988 131.529C8.684 131.345 8.448 131.089 8.28 130.761C8.104 130.433 8.016 130.057 8.016 129.633L8.016 127.593L7.5 127.593C6.644 127.593 6.216 128.061 6.216 128.997C6.216 129.413 6.292 129.749 6.444 130.005C6.596 130.261 6.808 130.397 7.08 130.413L7.08 131.493C6.56 131.453 6.132 131.213 5.796 130.773C5.452 130.325 5.28 129.733 5.28 128.997C5.28 128.197 5.472 127.585 5.856 127.161C6.24 126.729 6.776 126.513 7.464 126.513L12 126.513L12 127.581L10.8 127.581L10.8 127.605C11.208 127.669 11.532 127.873 11.772 128.217C12.004 128.561 12.12 129.017 12.12 129.585ZM11.208 129.321C11.208 128.793 11.08 128.373 10.824 128.061C10.568 127.749 10.22 127.593 9.78 127.593L8.856 127.593L8.856 129.513C8.856 129.865 8.964 130.153 9.18 130.377C9.388 130.593 9.668 130.701 10.02 130.701C10.388 130.701 10.68 130.581 10.896 130.341C11.104 130.093 11.208 129.753 11.208 129.321ZM12.12 122.198C12.12 122.854 11.9 123.382 11.46 123.782C11.02 124.174 10.424 124.37 9.672 124.37L7.74 124.37C6.98 124.37 6.38 124.174 5.94 123.782C5.5 123.39 5.28 122.862 5.28 122.198C5.28 121.702 5.404 121.294 5.652 120.974C5.9 120.646 6.236 120.45 6.66 120.386L6.66 120.374L5.16 120.398L3.24 120.398L3.24 119.318L12 119.318L12 120.398L10.74 120.398L10.74 120.41C11.172 120.466 11.512 120.654 11.76 120.974C12 121.294 12.12 121.702 12.12 122.198ZM11.184 121.838C11.184 121.39 11.044 121.038 10.764 120.782C10.484 120.526 10.096 120.398 9.6 120.398L7.8 120.398C7.304 120.398 6.916 120.526 6.636 120.782C6.356 121.038 6.216 121.39 6.216 121.838C6.216 122.294 6.336 122.65 6.576 122.906C6.808 123.162 7.196 123.29 7.74 123.29L9.66 123.29C10.196 123.29 10.584 123.162 10.824 122.906C11.064 122.65 11.184 122.294 11.184 121.838ZM12 117.199L11.016 117.199L11.016 114.859L6.384 114.859L6.384 116.959L5.4 116.959L5.4 113.779L11.016 113.779L11.016 111.559L12 111.559L12 117.199ZM4.212 114.439C4.212 114.703 4.144 114.911 4.008 115.063C3.872 115.215 3.688 115.291 3.456 115.291C3.216 115.291 3.028 115.215 2.892 115.063C2.748 114.911 2.676 114.703 2.676 114.439C2.676 114.175 2.748 113.967 2.892 113.815C3.028 113.663 3.216 113.587 3.456 113.587C3.688 113.587 3.872 113.663 4.008 113.815C4.144 113.967 4.212 114.175 4.212 114.439ZM12 109.919L5.4 109.919L5.4 108.839L6.66 108.839L6.66 108.827C6.22 108.771 5.88 108.591 5.64 108.287C5.4 107.983 5.28 107.579 5.28 107.075C5.28 106.411 5.484 105.883 5.892 105.491C6.3 105.099 6.856 104.903 7.56 104.903L12 104.903L12 105.983L7.752 105.983C7.248 105.983 6.864 106.111 6.6 106.367C6.328 106.615 6.192 106.955 6.192 107.387C6.192 107.835 6.332 108.191 6.612 108.455C6.892 108.711 7.288 108.839 7.8 108.839L12 108.839L12 109.919ZM14.16 101.896L13.176 101.896L13.176 100.036C13.176 99.6601 13.068 99.3641 12.852 99.1481C12.644 98.9321 12.36 98.8241 12 98.8241L11.4 98.8241L10.32 98.8001L10.32 98.8361C10.712 98.9001 11.016 99.0881 11.232 99.4001C11.44 99.7121 11.544 100.104 11.544 100.576C11.544 101.256 11.328 101.792 10.896 102.184C10.464 102.576 9.872 102.772 9.12 102.772L7.728 102.772C6.976 102.772 6.38 102.576 5.94 102.184C5.5 101.792 5.28 101.256 5.28 100.576C5.28 100.104 5.392 99.7121 5.616 99.4001C5.84 99.0881 6.148 98.9001 6.54 98.8361L6.54 98.8121L5.4 98.8121L5.4 97.7441L12 97.7441C12.664 97.7441 13.188 97.9521 13.572 98.3681C13.964 98.7761 14.16 99.3361 14.16 100.048L14.16 101.896ZM10.644 100.252C10.644 99.8041 10.504 99.4521 10.224 99.1961C9.944 98.9401 9.556 98.8121 9.06 98.8121L7.8 98.8121C7.304 98.8121 6.916 98.9401 6.636 99.1961C6.356 99.4521 6.216 99.8041 6.216 100.252C6.216 100.708 6.348 101.064 6.612 101.32C6.876 101.568 7.232 101.692 7.68 101.692L9.18 101.692C9.628 101.692 9.984 101.568 10.248 101.32C10.512 101.064 10.644 100.708 10.644 100.252Z" fill="#0DC267"/>
<path d="M248 146.74C248 147.284 247.844 147.72 247.532 148.048C247.212 148.376 246.788 148.54 246.26 148.54L242.384 148.54L242.384 150.436L241.4 150.436L241.4 148.54L239.54 148.54L239.54 147.46L241.4 147.46L241.4 144.76L242.384 144.76L242.384 147.46L246.26 147.46C246.484 147.46 246.668 147.396 246.812 147.268C246.948 147.132 247.016 146.956 247.016 146.74L247.016 144.82L248 144.82L248 146.74ZM248 142.461L241.4 142.461L241.4 141.381L242.66 141.381L242.66 141.357C242.236 141.301 241.9 141.121 241.652 140.817C241.404 140.513 241.28 140.105 241.28 139.593C241.28 138.905 241.488 138.377 241.904 138.009C242.312 137.633 242.896 137.445 243.656 137.445L244.22 137.445L244.22 138.525L243.656 138.525C242.696 138.525 242.216 138.993 242.216 139.929C242.216 140.401 242.352 140.761 242.624 141.009C242.896 141.257 243.288 141.381 243.8 141.381L248 141.381L248 142.461ZM248.12 133.585C248.12 134.265 247.932 134.805 247.556 135.205C247.172 135.605 246.672 135.805 246.056 135.805C245.648 135.805 245.292 135.713 244.988 135.529C244.684 135.345 244.448 135.089 244.28 134.761C244.104 134.433 244.016 134.057 244.016 133.633L244.016 131.593L243.5 131.593C242.644 131.593 242.216 132.061 242.216 132.997C242.216 133.413 242.292 133.749 242.444 134.005C242.596 134.261 242.808 134.397 243.08 134.413L243.08 135.493C242.56 135.453 242.132 135.213 241.796 134.773C241.452 134.325 241.28 133.733 241.28 132.997C241.28 132.197 241.472 131.585 241.856 131.161C242.24 130.729 242.776 130.513 243.464 130.513L248 130.513L248 131.581L246.8 131.581L246.8 131.605C247.208 131.669 247.532 131.873 247.772 132.217C248.004 132.561 248.12 133.017 248.12 133.585ZM247.208 133.321C247.208 132.793 247.08 132.373 246.824 132.061C246.568 131.749 246.22 131.593 245.78 131.593L244.856 131.593L244.856 133.513C244.856 133.865 244.964 134.153 245.18 134.377C245.388 134.593 245.668 134.701 246.02 134.701C246.388 134.701 246.68 134.581 246.896 134.341C247.104 134.093 247.208 133.753 247.208 133.321ZM248 128.394L247.016 128.394L247.016 126.054L242.384 126.054L242.384 128.154L241.4 128.154L241.4 124.974L247.016 124.974L247.016 122.754L248 122.754L248 128.394ZM240.212 125.634C240.212 125.898 240.144 126.106 240.008 126.258C239.872 126.41 239.688 126.486 239.456 126.486C239.216 126.486 239.028 126.41 238.892 126.258C238.748 126.106 238.676 125.898 238.676 125.634C238.676 125.37 238.748 125.162 238.892 125.01C239.028 124.858 239.216 124.782 239.456 124.782C239.688 124.782 239.872 124.858 240.008 125.01C240.144 125.162 240.212 125.37 240.212 125.634ZM248 117.659C248 118.243 247.832 118.711 247.496 119.063C247.152 119.407 246.7 119.579 246.14 119.579L240.224 119.579L240.224 121.859L239.24 121.859L239.24 118.499L246.14 118.499C246.412 118.499 246.628 118.423 246.788 118.271C246.94 118.119 247.016 117.915 247.016 117.659L247.016 115.619L248 115.619L248 117.659ZM248 114.003L247.016 114.003L247.016 111.663L242.384 111.663L242.384 113.763L241.4 113.763L241.4 110.583L247.016 110.583L247.016 108.363L248 108.363L248 114.003ZM240.212 111.243C240.212 111.507 240.144 111.715 240.008 111.867C239.872 112.019 239.688 112.095 239.456 112.095C239.216 112.095 239.028 112.019 238.892 111.867C238.748 111.715 238.676 111.507 238.676 111.243C238.676 110.979 238.748 110.771 238.892 110.619C239.028 110.467 239.216 110.391 239.456 110.391C239.688 110.391 239.872 110.467 240.008 110.619C240.144 110.771 240.212 110.979 240.212 111.243ZM248 106.724L241.4 106.724L241.4 105.644L242.66 105.644L242.66 105.632C242.22 105.576 241.88 105.396 241.64 105.092C241.4 104.788 241.28 104.384 241.28 103.88C241.28 103.216 241.484 102.688 241.892 102.296C242.3 101.904 242.856 101.708 243.56 101.708L248 101.708L248 102.788L243.752 102.788C243.248 102.788 242.864 102.916 242.6 103.172C242.328 103.42 242.192 103.76 242.192 104.192C242.192 104.64 242.332 104.996 242.612 105.26C242.892 105.516 243.288 105.644 243.8 105.644L248 105.644L248 106.724ZM250.16 98.7008L249.176 98.7008L249.176 96.8408C249.176 96.4648 249.068 96.1688 248.852 95.9528C248.644 95.7368 248.36 95.6288 248 95.6288L247.4 95.6288L246.32 95.6048L246.32 95.6408C246.712 95.7048 247.016 95.8928 247.232 96.2048C247.44 96.5168 247.544 96.9088 247.544 97.3808C247.544 98.0608 247.328 98.5968 246.896 98.9888C246.464 99.3808 245.872 99.5768 245.12 99.5768L243.728 99.5768C242.976 99.5768 242.38 99.3808 241.94 98.9888C241.5 98.5968 241.28 98.0608 241.28 97.3808C241.28 96.9088 241.392 96.5168 241.616 96.2048C241.84 95.8928 242.148 95.7048 242.54 95.6408L242.54 95.6168L241.4 95.6168L241.4 94.5488L248 94.5488C248.664 94.5488 249.188 94.7568 249.572 95.1728C249.964 95.5808 250.16 96.1408 250.16 96.8528L250.16 98.7008ZM246.644 97.0568C246.644 96.6088 246.504 96.2568 246.224 96.0008C245.944 95.7448 245.556 95.6168 245.06 95.6168L243.8 95.6168C243.304 95.6168 242.916 95.7448 242.636 96.0008C242.356 96.2568 242.216 96.6088 242.216 97.0568C242.216 97.5128 242.348 97.8688 242.612 98.1248C242.876 98.3728 243.232 98.4968 243.68 98.4968L245.18 98.4968C245.628 98.4968 245.984 98.3728 246.248 98.1248C246.512 97.8688 246.644 97.5128 246.644 97.0568Z" fill="#0DC267"/>
<path d="M98.984 216.12C98.488 216.12 98.08 216 97.76 215.76C97.44 215.512 97.252 215.172 97.196 214.74H97.184V216H96.104V207.24H97.184V209.16L97.16 210.66H97.172C97.236 210.236 97.428 209.9 97.748 209.652C98.076 209.404 98.488 209.28 98.984 209.28C99.648 209.28 100.176 209.5 100.568 209.94C100.96 210.38 101.156 210.98 101.156 211.74V213.672C101.156 214.424 100.96 215.02 100.568 215.46C100.176 215.9 99.648 216.12 98.984 216.12ZM98.624 215.184C99.08 215.184 99.436 215.064 99.692 214.824C99.948 214.584 100.076 214.196 100.076 213.66V211.74C100.076 211.196 99.948 210.808 99.692 210.576C99.436 210.336 99.08 210.216 98.624 210.216C98.184 210.216 97.832 210.356 97.568 210.636C97.312 210.916 97.184 211.304 97.184 211.8V213.6C97.184 214.096 97.312 214.484 97.568 214.764C97.832 215.044 98.184 215.184 98.624 215.184ZM105.795 216.096C105.003 216.096 104.371 215.864 103.899 215.4C103.435 214.936 103.203 214.288 103.203 213.456V211.944C103.203 211.104 103.435 210.456 103.899 210C104.363 209.536 104.995 209.304 105.795 209.304C106.595 209.304 107.227 209.536 107.691 210C108.155 210.456 108.387 211.104 108.387 211.944V213.456C108.387 214.288 108.151 214.936 107.679 215.4C107.215 215.864 106.587 216.096 105.795 216.096ZM105.795 215.136C106.267 215.136 106.635 215.004 106.899 214.74C107.171 214.476 107.307 214.088 107.307 213.576V211.824C107.307 211.312 107.171 210.924 106.899 210.66C106.635 210.396 106.267 210.264 105.795 210.264C105.331 210.264 104.963 210.396 104.691 210.66C104.419 210.924 104.283 211.312 104.283 211.824V213.576C104.283 214.088 104.419 214.476 104.691 214.74C104.963 215.004 105.331 215.136 105.795 215.136ZM113.651 216C113.107 216 112.671 215.844 112.343 215.532C112.015 215.212 111.851 214.788 111.851 214.26V210.384H109.955V209.4H111.851V207.54H112.931V209.4H115.631V210.384H112.931V214.26C112.931 214.484 112.995 214.668 113.123 214.812C113.259 214.948 113.435 215.016 113.651 215.016H115.571V216H113.651ZM120.846 216C120.302 216 119.866 215.844 119.538 215.532C119.21 215.212 119.046 214.788 119.046 214.26V210.384H117.15V209.4H119.046V207.54H120.126V209.4H122.826V210.384H120.126V214.26C120.126 214.484 120.19 214.668 120.318 214.812C120.454 214.948 120.63 215.016 120.846 215.016H122.766V216H120.846ZM127.381 216.096C126.589 216.096 125.957 215.864 125.485 215.4C125.021 214.936 124.789 214.288 124.789 213.456V211.944C124.789 211.104 125.021 210.456 125.485 210C125.949 209.536 126.581 209.304 127.381 209.304C128.181 209.304 128.813 209.536 129.277 210C129.741 210.456 129.973 211.104 129.973 211.944V213.456C129.973 214.288 129.737 214.936 129.265 215.4C128.801 215.864 128.173 216.096 127.381 216.096ZM127.381 215.136C127.853 215.136 128.221 215.004 128.485 214.74C128.757 214.476 128.893 214.088 128.893 213.576V211.824C128.893 211.312 128.757 210.924 128.485 210.66C128.221 210.396 127.853 210.264 127.381 210.264C126.917 210.264 126.549 210.396 126.277 210.66C126.005 210.924 125.869 211.312 125.869 211.824V213.576C125.869 214.088 126.005 214.476 126.277 214.74C126.549 215.004 126.917 215.136 127.381 215.136ZM131.697 216V209.4H132.633V210.276H132.657C132.697 209.98 132.813 209.74 133.005 209.556C133.205 209.372 133.457 209.28 133.761 209.28C134.049 209.28 134.293 209.364 134.493 209.532C134.693 209.7 134.837 209.928 134.925 210.216H134.937C134.993 209.928 135.117 209.7 135.309 209.532C135.509 209.364 135.761 209.28 136.065 209.28C136.489 209.28 136.825 209.44 137.073 209.76C137.329 210.072 137.457 210.48 137.457 210.984V216H136.449V210.972C136.449 210.708 136.385 210.5 136.257 210.348C136.129 210.188 135.953 210.108 135.729 210.108C135.513 210.108 135.341 210.184 135.213 210.336C135.085 210.488 135.021 210.696 135.021 210.96V216H134.133V210.972C134.133 210.708 134.069 210.5 133.941 210.348C133.813 210.188 133.641 210.108 133.425 210.108C133.201 210.108 133.025 210.184 132.897 210.336C132.769 210.488 132.705 210.696 132.705 210.96V216H131.697Z" fill="#0070FF"/>
</svg>
