<svg width="200" height="232" viewBox="0 0 200 232" fill="none" xmlns="http://www.w3.org/2000/svg">
<rect x="36.5" y="51.5" width="53" height="106" stroke="#EBE9E9"/>
<rect x="27.5" y="60.5" width="71" height="88" stroke="#BEBEBE"/>
<rect x="18.5" y="72.5" width="88" height="65" stroke="#777777"/>
<rect x="0.5" y="32.5" width="199" height="199" stroke="black"/>
<rect x="11.5" y="85.5" width="103" height="38" stroke="black"/>
<path d="M60 100L67 107" stroke="black"/>
<path d="M67 100L60 107" stroke="black"/>
<path d="M0.6 12L2.94 8.604L0.744 5.4H2.016L3.324 7.44C3.38 7.528 3.432 7.624 3.48 7.728C3.536 7.832 3.58 7.916 3.612 7.98C3.636 7.916 3.672 7.832 3.72 7.728C3.776 7.624 3.832 7.528 3.888 7.44L5.196 5.4H6.468L4.272 8.616L6.6 12H5.328L3.912 9.84C3.856 9.752 3.8 9.652 3.744 9.54C3.696 9.42 3.652 9.324 3.612 9.252C3.58 9.324 3.532 9.42 3.468 9.54C3.412 9.652 3.352 9.752 3.288 9.84L1.872 12H0.6ZM10.7953 7.056C10.4673 7.056 10.2193 6.976 10.0513 6.816C9.88331 6.656 9.79931 6.44 9.79931 6.168C9.79931 5.896 9.88331 5.68 10.0513 5.52C10.2193 5.36 10.4673 5.28 10.7953 5.28C11.1233 5.28 11.3713 5.36 11.5393 5.52C11.7073 5.68 11.7913 5.896 11.7913 6.168C11.7913 6.44 11.7073 6.656 11.5393 6.816C11.3713 6.976 11.1233 7.056 10.7953 7.056ZM10.7953 12.12C10.4673 12.12 10.2193 12.04 10.0513 11.88C9.88331 11.72 9.79931 11.504 9.79931 11.232C9.79931 10.96 9.88331 10.744 10.0513 10.584C10.2193 10.424 10.4673 10.344 10.7953 10.344C11.1233 10.344 11.3713 10.424 11.5393 10.584C11.7073 10.744 11.7913 10.96 11.7913 11.232C11.7913 11.504 11.7073 11.72 11.5393 11.88C11.3713 12.04 11.1233 12.12 10.7953 12.12ZM17.9906 12.12C17.1826 12.12 16.5386 11.888 16.0586 11.424C15.5866 10.952 15.3506 10.324 15.3506 9.54V5.7C15.3506 4.916 15.5866 4.292 16.0586 3.828C16.5386 3.356 17.1826 3.12 17.9906 3.12C18.7986 3.12 19.4386 3.356 19.9106 3.828C20.3906 4.292 20.6306 4.916 20.6306 5.7V9.54C20.6306 10.06 20.5226 10.516 20.3066 10.908C20.0906 11.292 19.7826 11.592 19.3826 11.808C18.9906 12.016 18.5266 12.12 17.9906 12.12ZM17.9906 11.196C18.4706 11.196 18.8546 11.044 19.1426 10.74C19.4386 10.428 19.5866 10.028 19.5866 9.54V5.7C19.5866 5.212 19.4386 4.816 19.1426 4.512C18.8546 4.2 18.4706 4.044 17.9906 4.044C17.5106 4.044 17.1226 4.2 16.8266 4.512C16.5386 4.816 16.3946 5.212 16.3946 5.7V9.54C16.3946 10.028 16.5386 10.428 16.8266 10.74C17.1226 11.044 17.5106 11.196 17.9906 11.196ZM17.9906 8.28C17.7746 8.28 17.5986 8.22 17.4626 8.1C17.3346 7.98 17.2706 7.808 17.2706 7.584C17.2706 7.368 17.3346 7.204 17.4626 7.092C17.5986 6.972 17.7746 6.912 17.9906 6.912C18.2066 6.912 18.3786 6.972 18.5066 7.092C18.6426 7.204 18.7106 7.368 18.7106 7.584C18.7106 7.808 18.6426 7.98 18.5066 8.1C18.3786 8.22 18.2066 8.28 17.9906 8.28ZM30.9173 14.16L31.8893 11.592L29.4293 5.4H30.5933L32.1533 9.48C32.2173 9.64 32.2773 9.808 32.3333 9.984C32.3893 10.16 32.4293 10.312 32.4533 10.44C32.4773 10.312 32.5173 10.16 32.5733 9.984C32.6293 9.808 32.6853 9.64 32.7413 9.48L34.1933 5.4H35.3333L32.0453 14.16H30.9173ZM39.5766 7.056C39.2486 7.056 39.0006 6.976 38.8326 6.816C38.6646 6.656 38.5806 6.44 38.5806 6.168C38.5806 5.896 38.6646 5.68 38.8326 5.52C39.0006 5.36 39.2486 5.28 39.5766 5.28C39.9046 5.28 40.1526 5.36 40.3206 5.52C40.4886 5.68 40.5726 5.896 40.5726 6.168C40.5726 6.44 40.4886 6.656 40.3206 6.816C40.1526 6.976 39.9046 7.056 39.5766 7.056ZM39.5766 12.12C39.2486 12.12 39.0006 12.04 38.8326 11.88C38.6646 11.72 38.5806 11.504 38.5806 11.232C38.5806 10.96 38.6646 10.744 38.8326 10.584C39.0006 10.424 39.2486 10.344 39.5766 10.344C39.9046 10.344 40.1526 10.424 40.3206 10.584C40.4886 10.744 40.5726 10.96 40.5726 11.232C40.5726 11.504 40.4886 11.72 40.3206 11.88C40.1526 12.04 39.9046 12.12 39.5766 12.12ZM46.7719 12.12C45.9639 12.12 45.3199 11.888 44.8399 11.424C44.3679 10.952 44.1319 10.324 44.1319 9.54V5.7C44.1319 4.916 44.3679 4.292 44.8399 3.828C45.3199 3.356 45.9639 3.12 46.7719 3.12C47.5799 3.12 48.2199 3.356 48.6919 3.828C49.1719 4.292 49.4119 4.916 49.4119 5.7V9.54C49.4119 10.06 49.3039 10.516 49.0879 10.908C48.8719 11.292 48.5639 11.592 48.1639 11.808C47.7719 12.016 47.3079 12.12 46.7719 12.12ZM46.7719 11.196C47.2519 11.196 47.6359 11.044 47.9239 10.74C48.2199 10.428 48.3679 10.028 48.3679 9.54V5.7C48.3679 5.212 48.2199 4.816 47.9239 4.512C47.6359 4.2 47.2519 4.044 46.7719 4.044C46.2919 4.044 45.9039 4.2 45.6079 4.512C45.3199 4.816 45.1759 5.212 45.1759 5.7V9.54C45.1759 10.028 45.3199 10.428 45.6079 10.74C45.9039 11.044 46.2919 11.196 46.7719 11.196ZM46.7719 8.28C46.5559 8.28 46.3799 8.22 46.2439 8.1C46.1159 7.98 46.0519 7.808 46.0519 7.584C46.0519 7.368 46.1159 7.204 46.2439 7.092C46.3799 6.972 46.5559 6.912 46.7719 6.912C46.9879 6.912 47.1599 6.972 47.2879 7.092C47.4239 7.204 47.4919 7.368 47.4919 7.584C47.4919 7.808 47.4239 7.98 47.2879 8.1C47.1599 8.22 46.9879 8.28 46.7719 8.28ZM1.452 28L0.372 21.4H1.308L1.98 26.056C2.004 26.232 2.028 26.428 2.052 26.644C2.076 26.852 2.092 27.024 2.1 27.16C2.116 27.024 2.132 26.852 2.148 26.644C2.172 26.428 2.2 26.232 2.232 26.056L3.06 21.4H4.14L4.968 26.056C5 26.232 5.028 26.428 5.052 26.644C5.084 26.852 5.104 27.024 5.112 27.16C5.128 27.024 5.148 26.852 5.172 26.644C5.196 26.428 5.22 26.232 5.244 26.056L5.94 21.4H6.828L5.7 28H4.512L3.756 23.44C3.724 23.216 3.692 22.98 3.66 22.732C3.636 22.476 3.616 22.28 3.6 22.144C3.592 22.28 3.572 22.476 3.54 22.732C3.508 22.98 3.472 23.216 3.432 23.44L2.64 28H1.452ZM10.7953 23.056C10.4673 23.056 10.2193 22.976 10.0513 22.816C9.88331 22.656 9.79931 22.44 9.79931 22.168C9.79931 21.896 9.88331 21.68 10.0513 21.52C10.2193 21.36 10.4673 21.28 10.7953 21.28C11.1233 21.28 11.3713 21.36 11.5393 21.52C11.7073 21.68 11.7913 21.896 11.7913 22.168C11.7913 22.44 11.7073 22.656 11.5393 22.816C11.3713 22.976 11.1233 23.056 10.7953 23.056ZM10.7953 28.12C10.4673 28.12 10.2193 28.04 10.0513 27.88C9.88331 27.72 9.79931 27.504 9.79931 27.232C9.79931 26.96 9.88331 26.744 10.0513 26.584C10.2193 26.424 10.4673 26.344 10.7953 26.344C11.1233 26.344 11.3713 26.424 11.5393 26.584C11.7073 26.744 11.7913 26.96 11.7913 27.232C11.7913 27.504 11.7073 27.72 11.5393 27.88C11.3713 28.04 11.1233 28.12 10.7953 28.12ZM15.4226 28V27.004L18.3386 23.884C18.7626 23.436 19.0626 23.036 19.2386 22.684C19.4146 22.332 19.5026 21.988 19.5026 21.652C19.5026 21.172 19.3626 20.792 19.0826 20.512C18.8106 20.224 18.4386 20.08 17.9666 20.08C17.4786 20.08 17.0906 20.228 16.8026 20.524C16.5226 20.812 16.3826 21.204 16.3826 21.7H15.3026C15.3266 20.908 15.5786 20.28 16.0586 19.816C16.5386 19.352 17.1746 19.12 17.9666 19.12C18.7746 19.12 19.4146 19.348 19.8866 19.804C20.3666 20.26 20.6066 20.88 20.6066 21.664C20.6066 22.08 20.4906 22.52 20.2586 22.984C20.0346 23.448 19.6466 23.968 19.0946 24.544L16.7306 27.016H20.7146V28H15.4226ZM25.1859 28.12C24.3779 28.12 23.7339 27.888 23.2539 27.424C22.7819 26.952 22.5459 26.324 22.5459 25.54V21.7C22.5459 20.916 22.7819 20.292 23.2539 19.828C23.7339 19.356 24.3779 19.12 25.1859 19.12C25.9939 19.12 26.6339 19.356 27.1059 19.828C27.5859 20.292 27.8259 20.916 27.8259 21.7V25.54C27.8259 26.06 27.7179 26.516 27.5019 26.908C27.2859 27.292 26.9779 27.592 26.5779 27.808C26.1859 28.016 25.7219 28.12 25.1859 28.12ZM25.1859 27.196C25.6659 27.196 26.0499 27.044 26.3379 26.74C26.6339 26.428 26.7819 26.028 26.7819 25.54V21.7C26.7819 21.212 26.6339 20.816 26.3379 20.512C26.0499 20.2 25.6659 20.044 25.1859 20.044C24.7059 20.044 24.3179 20.2 24.0219 20.512C23.7339 20.816 23.5899 21.212 23.5899 21.7V25.54C23.5899 26.028 23.7339 26.428 24.0219 26.74C24.3179 27.044 24.7059 27.196 25.1859 27.196ZM25.1859 24.28C24.9699 24.28 24.7939 24.22 24.6579 24.1C24.5299 23.98 24.4659 23.808 24.4659 23.584C24.4659 23.368 24.5299 23.204 24.6579 23.092C24.7939 22.972 24.9699 22.912 25.1859 22.912C25.4019 22.912 25.5739 22.972 25.7019 23.092C25.8379 23.204 25.9059 23.368 25.9059 23.584C25.9059 23.808 25.8379 23.98 25.7019 24.1C25.5739 24.22 25.4019 24.28 25.1859 24.28ZM32.3813 28.12C31.5733 28.12 30.9293 27.888 30.4493 27.424C29.9773 26.952 29.7413 26.324 29.7413 25.54V21.7C29.7413 20.916 29.9773 20.292 30.4493 19.828C30.9293 19.356 31.5733 19.12 32.3813 19.12C33.1893 19.12 33.8293 19.356 34.3013 19.828C34.7813 20.292 35.0213 20.916 35.0213 21.7V25.54C35.0213 26.06 34.9133 26.516 34.6973 26.908C34.4813 27.292 34.1733 27.592 33.7733 27.808C33.3813 28.016 32.9173 28.12 32.3813 28.12ZM32.3813 27.196C32.8613 27.196 33.2453 27.044 33.5333 26.74C33.8293 26.428 33.9773 26.028 33.9773 25.54V21.7C33.9773 21.212 33.8293 20.816 33.5333 20.512C33.2453 20.2 32.8613 20.044 32.3813 20.044C31.9013 20.044 31.5133 20.2 31.2173 20.512C30.9293 20.816 30.7853 21.212 30.7853 21.7V25.54C30.7853 26.028 30.9293 26.428 31.2173 26.74C31.5133 27.044 31.9013 27.196 32.3813 27.196ZM32.3813 24.28C32.1653 24.28 31.9893 24.22 31.8533 24.1C31.7253 23.98 31.6613 23.808 31.6613 23.584C31.6613 23.368 31.7253 23.204 31.8533 23.092C31.9893 22.972 32.1653 22.912 32.3813 22.912C32.5973 22.912 32.7693 22.972 32.8973 23.092C33.0333 23.204 33.1013 23.368 33.1013 23.584C33.1013 23.808 33.0333 23.98 32.8973 24.1C32.7693 24.22 32.5973 24.28 32.3813 24.28ZM44.2759 28V19.24H45.3559V22.66H45.3679C45.4239 22.22 45.6039 21.88 45.9079 21.64C46.2119 21.4 46.6159 21.28 47.1199 21.28C47.7839 21.28 48.3119 21.484 48.7039 21.892C49.0959 22.3 49.2919 22.856 49.2919 23.56V28H48.2119V23.74C48.2119 23.244 48.0839 22.864 47.8279 22.6C47.5799 22.328 47.2399 22.192 46.8079 22.192C46.3599 22.192 46.0039 22.332 45.7399 22.612C45.4839 22.892 45.3559 23.288 45.3559 23.8V28H44.2759ZM53.9672 23.056C53.6392 23.056 53.3912 22.976 53.2232 22.816C53.0552 22.656 52.9712 22.44 52.9712 22.168C52.9712 21.896 53.0552 21.68 53.2232 21.52C53.3912 21.36 53.6392 21.28 53.9672 21.28C54.2952 21.28 54.5432 21.36 54.7112 21.52C54.8792 21.68 54.9632 21.896 54.9632 22.168C54.9632 22.44 54.8792 22.656 54.7112 22.816C54.5432 22.976 54.2952 23.056 53.9672 23.056ZM53.9672 28.12C53.6392 28.12 53.3912 28.04 53.2232 27.88C53.0552 27.72 52.9712 27.504 52.9712 27.232C52.9712 26.96 53.0552 26.744 53.2232 26.584C53.3912 26.424 53.6392 26.344 53.9672 26.344C54.2952 26.344 54.5432 26.424 54.7112 26.584C54.8792 26.744 54.9632 26.96 54.9632 27.232C54.9632 27.504 54.8792 27.72 54.7112 27.88C54.5432 28.04 54.2952 28.12 53.9672 28.12ZM58.5945 28V27.004L61.5105 23.884C61.9345 23.436 62.2345 23.036 62.4105 22.684C62.5865 22.332 62.6745 21.988 62.6745 21.652C62.6745 21.172 62.5345 20.792 62.2545 20.512C61.9825 20.224 61.6105 20.08 61.1385 20.08C60.6505 20.08 60.2625 20.228 59.9745 20.524C59.6945 20.812 59.5545 21.204 59.5545 21.7H58.4745C58.4985 20.908 58.7505 20.28 59.2305 19.816C59.7105 19.352 60.3465 19.12 61.1385 19.12C61.9465 19.12 62.5865 19.348 63.0585 19.804C63.5385 20.26 63.7785 20.88 63.7785 21.664C63.7785 22.08 63.6625 22.52 63.4305 22.984C63.2065 23.448 62.8185 23.968 62.2665 24.544L59.9025 27.016H63.8865V28H58.5945ZM68.3578 28.12C67.5498 28.12 66.9058 27.888 66.4258 27.424C65.9538 26.952 65.7178 26.324 65.7178 25.54V21.7C65.7178 20.916 65.9538 20.292 66.4258 19.828C66.9058 19.356 67.5498 19.12 68.3578 19.12C69.1658 19.12 69.8058 19.356 70.2778 19.828C70.7578 20.292 70.9978 20.916 70.9978 21.7V25.54C70.9978 26.06 70.8898 26.516 70.6738 26.908C70.4578 27.292 70.1498 27.592 69.7498 27.808C69.3578 28.016 68.8938 28.12 68.3578 28.12ZM68.3578 27.196C68.8378 27.196 69.2218 27.044 69.5098 26.74C69.8058 26.428 69.9538 26.028 69.9538 25.54V21.7C69.9538 21.212 69.8058 20.816 69.5098 20.512C69.2218 20.2 68.8378 20.044 68.3578 20.044C67.8778 20.044 67.4898 20.2 67.1938 20.512C66.9058 20.816 66.7618 21.212 66.7618 21.7V25.54C66.7618 26.028 66.9058 26.428 67.1938 26.74C67.4898 27.044 67.8778 27.196 68.3578 27.196ZM68.3578 24.28C68.1418 24.28 67.9658 24.22 67.8298 24.1C67.7018 23.98 67.6378 23.808 67.6378 23.584C67.6378 23.368 67.7018 23.204 67.8298 23.092C67.9658 22.972 68.1418 22.912 68.3578 22.912C68.5738 22.912 68.7458 22.972 68.8738 23.092C69.0098 23.204 69.0778 23.368 69.0778 23.584C69.0778 23.808 69.0098 23.98 68.8738 24.1C68.7458 24.22 68.5738 24.28 68.3578 24.28ZM75.5531 28.12C74.7451 28.12 74.1011 27.888 73.6211 27.424C73.1491 26.952 72.9131 26.324 72.9131 25.54V21.7C72.9131 20.916 73.1491 20.292 73.6211 19.828C74.1011 19.356 74.7451 19.12 75.5531 19.12C76.3611 19.12 77.0011 19.356 77.4731 19.828C77.9531 20.292 78.1931 20.916 78.1931 21.7V25.54C78.1931 26.06 78.0851 26.516 77.8691 26.908C77.6531 27.292 77.3451 27.592 76.9451 27.808C76.5531 28.016 76.0891 28.12 75.5531 28.12ZM75.5531 27.196C76.0331 27.196 76.4171 27.044 76.7051 26.74C77.0011 26.428 77.1491 26.028 77.1491 25.54V21.7C77.1491 21.212 77.0011 20.816 76.7051 20.512C76.4171 20.2 76.0331 20.044 75.5531 20.044C75.0731 20.044 74.6851 20.2 74.3891 20.512C74.1011 20.816 73.9571 21.212 73.9571 21.7V25.54C73.9571 26.028 74.1011 26.428 74.3891 26.74C74.6851 27.044 75.0731 27.196 75.5531 27.196ZM75.5531 24.28C75.3371 24.28 75.1611 24.22 75.0251 24.1C74.8971 23.98 74.8331 23.808 74.8331 23.584C74.8331 23.368 74.8971 23.204 75.0251 23.092C75.1611 22.972 75.3371 22.912 75.5531 22.912C75.7691 22.912 75.9411 22.972 76.0691 23.092C76.2051 23.204 76.2731 23.368 76.2731 23.584C76.2731 23.808 76.2051 23.98 76.0691 24.1C75.9411 24.22 75.7691 24.28 75.5531 24.28Z" fill="black"/>
<path d="M64.6 65L66.94 61.604L64.744 58.4H66.016L67.324 60.44C67.38 60.528 67.432 60.624 67.48 60.728C67.536 60.832 67.58 60.916 67.612 60.98C67.636 60.916 67.672 60.832 67.72 60.728C67.776 60.624 67.832 60.528 67.888 60.44L69.196 58.4H70.468L68.272 61.616L70.6 65H69.328L67.912 62.84C67.856 62.752 67.8 62.652 67.744 62.54C67.696 62.42 67.652 62.324 67.612 62.252C67.58 62.324 67.532 62.42 67.468 62.54C67.412 62.652 67.352 62.752 67.288 62.84L65.872 65H64.6ZM74.7953 60.056C74.4673 60.056 74.2193 59.976 74.0513 59.816C73.8833 59.656 73.7993 59.44 73.7993 59.168C73.7993 58.896 73.8833 58.68 74.0513 58.52C74.2193 58.36 74.4673 58.28 74.7953 58.28C75.1233 58.28 75.3713 58.36 75.5393 58.52C75.7073 58.68 75.7913 58.896 75.7913 59.168C75.7913 59.44 75.7073 59.656 75.5393 59.816C75.3713 59.976 75.1233 60.056 74.7953 60.056ZM74.7953 65.12C74.4673 65.12 74.2193 65.04 74.0513 64.88C73.8833 64.72 73.7993 64.504 73.7993 64.232C73.7993 63.96 73.8833 63.744 74.0513 63.584C74.2193 63.424 74.4673 63.344 74.7953 63.344C75.1233 63.344 75.3713 63.424 75.5393 63.584C75.7073 63.744 75.7913 63.96 75.7913 64.232C75.7913 64.504 75.7073 64.72 75.5393 64.88C75.3713 65.04 75.1233 65.12 74.7953 65.12ZM82.0026 65.12C81.4426 65.12 80.9466 65.004 80.5146 64.772C80.0906 64.532 79.7586 64.204 79.5186 63.788C79.2786 63.364 79.1586 62.876 79.1586 62.324C79.1586 61.94 79.2306 61.548 79.3746 61.148C79.5186 60.74 79.7146 60.316 79.9626 59.876L81.9906 56.24H83.1906L81.0306 59.996L81.0666 60.02C81.1706 59.884 81.3266 59.78 81.5346 59.708C81.7426 59.636 81.9706 59.6 82.2186 59.6C82.7386 59.6 83.1906 59.716 83.5746 59.948C83.9666 60.172 84.2706 60.484 84.4866 60.884C84.7106 61.284 84.8226 61.748 84.8226 62.276C84.8226 62.836 84.7026 63.332 84.4626 63.764C84.2226 64.188 83.8906 64.52 83.4666 64.76C83.0506 65 82.5626 65.12 82.0026 65.12ZM81.9906 64.16C82.5106 64.16 82.9306 63.988 83.2506 63.644C83.5786 63.3 83.7426 62.852 83.7426 62.3C83.7426 61.748 83.5786 61.3 83.2506 60.956C82.9306 60.612 82.5106 60.44 81.9906 60.44C81.4706 60.44 81.0466 60.612 80.7186 60.956C80.3986 61.3 80.2386 61.748 80.2386 62.3C80.2386 62.852 80.3986 63.3 80.7186 63.644C81.0466 63.988 81.4706 64.16 81.9906 64.16ZM89.1859 65.12C88.3779 65.12 87.7339 64.888 87.2539 64.424C86.7819 63.952 86.5459 63.324 86.5459 62.54V58.7C86.5459 57.916 86.7819 57.292 87.2539 56.828C87.7339 56.356 88.3779 56.12 89.1859 56.12C89.9939 56.12 90.6339 56.356 91.1059 56.828C91.5859 57.292 91.8259 57.916 91.8259 58.7V62.54C91.8259 63.06 91.7179 63.516 91.5019 63.908C91.2859 64.292 90.9779 64.592 90.5779 64.808C90.1859 65.016 89.7219 65.12 89.1859 65.12ZM89.1859 64.196C89.6659 64.196 90.0499 64.044 90.3379 63.74C90.6339 63.428 90.7819 63.028 90.7819 62.54V58.7C90.7819 58.212 90.6339 57.816 90.3379 57.512C90.0499 57.2 89.6659 57.044 89.1859 57.044C88.7059 57.044 88.3179 57.2 88.0219 57.512C87.7339 57.816 87.5899 58.212 87.5899 58.7V62.54C87.5899 63.028 87.7339 63.428 88.0219 63.74C88.3179 64.044 88.7059 64.196 89.1859 64.196ZM89.1859 61.28C88.9699 61.28 88.7939 61.22 88.6579 61.1C88.5299 60.98 88.4659 60.808 88.4659 60.584C88.4659 60.368 88.5299 60.204 88.6579 60.092C88.7939 59.972 88.9699 59.912 89.1859 59.912C89.4019 59.912 89.5739 59.972 89.7019 60.092C89.8379 60.204 89.9059 60.368 89.9059 60.584C89.9059 60.808 89.8379 60.98 89.7019 61.1C89.5739 61.22 89.4019 61.28 89.1859 61.28ZM102.113 67.16L103.085 64.592L100.625 58.4H101.789L103.349 62.48C103.413 62.64 103.473 62.808 103.529 62.984C103.585 63.16 103.625 63.312 103.649 63.44C103.673 63.312 103.713 63.16 103.769 62.984C103.825 62.808 103.881 62.64 103.937 62.48L105.389 58.4H106.529L103.241 67.16H102.113ZM110.772 60.056C110.444 60.056 110.196 59.976 110.028 59.816C109.86 59.656 109.776 59.44 109.776 59.168C109.776 58.896 109.86 58.68 110.028 58.52C110.196 58.36 110.444 58.28 110.772 58.28C111.1 58.28 111.348 58.36 111.516 58.52C111.684 58.68 111.768 58.896 111.768 59.168C111.768 59.44 111.684 59.656 111.516 59.816C111.348 59.976 111.1 60.056 110.772 60.056ZM110.772 65.12C110.444 65.12 110.196 65.04 110.028 64.88C109.86 64.72 109.776 64.504 109.776 64.232C109.776 63.96 109.86 63.744 110.028 63.584C110.196 63.424 110.444 63.344 110.772 63.344C111.1 63.344 111.348 63.424 111.516 63.584C111.684 63.744 111.768 63.96 111.768 64.232C111.768 64.504 111.684 64.72 111.516 64.88C111.348 65.04 111.1 65.12 110.772 65.12ZM116.647 65L119.767 57.224H116.431V58.64H115.351V56.24H120.919V57.248L117.823 65H116.647ZM125.163 65.12C124.355 65.12 123.711 64.888 123.231 64.424C122.759 63.952 122.523 63.324 122.523 62.54V58.7C122.523 57.916 122.759 57.292 123.231 56.828C123.711 56.356 124.355 56.12 125.163 56.12C125.971 56.12 126.611 56.356 127.083 56.828C127.563 57.292 127.803 57.916 127.803 58.7V62.54C127.803 63.06 127.695 63.516 127.479 63.908C127.263 64.292 126.955 64.592 126.555 64.808C126.163 65.016 125.699 65.12 125.163 65.12ZM125.163 64.196C125.643 64.196 126.027 64.044 126.315 63.74C126.611 63.428 126.759 63.028 126.759 62.54V58.7C126.759 58.212 126.611 57.816 126.315 57.512C126.027 57.2 125.643 57.044 125.163 57.044C124.683 57.044 124.295 57.2 123.999 57.512C123.711 57.816 123.567 58.212 123.567 58.7V62.54C123.567 63.028 123.711 63.428 123.999 63.74C124.295 64.044 124.683 64.196 125.163 64.196ZM125.163 61.28C124.947 61.28 124.771 61.22 124.635 61.1C124.507 60.98 124.443 60.808 124.443 60.584C124.443 60.368 124.507 60.204 124.635 60.092C124.771 59.972 124.947 59.912 125.163 59.912C125.379 59.912 125.551 59.972 125.679 60.092C125.815 60.204 125.883 60.368 125.883 60.584C125.883 60.808 125.815 60.98 125.679 61.1C125.551 61.22 125.379 61.28 125.163 61.28ZM67.024 81.12C66.344 81.12 65.804 80.932 65.404 80.556C65.004 80.172 64.804 79.672 64.804 79.056C64.804 78.648 64.896 78.292 65.08 77.988C65.264 77.684 65.52 77.448 65.848 77.28C66.176 77.104 66.552 77.016 66.976 77.016H69.016V76.5C69.016 75.644 68.548 75.216 67.612 75.216C67.196 75.216 66.86 75.292 66.604 75.444C66.348 75.596 66.212 75.808 66.196 76.08H65.116C65.156 75.56 65.396 75.132 65.836 74.796C66.284 74.452 66.876 74.28 67.612 74.28C68.412 74.28 69.024 74.472 69.448 74.856C69.88 75.24 70.096 75.776 70.096 76.464V81H69.028V79.8H69.004C68.94 80.208 68.736 80.532 68.392 80.772C68.048 81.004 67.592 81.12 67.024 81.12ZM67.288 80.208C67.816 80.208 68.236 80.08 68.548 79.824C68.86 79.568 69.016 79.22 69.016 78.78V77.856H67.096C66.744 77.856 66.456 77.964 66.232 78.18C66.016 78.388 65.908 78.668 65.908 79.02C65.908 79.388 66.028 79.68 66.268 79.896C66.516 80.104 66.856 80.208 67.288 80.208ZM74.7953 76.056C74.4673 76.056 74.2193 75.976 74.0513 75.816C73.8833 75.656 73.7993 75.44 73.7993 75.168C73.7993 74.896 73.8833 74.68 74.0513 74.52C74.2193 74.36 74.4673 74.28 74.7953 74.28C75.1233 74.28 75.3713 74.36 75.5393 74.52C75.7073 74.68 75.7913 74.896 75.7913 75.168C75.7913 75.44 75.7073 75.656 75.5393 75.816C75.3713 75.976 75.1233 76.056 74.7953 76.056ZM74.7953 81.12C74.4673 81.12 74.2193 81.04 74.0513 80.88C73.8833 80.72 73.7993 80.504 73.7993 80.232C73.7993 79.96 73.8833 79.744 74.0513 79.584C74.2193 79.424 74.4673 79.344 74.7953 79.344C75.1233 79.344 75.3713 79.424 75.5393 79.584C75.7073 79.744 75.7913 79.96 75.7913 80.232C75.7913 80.504 75.7073 80.72 75.5393 80.88C75.3713 81.04 75.1233 81.12 74.7953 81.12ZM89.1859 81.12C88.3779 81.12 87.7339 80.888 87.2539 80.424C86.7819 79.952 86.5459 79.324 86.5459 78.54V74.7C86.5459 73.916 86.7819 73.292 87.2539 72.828C87.7339 72.356 88.3779 72.12 89.1859 72.12C89.9939 72.12 90.6339 72.356 91.1059 72.828C91.5859 73.292 91.8259 73.916 91.8259 74.7V78.54C91.8259 79.06 91.7179 79.516 91.5019 79.908C91.2859 80.292 90.9779 80.592 90.5779 80.808C90.1859 81.016 89.7219 81.12 89.1859 81.12ZM89.1859 80.196C89.6659 80.196 90.0499 80.044 90.3379 79.74C90.6339 79.428 90.7819 79.028 90.7819 78.54V74.7C90.7819 74.212 90.6339 73.816 90.3379 73.512C90.0499 73.2 89.6659 73.044 89.1859 73.044C88.7059 73.044 88.3179 73.2 88.0219 73.512C87.7339 73.816 87.5899 74.212 87.5899 74.7V78.54C87.5899 79.028 87.7339 79.428 88.0219 79.74C88.3179 80.044 88.7059 80.196 89.1859 80.196ZM89.1859 77.28C88.9699 77.28 88.7939 77.22 88.6579 77.1C88.5299 76.98 88.4659 76.808 88.4659 76.584C88.4659 76.368 88.5299 76.204 88.6579 76.092C88.7939 75.972 88.9699 75.912 89.1859 75.912C89.4019 75.912 89.5739 75.972 89.7019 76.092C89.8379 76.204 89.9059 76.368 89.9059 76.584C89.9059 76.808 89.8379 76.98 89.7019 77.1C89.5739 77.22 89.4019 77.28 89.1859 77.28ZM95.3013 82.92L95.9613 79.248H97.2573L96.4173 82.92H95.3013ZM103.577 81.12C102.769 81.12 102.125 80.888 101.645 80.424C101.173 79.952 100.937 79.324 100.937 78.54V74.7C100.937 73.916 101.173 73.292 101.645 72.828C102.125 72.356 102.769 72.12 103.577 72.12C104.385 72.12 105.025 72.356 105.497 72.828C105.977 73.292 106.217 73.916 106.217 74.7V78.54C106.217 79.06 106.109 79.516 105.893 79.908C105.677 80.292 105.369 80.592 104.969 80.808C104.577 81.016 104.113 81.12 103.577 81.12ZM103.577 80.196C104.057 80.196 104.441 80.044 104.729 79.74C105.025 79.428 105.173 79.028 105.173 78.54V74.7C105.173 74.212 105.025 73.816 104.729 73.512C104.441 73.2 104.057 73.044 103.577 73.044C103.097 73.044 102.709 73.2 102.413 73.512C102.125 73.816 101.981 74.212 101.981 74.7V78.54C101.981 79.028 102.125 79.428 102.413 79.74C102.709 80.044 103.097 80.196 103.577 80.196ZM103.577 77.28C103.361 77.28 103.185 77.22 103.049 77.1C102.921 76.98 102.857 76.808 102.857 76.584C102.857 76.368 102.921 76.204 103.049 76.092C103.185 75.972 103.361 75.912 103.577 75.912C103.793 75.912 103.965 75.972 104.093 76.092C104.229 76.204 104.297 76.368 104.297 76.584C104.297 76.808 104.229 76.98 104.093 77.1C103.965 77.22 103.793 77.28 103.577 77.28Z" fill="black"/>
</svg>
