<svg width="200" height="232" viewBox="0 0 200 232" fill="none" xmlns="http://www.w3.org/2000/svg">
<rect x="36.5" y="103.5" width="53" height="106" stroke="#EBE9E9"/>
<rect x="27.5" y="103.5" width="71" height="88" stroke="#BEBEBE"/>
<rect x="18.5" y="103.5" width="88" height="65" stroke="#777777"/>
<rect x="0.5" y="32.5" width="199" height="199" stroke="black"/>
<rect x="11.5" y="103.5" width="103" height="38" stroke="black"/>
<path d="M60 100L67 107" stroke="black"/>
<path d="M67 100L60 107" stroke="black"/>
<path d="M0.6 12L2.94 8.604L0.744 5.4H2.016L3.324 7.44C3.38 7.528 3.432 7.624 3.48 7.728C3.536 7.832 3.58 7.916 3.612 7.98C3.636 7.916 3.672 7.832 3.72 7.728C3.776 7.624 3.832 7.528 3.888 7.44L5.196 5.4H6.468L4.272 8.616L6.6 12H5.328L3.912 9.84C3.856 9.752 3.8 9.652 3.744 9.54C3.696 9.42 3.652 9.324 3.612 9.252C3.58 9.324 3.532 9.42 3.468 9.54C3.412 9.652 3.352 9.752 3.288 9.84L1.872 12H0.6ZM10.7953 7.056C10.4673 7.056 10.2193 6.976 10.0513 6.816C9.88331 6.656 9.79931 6.44 9.79931 6.168C9.79931 5.896 9.88331 5.68 10.0513 5.52C10.2193 5.36 10.4673 5.28 10.7953 5.28C11.1233 5.28 11.3713 5.36 11.5393 5.52C11.7073 5.68 11.7913 5.896 11.7913 6.168C11.7913 6.44 11.7073 6.656 11.5393 6.816C11.3713 6.976 11.1233 7.056 10.7953 7.056ZM10.7953 12.12C10.4673 12.12 10.2193 12.04 10.0513 11.88C9.88331 11.72 9.79931 11.504 9.79931 11.232C9.79931 10.96 9.88331 10.744 10.0513 10.584C10.2193 10.424 10.4673 10.344 10.7953 10.344C11.1233 10.344 11.3713 10.424 11.5393 10.584C11.7073 10.744 11.7913 10.96 11.7913 11.232C11.7913 11.504 11.7073 11.72 11.5393 11.88C11.3713 12.04 11.1233 12.12 10.7953 12.12ZM17.9906 12.12C17.1826 12.12 16.5386 11.888 16.0586 11.424C15.5866 10.952 15.3506 10.324 15.3506 9.54V5.7C15.3506 4.916 15.5866 4.292 16.0586 3.828C16.5386 3.356 17.1826 3.12 17.9906 3.12C18.7986 3.12 19.4386 3.356 19.9106 3.828C20.3906 4.292 20.6306 4.916 20.6306 5.7V9.54C20.6306 10.06 20.5226 10.516 20.3066 10.908C20.0906 11.292 19.7826 11.592 19.3826 11.808C18.9906 12.016 18.5266 12.12 17.9906 12.12ZM17.9906 11.196C18.4706 11.196 18.8546 11.044 19.1426 10.74C19.4386 10.428 19.5866 10.028 19.5866 9.54V5.7C19.5866 5.212 19.4386 4.816 19.1426 4.512C18.8546 4.2 18.4706 4.044 17.9906 4.044C17.5106 4.044 17.1226 4.2 16.8266 4.512C16.5386 4.816 16.3946 5.212 16.3946 5.7V9.54C16.3946 10.028 16.5386 10.428 16.8266 10.74C17.1226 11.044 17.5106 11.196 17.9906 11.196ZM17.9906 8.28C17.7746 8.28 17.5986 8.22 17.4626 8.1C17.3346 7.98 17.2706 7.808 17.2706 7.584C17.2706 7.368 17.3346 7.204 17.4626 7.092C17.5986 6.972 17.7746 6.912 17.9906 6.912C18.2066 6.912 18.3786 6.972 18.5066 7.092C18.6426 7.204 18.7106 7.368 18.7106 7.584C18.7106 7.808 18.6426 7.98 18.5066 8.1C18.3786 8.22 18.2066 8.28 17.9906 8.28ZM30.9173 14.16L31.8893 11.592L29.4293 5.4H30.5933L32.1533 9.48C32.2173 9.64 32.2773 9.808 32.3333 9.984C32.3893 10.16 32.4293 10.312 32.4533 10.44C32.4773 10.312 32.5173 10.16 32.5733 9.984C32.6293 9.808 32.6853 9.64 32.7413 9.48L34.1933 5.4H35.3333L32.0453 14.16H30.9173ZM39.5766 7.056C39.2486 7.056 39.0006 6.976 38.8326 6.816C38.6646 6.656 38.5806 6.44 38.5806 6.168C38.5806 5.896 38.6646 5.68 38.8326 5.52C39.0006 5.36 39.2486 5.28 39.5766 5.28C39.9046 5.28 40.1526 5.36 40.3206 5.52C40.4886 5.68 40.5726 5.896 40.5726 6.168C40.5726 6.44 40.4886 6.656 40.3206 6.816C40.1526 6.976 39.9046 7.056 39.5766 7.056ZM39.5766 12.12C39.2486 12.12 39.0006 12.04 38.8326 11.88C38.6646 11.72 38.5806 11.504 38.5806 11.232C38.5806 10.96 38.6646 10.744 38.8326 10.584C39.0006 10.424 39.2486 10.344 39.5766 10.344C39.9046 10.344 40.1526 10.424 40.3206 10.584C40.4886 10.744 40.5726 10.96 40.5726 11.232C40.5726 11.504 40.4886 11.72 40.3206 11.88C40.1526 12.04 39.9046 12.12 39.5766 12.12ZM46.7719 12.12C45.9639 12.12 45.3199 11.888 44.8399 11.424C44.3679 10.952 44.1319 10.324 44.1319 9.54V5.7C44.1319 4.916 44.3679 4.292 44.8399 3.828C45.3199 3.356 45.9639 3.12 46.7719 3.12C47.5799 3.12 48.2199 3.356 48.6919 3.828C49.1719 4.292 49.4119 4.916 49.4119 5.7V9.54C49.4119 10.06 49.3039 10.516 49.0879 10.908C48.8719 11.292 48.5639 11.592 48.1639 11.808C47.7719 12.016 47.3079 12.12 46.7719 12.12ZM46.7719 11.196C47.2519 11.196 47.6359 11.044 47.9239 10.74C48.2199 10.428 48.3679 10.028 48.3679 9.54V5.7C48.3679 5.212 48.2199 4.816 47.9239 4.512C47.6359 4.2 47.2519 4.044 46.7719 4.044C46.2919 4.044 45.9039 4.2 45.6079 4.512C45.3199 4.816 45.1759 5.212 45.1759 5.7V9.54C45.1759 10.028 45.3199 10.428 45.6079 10.74C45.9039 11.044 46.2919 11.196 46.7719 11.196ZM46.7719 8.28C46.5559 8.28 46.3799 8.22 46.2439 8.1C46.1159 7.98 46.0519 7.808 46.0519 7.584C46.0519 7.368 46.1159 7.204 46.2439 7.092C46.3799 6.972 46.5559 6.912 46.7719 6.912C46.9879 6.912 47.1599 6.972 47.2879 7.092C47.4239 7.204 47.4919 7.368 47.4919 7.584C47.4919 7.808 47.4239 7.98 47.2879 8.1C47.1599 8.22 46.9879 8.28 46.7719 8.28ZM1.452 28L0.372 21.4H1.308L1.98 26.056C2.004 26.232 2.028 26.428 2.052 26.644C2.076 26.852 2.092 27.024 2.1 27.16C2.116 27.024 2.132 26.852 2.148 26.644C2.172 26.428 2.2 26.232 2.232 26.056L3.06 21.4H4.14L4.968 26.056C5 26.232 5.028 26.428 5.052 26.644C5.084 26.852 5.104 27.024 5.112 27.16C5.128 27.024 5.148 26.852 5.172 26.644C5.196 26.428 5.22 26.232 5.244 26.056L5.94 21.4H6.828L5.7 28H4.512L3.756 23.44C3.724 23.216 3.692 22.98 3.66 22.732C3.636 22.476 3.616 22.28 3.6 22.144C3.592 22.28 3.572 22.476 3.54 22.732C3.508 22.98 3.472 23.216 3.432 23.44L2.64 28H1.452ZM10.7953 23.056C10.4673 23.056 10.2193 22.976 10.0513 22.816C9.88331 22.656 9.79931 22.44 9.79931 22.168C9.79931 21.896 9.88331 21.68 10.0513 21.52C10.2193 21.36 10.4673 21.28 10.7953 21.28C11.1233 21.28 11.3713 21.36 11.5393 21.52C11.7073 21.68 11.7913 21.896 11.7913 22.168C11.7913 22.44 11.7073 22.656 11.5393 22.816C11.3713 22.976 11.1233 23.056 10.7953 23.056ZM10.7953 28.12C10.4673 28.12 10.2193 28.04 10.0513 27.88C9.88331 27.72 9.79931 27.504 9.79931 27.232C9.79931 26.96 9.88331 26.744 10.0513 26.584C10.2193 26.424 10.4673 26.344 10.7953 26.344C11.1233 26.344 11.3713 26.424 11.5393 26.584C11.7073 26.744 11.7913 26.96 11.7913 27.232C11.7913 27.504 11.7073 27.72 11.5393 27.88C11.3713 28.04 11.1233 28.12 10.7953 28.12ZM15.4226 28V27.004L18.3386 23.884C18.7626 23.436 19.0626 23.036 19.2386 22.684C19.4146 22.332 19.5026 21.988 19.5026 21.652C19.5026 21.172 19.3626 20.792 19.0826 20.512C18.8106 20.224 18.4386 20.08 17.9666 20.08C17.4786 20.08 17.0906 20.228 16.8026 20.524C16.5226 20.812 16.3826 21.204 16.3826 21.7H15.3026C15.3266 20.908 15.5786 20.28 16.0586 19.816C16.5386 19.352 17.1746 19.12 17.9666 19.12C18.7746 19.12 19.4146 19.348 19.8866 19.804C20.3666 20.26 20.6066 20.88 20.6066 21.664C20.6066 22.08 20.4906 22.52 20.2586 22.984C20.0346 23.448 19.6466 23.968 19.0946 24.544L16.7306 27.016H20.7146V28H15.4226ZM25.1859 28.12C24.3779 28.12 23.7339 27.888 23.2539 27.424C22.7819 26.952 22.5459 26.324 22.5459 25.54V21.7C22.5459 20.916 22.7819 20.292 23.2539 19.828C23.7339 19.356 24.3779 19.12 25.1859 19.12C25.9939 19.12 26.6339 19.356 27.1059 19.828C27.5859 20.292 27.8259 20.916 27.8259 21.7V25.54C27.8259 26.06 27.7179 26.516 27.5019 26.908C27.2859 27.292 26.9779 27.592 26.5779 27.808C26.1859 28.016 25.7219 28.12 25.1859 28.12ZM25.1859 27.196C25.6659 27.196 26.0499 27.044 26.3379 26.74C26.6339 26.428 26.7819 26.028 26.7819 25.54V21.7C26.7819 21.212 26.6339 20.816 26.3379 20.512C26.0499 20.2 25.6659 20.044 25.1859 20.044C24.7059 20.044 24.3179 20.2 24.0219 20.512C23.7339 20.816 23.5899 21.212 23.5899 21.7V25.54C23.5899 26.028 23.7339 26.428 24.0219 26.74C24.3179 27.044 24.7059 27.196 25.1859 27.196ZM25.1859 24.28C24.9699 24.28 24.7939 24.22 24.6579 24.1C24.5299 23.98 24.4659 23.808 24.4659 23.584C24.4659 23.368 24.5299 23.204 24.6579 23.092C24.7939 22.972 24.9699 22.912 25.1859 22.912C25.4019 22.912 25.5739 22.972 25.7019 23.092C25.8379 23.204 25.9059 23.368 25.9059 23.584C25.9059 23.808 25.8379 23.98 25.7019 24.1C25.5739 24.22 25.4019 24.28 25.1859 24.28ZM32.3813 28.12C31.5733 28.12 30.9293 27.888 30.4493 27.424C29.9773 26.952 29.7413 26.324 29.7413 25.54V21.7C29.7413 20.916 29.9773 20.292 30.4493 19.828C30.9293 19.356 31.5733 19.12 32.3813 19.12C33.1893 19.12 33.8293 19.356 34.3013 19.828C34.7813 20.292 35.0213 20.916 35.0213 21.7V25.54C35.0213 26.06 34.9133 26.516 34.6973 26.908C34.4813 27.292 34.1733 27.592 33.7733 27.808C33.3813 28.016 32.9173 28.12 32.3813 28.12ZM32.3813 27.196C32.8613 27.196 33.2453 27.044 33.5333 26.74C33.8293 26.428 33.9773 26.028 33.9773 25.54V21.7C33.9773 21.212 33.8293 20.816 33.5333 20.512C33.2453 20.2 32.8613 20.044 32.3813 20.044C31.9013 20.044 31.5133 20.2 31.2173 20.512C30.9293 20.816 30.7853 21.212 30.7853 21.7V25.54C30.7853 26.028 30.9293 26.428 31.2173 26.74C31.5133 27.044 31.9013 27.196 32.3813 27.196ZM32.3813 24.28C32.1653 24.28 31.9893 24.22 31.8533 24.1C31.7253 23.98 31.6613 23.808 31.6613 23.584C31.6613 23.368 31.7253 23.204 31.8533 23.092C31.9893 22.972 32.1653 22.912 32.3813 22.912C32.5973 22.912 32.7693 22.972 32.8973 23.092C33.0333 23.204 33.1013 23.368 33.1013 23.584C33.1013 23.808 33.0333 23.98 32.8973 24.1C32.7693 24.22 32.5973 24.28 32.3813 24.28ZM44.2759 28V19.24H45.3559V22.66H45.3679C45.4239 22.22 45.6039 21.88 45.9079 21.64C46.2119 21.4 46.6159 21.28 47.1199 21.28C47.7839 21.28 48.3119 21.484 48.7039 21.892C49.0959 22.3 49.2919 22.856 49.2919 23.56V28H48.2119V23.74C48.2119 23.244 48.0839 22.864 47.8279 22.6C47.5799 22.328 47.2399 22.192 46.8079 22.192C46.3599 22.192 46.0039 22.332 45.7399 22.612C45.4839 22.892 45.3559 23.288 45.3559 23.8V28H44.2759ZM53.9672 23.056C53.6392 23.056 53.3912 22.976 53.2232 22.816C53.0552 22.656 52.9712 22.44 52.9712 22.168C52.9712 21.896 53.0552 21.68 53.2232 21.52C53.3912 21.36 53.6392 21.28 53.9672 21.28C54.2952 21.28 54.5432 21.36 54.7112 21.52C54.8792 21.68 54.9632 21.896 54.9632 22.168C54.9632 22.44 54.8792 22.656 54.7112 22.816C54.5432 22.976 54.2952 23.056 53.9672 23.056ZM53.9672 28.12C53.6392 28.12 53.3912 28.04 53.2232 27.88C53.0552 27.72 52.9712 27.504 52.9712 27.232C52.9712 26.96 53.0552 26.744 53.2232 26.584C53.3912 26.424 53.6392 26.344 53.9672 26.344C54.2952 26.344 54.5432 26.424 54.7112 26.584C54.8792 26.744 54.9632 26.96 54.9632 27.232C54.9632 27.504 54.8792 27.72 54.7112 27.88C54.5432 28.04 54.2952 28.12 53.9672 28.12ZM58.5945 28V27.004L61.5105 23.884C61.9345 23.436 62.2345 23.036 62.4105 22.684C62.5865 22.332 62.6745 21.988 62.6745 21.652C62.6745 21.172 62.5345 20.792 62.2545 20.512C61.9825 20.224 61.6105 20.08 61.1385 20.08C60.6505 20.08 60.2625 20.228 59.9745 20.524C59.6945 20.812 59.5545 21.204 59.5545 21.7H58.4745C58.4985 20.908 58.7505 20.28 59.2305 19.816C59.7105 19.352 60.3465 19.12 61.1385 19.12C61.9465 19.12 62.5865 19.348 63.0585 19.804C63.5385 20.26 63.7785 20.88 63.7785 21.664C63.7785 22.08 63.6625 22.52 63.4305 22.984C63.2065 23.448 62.8185 23.968 62.2665 24.544L59.9025 27.016H63.8865V28H58.5945ZM68.3578 28.12C67.5498 28.12 66.9058 27.888 66.4258 27.424C65.9538 26.952 65.7178 26.324 65.7178 25.54V21.7C65.7178 20.916 65.9538 20.292 66.4258 19.828C66.9058 19.356 67.5498 19.12 68.3578 19.12C69.1658 19.12 69.8058 19.356 70.2778 19.828C70.7578 20.292 70.9978 20.916 70.9978 21.7V25.54C70.9978 26.06 70.8898 26.516 70.6738 26.908C70.4578 27.292 70.1498 27.592 69.7498 27.808C69.3578 28.016 68.8938 28.12 68.3578 28.12ZM68.3578 27.196C68.8378 27.196 69.2218 27.044 69.5098 26.74C69.8058 26.428 69.9538 26.028 69.9538 25.54V21.7C69.9538 21.212 69.8058 20.816 69.5098 20.512C69.2218 20.2 68.8378 20.044 68.3578 20.044C67.8778 20.044 67.4898 20.2 67.1938 20.512C66.9058 20.816 66.7618 21.212 66.7618 21.7V25.54C66.7618 26.028 66.9058 26.428 67.1938 26.74C67.4898 27.044 67.8778 27.196 68.3578 27.196ZM68.3578 24.28C68.1418 24.28 67.9658 24.22 67.8298 24.1C67.7018 23.98 67.6378 23.808 67.6378 23.584C67.6378 23.368 67.7018 23.204 67.8298 23.092C67.9658 22.972 68.1418 22.912 68.3578 22.912C68.5738 22.912 68.7458 22.972 68.8738 23.092C69.0098 23.204 69.0778 23.368 69.0778 23.584C69.0778 23.808 69.0098 23.98 68.8738 24.1C68.7458 24.22 68.5738 24.28 68.3578 24.28ZM75.5531 28.12C74.7451 28.12 74.1011 27.888 73.6211 27.424C73.1491 26.952 72.9131 26.324 72.9131 25.54V21.7C72.9131 20.916 73.1491 20.292 73.6211 19.828C74.1011 19.356 74.7451 19.12 75.5531 19.12C76.3611 19.12 77.0011 19.356 77.4731 19.828C77.9531 20.292 78.1931 20.916 78.1931 21.7V25.54C78.1931 26.06 78.0851 26.516 77.8691 26.908C77.6531 27.292 77.3451 27.592 76.9451 27.808C76.5531 28.016 76.0891 28.12 75.5531 28.12ZM75.5531 27.196C76.0331 27.196 76.4171 27.044 76.7051 26.74C77.0011 26.428 77.1491 26.028 77.1491 25.54V21.7C77.1491 21.212 77.0011 20.816 76.7051 20.512C76.4171 20.2 76.0331 20.044 75.5531 20.044C75.0731 20.044 74.6851 20.2 74.3891 20.512C74.1011 20.816 73.9571 21.212 73.9571 21.7V25.54C73.9571 26.028 74.1011 26.428 74.3891 26.74C74.6851 27.044 75.0731 27.196 75.5531 27.196ZM75.5531 24.28C75.3371 24.28 75.1611 24.22 75.0251 24.1C74.8971 23.98 74.8331 23.808 74.8331 23.584C74.8331 23.368 74.8971 23.204 75.0251 23.092C75.1611 22.972 75.3371 22.912 75.5531 22.912C75.7691 22.912 75.9411 22.972 76.0691 23.092C76.2051 23.204 76.2731 23.368 76.2731 23.584C76.2731 23.808 76.2051 23.98 76.0691 24.1C75.9411 24.22 75.7691 24.28 75.5531 24.28Z" fill="black"/>
<path d="M65.6 75L67.94 71.604L65.744 68.4H67.016L68.324 70.44C68.38 70.528 68.432 70.624 68.48 70.728C68.536 70.832 68.58 70.916 68.612 70.98C68.636 70.916 68.672 70.832 68.72 70.728C68.776 70.624 68.832 70.528 68.888 70.44L70.196 68.4H71.468L69.272 71.616L71.6 75H70.328L68.912 72.84C68.856 72.752 68.8 72.652 68.744 72.54C68.696 72.42 68.652 72.324 68.612 72.252C68.58 72.324 68.532 72.42 68.468 72.54C68.412 72.652 68.352 72.752 68.288 72.84L66.872 75H65.6ZM75.7953 70.056C75.4673 70.056 75.2193 69.976 75.0513 69.816C74.8833 69.656 74.7993 69.44 74.7993 69.168C74.7993 68.896 74.8833 68.68 75.0513 68.52C75.2193 68.36 75.4673 68.28 75.7953 68.28C76.1233 68.28 76.3713 68.36 76.5393 68.52C76.7073 68.68 76.7913 68.896 76.7913 69.168C76.7913 69.44 76.7073 69.656 76.5393 69.816C76.3713 69.976 76.1233 70.056 75.7953 70.056ZM75.7953 75.12C75.4673 75.12 75.2193 75.04 75.0513 74.88C74.8833 74.72 74.7993 74.504 74.7993 74.232C74.7993 73.96 74.8833 73.744 75.0513 73.584C75.2193 73.424 75.4673 73.344 75.7953 73.344C76.1233 73.344 76.3713 73.424 76.5393 73.584C76.7073 73.744 76.7913 73.96 76.7913 74.232C76.7913 74.504 76.7073 74.72 76.5393 74.88C76.3713 75.04 76.1233 75.12 75.7953 75.12ZM83.0026 75.12C82.4426 75.12 81.9466 75.004 81.5146 74.772C81.0906 74.532 80.7586 74.204 80.5186 73.788C80.2786 73.364 80.1586 72.876 80.1586 72.324C80.1586 71.94 80.2306 71.548 80.3746 71.148C80.5186 70.74 80.7146 70.316 80.9626 69.876L82.9906 66.24H84.1906L82.0306 69.996L82.0666 70.02C82.1706 69.884 82.3266 69.78 82.5346 69.708C82.7426 69.636 82.9706 69.6 83.2186 69.6C83.7386 69.6 84.1906 69.716 84.5746 69.948C84.9666 70.172 85.2706 70.484 85.4866 70.884C85.7106 71.284 85.8226 71.748 85.8226 72.276C85.8226 72.836 85.7026 73.332 85.4626 73.764C85.2226 74.188 84.8906 74.52 84.4666 74.76C84.0506 75 83.5626 75.12 83.0026 75.12ZM82.9906 74.16C83.5106 74.16 83.9306 73.988 84.2506 73.644C84.5786 73.3 84.7426 72.852 84.7426 72.3C84.7426 71.748 84.5786 71.3 84.2506 70.956C83.9306 70.612 83.5106 70.44 82.9906 70.44C82.4706 70.44 82.0466 70.612 81.7186 70.956C81.3986 71.3 81.2386 71.748 81.2386 72.3C81.2386 72.852 81.3986 73.3 81.7186 73.644C82.0466 73.988 82.4706 74.16 82.9906 74.16ZM90.1859 75.12C89.3779 75.12 88.7339 74.888 88.2539 74.424C87.7819 73.952 87.5459 73.324 87.5459 72.54V68.7C87.5459 67.916 87.7819 67.292 88.2539 66.828C88.7339 66.356 89.3779 66.12 90.1859 66.12C90.9939 66.12 91.6339 66.356 92.1059 66.828C92.5859 67.292 92.8259 67.916 92.8259 68.7V72.54C92.8259 73.06 92.7179 73.516 92.5019 73.908C92.2859 74.292 91.9779 74.592 91.5779 74.808C91.1859 75.016 90.7219 75.12 90.1859 75.12ZM90.1859 74.196C90.6659 74.196 91.0499 74.044 91.3379 73.74C91.6339 73.428 91.7819 73.028 91.7819 72.54V68.7C91.7819 68.212 91.6339 67.816 91.3379 67.512C91.0499 67.2 90.6659 67.044 90.1859 67.044C89.7059 67.044 89.3179 67.2 89.0219 67.512C88.7339 67.816 88.5899 68.212 88.5899 68.7V72.54C88.5899 73.028 88.7339 73.428 89.0219 73.74C89.3179 74.044 89.7059 74.196 90.1859 74.196ZM90.1859 71.28C89.9699 71.28 89.7939 71.22 89.6579 71.1C89.5299 70.98 89.4659 70.808 89.4659 70.584C89.4659 70.368 89.5299 70.204 89.6579 70.092C89.7939 69.972 89.9699 69.912 90.1859 69.912C90.4019 69.912 90.5739 69.972 90.7019 70.092C90.8379 70.204 90.9059 70.368 90.9059 70.584C90.9059 70.808 90.8379 70.98 90.7019 71.1C90.5739 71.22 90.4019 71.28 90.1859 71.28ZM103.113 77.16L104.085 74.592L101.625 68.4H102.789L104.349 72.48C104.413 72.64 104.473 72.808 104.529 72.984C104.585 73.16 104.625 73.312 104.649 73.44C104.673 73.312 104.713 73.16 104.769 72.984C104.825 72.808 104.881 72.64 104.937 72.48L106.389 68.4H107.529L104.241 77.16H103.113ZM111.772 70.056C111.444 70.056 111.196 69.976 111.028 69.816C110.86 69.656 110.776 69.44 110.776 69.168C110.776 68.896 110.86 68.68 111.028 68.52C111.196 68.36 111.444 68.28 111.772 68.28C112.1 68.28 112.348 68.36 112.516 68.52C112.684 68.68 112.768 68.896 112.768 69.168C112.768 69.44 112.684 69.656 112.516 69.816C112.348 69.976 112.1 70.056 111.772 70.056ZM111.772 75.12C111.444 75.12 111.196 75.04 111.028 74.88C110.86 74.72 110.776 74.504 110.776 74.232C110.776 73.96 110.86 73.744 111.028 73.584C111.196 73.424 111.444 73.344 111.772 73.344C112.1 73.344 112.348 73.424 112.516 73.584C112.684 73.744 112.768 73.96 112.768 74.232C112.768 74.504 112.684 74.72 112.516 74.88C112.348 75.04 112.1 75.12 111.772 75.12ZM117.647 75L120.767 67.224H117.431V68.64H116.351V66.24H121.919V67.248L118.823 75H117.647ZM126.163 75.12C125.355 75.12 124.711 74.888 124.231 74.424C123.759 73.952 123.523 73.324 123.523 72.54V68.7C123.523 67.916 123.759 67.292 124.231 66.828C124.711 66.356 125.355 66.12 126.163 66.12C126.971 66.12 127.611 66.356 128.083 66.828C128.563 67.292 128.803 67.916 128.803 68.7V72.54C128.803 73.06 128.695 73.516 128.479 73.908C128.263 74.292 127.955 74.592 127.555 74.808C127.163 75.016 126.699 75.12 126.163 75.12ZM126.163 74.196C126.643 74.196 127.027 74.044 127.315 73.74C127.611 73.428 127.759 73.028 127.759 72.54V68.7C127.759 68.212 127.611 67.816 127.315 67.512C127.027 67.2 126.643 67.044 126.163 67.044C125.683 67.044 125.295 67.2 124.999 67.512C124.711 67.816 124.567 68.212 124.567 68.7V72.54C124.567 73.028 124.711 73.428 124.999 73.74C125.295 74.044 125.683 74.196 126.163 74.196ZM126.163 71.28C125.947 71.28 125.771 71.22 125.635 71.1C125.507 70.98 125.443 70.808 125.443 70.584C125.443 70.368 125.507 70.204 125.635 70.092C125.771 69.972 125.947 69.912 126.163 69.912C126.379 69.912 126.551 69.972 126.679 70.092C126.815 70.204 126.883 70.368 126.883 70.584C126.883 70.808 126.815 70.98 126.679 71.1C126.551 71.22 126.379 71.28 126.163 71.28ZM68.024 91.12C67.344 91.12 66.804 90.932 66.404 90.556C66.004 90.172 65.804 89.672 65.804 89.056C65.804 88.648 65.896 88.292 66.08 87.988C66.264 87.684 66.52 87.448 66.848 87.28C67.176 87.104 67.552 87.016 67.976 87.016H70.016V86.5C70.016 85.644 69.548 85.216 68.612 85.216C68.196 85.216 67.86 85.292 67.604 85.444C67.348 85.596 67.212 85.808 67.196 86.08H66.116C66.156 85.56 66.396 85.132 66.836 84.796C67.284 84.452 67.876 84.28 68.612 84.28C69.412 84.28 70.024 84.472 70.448 84.856C70.88 85.24 71.096 85.776 71.096 86.464V91H70.028V89.8H70.004C69.94 90.208 69.736 90.532 69.392 90.772C69.048 91.004 68.592 91.12 68.024 91.12ZM68.288 90.208C68.816 90.208 69.236 90.08 69.548 89.824C69.86 89.568 70.016 89.22 70.016 88.78V87.856H68.096C67.744 87.856 67.456 87.964 67.232 88.18C67.016 88.388 66.908 88.668 66.908 89.02C66.908 89.388 67.028 89.68 67.268 89.896C67.516 90.104 67.856 90.208 68.288 90.208ZM75.7953 86.056C75.4673 86.056 75.2193 85.976 75.0513 85.816C74.8833 85.656 74.7993 85.44 74.7993 85.168C74.7993 84.896 74.8833 84.68 75.0513 84.52C75.2193 84.36 75.4673 84.28 75.7953 84.28C76.1233 84.28 76.3713 84.36 76.5393 84.52C76.7073 84.68 76.7913 84.896 76.7913 85.168C76.7913 85.44 76.7073 85.656 76.5393 85.816C76.3713 85.976 76.1233 86.056 75.7953 86.056ZM75.7953 91.12C75.4673 91.12 75.2193 91.04 75.0513 90.88C74.8833 90.72 74.7993 90.504 74.7993 90.232C74.7993 89.96 74.8833 89.744 75.0513 89.584C75.2193 89.424 75.4673 89.344 75.7953 89.344C76.1233 89.344 76.3713 89.424 76.5393 89.584C76.7073 89.744 76.7913 89.96 76.7913 90.232C76.7913 90.504 76.7073 90.72 76.5393 90.88C76.3713 91.04 76.1233 91.12 75.7953 91.12ZM90.1859 91.12C89.3779 91.12 88.7339 90.888 88.2539 90.424C87.7819 89.952 87.5459 89.324 87.5459 88.54V84.7C87.5459 83.916 87.7819 83.292 88.2539 82.828C88.7339 82.356 89.3779 82.12 90.1859 82.12C90.9939 82.12 91.6339 82.356 92.1059 82.828C92.5859 83.292 92.8259 83.916 92.8259 84.7V88.54C92.8259 89.06 92.7179 89.516 92.5019 89.908C92.2859 90.292 91.9779 90.592 91.5779 90.808C91.1859 91.016 90.7219 91.12 90.1859 91.12ZM90.1859 90.196C90.6659 90.196 91.0499 90.044 91.3379 89.74C91.6339 89.428 91.7819 89.028 91.7819 88.54V84.7C91.7819 84.212 91.6339 83.816 91.3379 83.512C91.0499 83.2 90.6659 83.044 90.1859 83.044C89.7059 83.044 89.3179 83.2 89.0219 83.512C88.7339 83.816 88.5899 84.212 88.5899 84.7V88.54C88.5899 89.028 88.7339 89.428 89.0219 89.74C89.3179 90.044 89.7059 90.196 90.1859 90.196ZM90.1859 87.28C89.9699 87.28 89.7939 87.22 89.6579 87.1C89.5299 86.98 89.4659 86.808 89.4659 86.584C89.4659 86.368 89.5299 86.204 89.6579 86.092C89.7939 85.972 89.9699 85.912 90.1859 85.912C90.4019 85.912 90.5739 85.972 90.7019 86.092C90.8379 86.204 90.9059 86.368 90.9059 86.584C90.9059 86.808 90.8379 86.98 90.7019 87.1C90.5739 87.22 90.4019 87.28 90.1859 87.28ZM96.3013 92.92L96.9613 89.248H98.2573L97.4173 92.92H96.3013ZM104.577 91.12C103.769 91.12 103.125 90.888 102.645 90.424C102.173 89.952 101.937 89.324 101.937 88.54V84.7C101.937 83.916 102.173 83.292 102.645 82.828C103.125 82.356 103.769 82.12 104.577 82.12C105.385 82.12 106.025 82.356 106.497 82.828C106.977 83.292 107.217 83.916 107.217 84.7V88.54C107.217 89.06 107.109 89.516 106.893 89.908C106.677 90.292 106.369 90.592 105.969 90.808C105.577 91.016 105.113 91.12 104.577 91.12ZM104.577 90.196C105.057 90.196 105.441 90.044 105.729 89.74C106.025 89.428 106.173 89.028 106.173 88.54V84.7C106.173 84.212 106.025 83.816 105.729 83.512C105.441 83.2 105.057 83.044 104.577 83.044C104.097 83.044 103.709 83.2 103.413 83.512C103.125 83.816 102.981 84.212 102.981 84.7V88.54C102.981 89.028 103.125 89.428 103.413 89.74C103.709 90.044 104.097 90.196 104.577 90.196ZM104.577 87.28C104.361 87.28 104.185 87.22 104.049 87.1C103.921 86.98 103.857 86.808 103.857 86.584C103.857 86.368 103.921 86.204 104.049 86.092C104.185 85.972 104.361 85.912 104.577 85.912C104.793 85.912 104.965 85.972 105.093 86.092C105.229 86.204 105.297 86.368 105.297 86.584C105.297 86.808 105.229 86.98 105.093 87.1C104.965 87.22 104.793 87.28 104.577 87.28Z" fill="black"/>
</svg>
