<svg width="200" height="232" viewBox="0 0 200 232" fill="none" xmlns="http://www.w3.org/2000/svg">
<rect x="0.5" y="32.5" width="199" height="199" stroke="black"/>
<rect x="63.5" y="103.5" width="103" height="38" stroke="black"/>
<path d="M63.6 83L65.94 79.604L63.744 76.4H65.016L66.324 78.44C66.38 78.528 66.432 78.624 66.48 78.728C66.536 78.832 66.58 78.916 66.612 78.98C66.636 78.916 66.672 78.832 66.72 78.728C66.776 78.624 66.832 78.528 66.888 78.44L68.196 76.4H69.468L67.272 79.616L69.6 83H68.328L66.912 80.84C66.856 80.752 66.8 80.652 66.744 80.54C66.696 80.42 66.652 80.324 66.612 80.252C66.58 80.324 66.532 80.42 66.468 80.54C66.412 80.652 66.352 80.752 66.288 80.84L64.872 83H63.6ZM73.7953 78.056C73.4673 78.056 73.2193 77.976 73.0513 77.816C72.8833 77.656 72.7993 77.44 72.7993 77.168C72.7993 76.896 72.8833 76.68 73.0513 76.52C73.2193 76.36 73.4673 76.28 73.7953 76.28C74.1233 76.28 74.3713 76.36 74.5393 76.52C74.7073 76.68 74.7913 76.896 74.7913 77.168C74.7913 77.44 74.7073 77.656 74.5393 77.816C74.3713 77.976 74.1233 78.056 73.7953 78.056ZM73.7953 83.12C73.4673 83.12 73.2193 83.04 73.0513 82.88C72.8833 82.72 72.7993 82.504 72.7993 82.232C72.7993 81.96 72.8833 81.744 73.0513 81.584C73.2193 81.424 73.4673 81.344 73.7953 81.344C74.1233 81.344 74.3713 81.424 74.5393 81.584C74.7073 81.744 74.7913 81.96 74.7913 82.232C74.7913 82.504 74.7073 82.72 74.5393 82.88C74.3713 83.04 74.1233 83.12 73.7953 83.12ZM81.0026 83.12C80.4426 83.12 79.9466 83.004 79.5146 82.772C79.0906 82.532 78.7586 82.204 78.5186 81.788C78.2786 81.364 78.1586 80.876 78.1586 80.324C78.1586 79.94 78.2306 79.548 78.3746 79.148C78.5186 78.74 78.7146 78.316 78.9626 77.876L80.9906 74.24H82.1906L80.0306 77.996L80.0666 78.02C80.1706 77.884 80.3266 77.78 80.5346 77.708C80.7426 77.636 80.9706 77.6 81.2186 77.6C81.7386 77.6 82.1906 77.716 82.5746 77.948C82.9666 78.172 83.2706 78.484 83.4866 78.884C83.7106 79.284 83.8226 79.748 83.8226 80.276C83.8226 80.836 83.7026 81.332 83.4626 81.764C83.2226 82.188 82.8906 82.52 82.4666 82.76C82.0506 83 81.5626 83.12 81.0026 83.12ZM80.9906 82.16C81.5106 82.16 81.9306 81.988 82.2506 81.644C82.5786 81.3 82.7426 80.852 82.7426 80.3C82.7426 79.748 82.5786 79.3 82.2506 78.956C81.9306 78.612 81.5106 78.44 80.9906 78.44C80.4706 78.44 80.0466 78.612 79.7186 78.956C79.3986 79.3 79.2386 79.748 79.2386 80.3C79.2386 80.852 79.3986 81.3 79.7186 81.644C80.0466 81.988 80.4706 82.16 80.9906 82.16ZM88.1859 83.12C87.3779 83.12 86.7339 82.888 86.2539 82.424C85.7819 81.952 85.5459 81.324 85.5459 80.54V76.7C85.5459 75.916 85.7819 75.292 86.2539 74.828C86.7339 74.356 87.3779 74.12 88.1859 74.12C88.9939 74.12 89.6339 74.356 90.1059 74.828C90.5859 75.292 90.8259 75.916 90.8259 76.7V80.54C90.8259 81.06 90.7179 81.516 90.5019 81.908C90.2859 82.292 89.9779 82.592 89.5779 82.808C89.1859 83.016 88.7219 83.12 88.1859 83.12ZM88.1859 82.196C88.6659 82.196 89.0499 82.044 89.3379 81.74C89.6339 81.428 89.7819 81.028 89.7819 80.54V76.7C89.7819 76.212 89.6339 75.816 89.3379 75.512C89.0499 75.2 88.6659 75.044 88.1859 75.044C87.7059 75.044 87.3179 75.2 87.0219 75.512C86.7339 75.816 86.5899 76.212 86.5899 76.7V80.54C86.5899 81.028 86.7339 81.428 87.0219 81.74C87.3179 82.044 87.7059 82.196 88.1859 82.196ZM88.1859 79.28C87.9699 79.28 87.7939 79.22 87.6579 79.1C87.5299 78.98 87.4659 78.808 87.4659 78.584C87.4659 78.368 87.5299 78.204 87.6579 78.092C87.7939 77.972 87.9699 77.912 88.1859 77.912C88.4019 77.912 88.5739 77.972 88.7019 78.092C88.8379 78.204 88.9059 78.368 88.9059 78.584C88.9059 78.808 88.8379 78.98 88.7019 79.1C88.5739 79.22 88.4019 79.28 88.1859 79.28ZM101.113 85.16L102.085 82.592L99.6246 76.4H100.789L102.349 80.48C102.413 80.64 102.473 80.808 102.529 80.984C102.585 81.16 102.625 81.312 102.649 81.44C102.673 81.312 102.713 81.16 102.769 80.984C102.825 80.808 102.881 80.64 102.937 80.48L104.389 76.4H105.529L102.241 85.16H101.113ZM109.772 78.056C109.444 78.056 109.196 77.976 109.028 77.816C108.86 77.656 108.776 77.44 108.776 77.168C108.776 76.896 108.86 76.68 109.028 76.52C109.196 76.36 109.444 76.28 109.772 76.28C110.1 76.28 110.348 76.36 110.516 76.52C110.684 76.68 110.768 76.896 110.768 77.168C110.768 77.44 110.684 77.656 110.516 77.816C110.348 77.976 110.1 78.056 109.772 78.056ZM109.772 83.12C109.444 83.12 109.196 83.04 109.028 82.88C108.86 82.72 108.776 82.504 108.776 82.232C108.776 81.96 108.86 81.744 109.028 81.584C109.196 81.424 109.444 81.344 109.772 81.344C110.1 81.344 110.348 81.424 110.516 81.584C110.684 81.744 110.768 81.96 110.768 82.232C110.768 82.504 110.684 82.72 110.516 82.88C110.348 83.04 110.1 83.12 109.772 83.12ZM115.647 83L118.767 75.224H115.431V76.64H114.351V74.24H119.919V75.248L116.823 83H115.647ZM124.163 83.12C123.355 83.12 122.711 82.888 122.231 82.424C121.759 81.952 121.523 81.324 121.523 80.54V76.7C121.523 75.916 121.759 75.292 122.231 74.828C122.711 74.356 123.355 74.12 124.163 74.12C124.971 74.12 125.611 74.356 126.083 74.828C126.563 75.292 126.803 75.916 126.803 76.7V80.54C126.803 81.06 126.695 81.516 126.479 81.908C126.263 82.292 125.955 82.592 125.555 82.808C125.163 83.016 124.699 83.12 124.163 83.12ZM124.163 82.196C124.643 82.196 125.027 82.044 125.315 81.74C125.611 81.428 125.759 81.028 125.759 80.54V76.7C125.759 76.212 125.611 75.816 125.315 75.512C125.027 75.2 124.643 75.044 124.163 75.044C123.683 75.044 123.295 75.2 122.999 75.512C122.711 75.816 122.567 76.212 122.567 76.7V80.54C122.567 81.028 122.711 81.428 122.999 81.74C123.295 82.044 123.683 82.196 124.163 82.196ZM124.163 79.28C123.947 79.28 123.771 79.22 123.635 79.1C123.507 78.98 123.443 78.808 123.443 78.584C123.443 78.368 123.507 78.204 123.635 78.092C123.771 77.972 123.947 77.912 124.163 77.912C124.379 77.912 124.551 77.972 124.679 78.092C124.815 78.204 124.883 78.368 124.883 78.584C124.883 78.808 124.815 78.98 124.679 79.1C124.551 79.22 124.379 79.28 124.163 79.28ZM64.452 99L63.372 92.4H64.308L64.98 97.056C65.004 97.232 65.028 97.428 65.052 97.644C65.076 97.852 65.092 98.024 65.1 98.16C65.116 98.024 65.132 97.852 65.148 97.644C65.172 97.428 65.2 97.232 65.232 97.056L66.06 92.4H67.14L67.968 97.056C68 97.232 68.028 97.428 68.052 97.644C68.084 97.852 68.104 98.024 68.112 98.16C68.128 98.024 68.148 97.852 68.172 97.644C68.196 97.428 68.22 97.232 68.244 97.056L68.94 92.4H69.828L68.7 99H67.512L66.756 94.44C66.724 94.216 66.692 93.98 66.66 93.732C66.636 93.476 66.616 93.28 66.6 93.144C66.592 93.28 66.572 93.476 66.54 93.732C66.508 93.98 66.472 94.216 66.432 94.44L65.64 99H64.452ZM73.7953 94.056C73.4673 94.056 73.2193 93.976 73.0513 93.816C72.8833 93.656 72.7993 93.44 72.7993 93.168C72.7993 92.896 72.8833 92.68 73.0513 92.52C73.2193 92.36 73.4673 92.28 73.7953 92.28C74.1233 92.28 74.3713 92.36 74.5393 92.52C74.7073 92.68 74.7913 92.896 74.7913 93.168C74.7913 93.44 74.7073 93.656 74.5393 93.816C74.3713 93.976 74.1233 94.056 73.7953 94.056ZM73.7953 99.12C73.4673 99.12 73.2193 99.04 73.0513 98.88C72.8833 98.72 72.7993 98.504 72.7993 98.232C72.7993 97.96 72.8833 97.744 73.0513 97.584C73.2193 97.424 73.4673 97.344 73.7953 97.344C74.1233 97.344 74.3713 97.424 74.5393 97.584C74.7073 97.744 74.7913 97.96 74.7913 98.232C74.7913 98.504 74.7073 98.72 74.5393 98.88C74.3713 99.04 74.1233 99.12 73.7953 99.12ZM78.4706 99V98.016H80.8466V91.176L78.4706 92.952V91.716L80.4506 90.24H81.9266V98.016H83.8706V99H78.4706ZM88.1859 99.12C87.3779 99.12 86.7339 98.888 86.2539 98.424C85.7819 97.952 85.5459 97.324 85.5459 96.54V92.7C85.5459 91.916 85.7819 91.292 86.2539 90.828C86.7339 90.356 87.3779 90.12 88.1859 90.12C88.9939 90.12 89.6339 90.356 90.1059 90.828C90.5859 91.292 90.8259 91.916 90.8259 92.7V96.54C90.8259 97.06 90.7179 97.516 90.5019 97.908C90.2859 98.292 89.9779 98.592 89.5779 98.808C89.1859 99.016 88.7219 99.12 88.1859 99.12ZM88.1859 98.196C88.6659 98.196 89.0499 98.044 89.3379 97.74C89.6339 97.428 89.7819 97.028 89.7819 96.54V92.7C89.7819 92.212 89.6339 91.816 89.3379 91.512C89.0499 91.2 88.6659 91.044 88.1859 91.044C87.7059 91.044 87.3179 91.2 87.0219 91.512C86.7339 91.816 86.5899 92.212 86.5899 92.7V96.54C86.5899 97.028 86.7339 97.428 87.0219 97.74C87.3179 98.044 87.7059 98.196 88.1859 98.196ZM88.1859 95.28C87.9699 95.28 87.7939 95.22 87.6579 95.1C87.5299 94.98 87.4659 94.808 87.4659 94.584C87.4659 94.368 87.5299 94.204 87.6579 94.092C87.7939 93.972 87.9699 93.912 88.1859 93.912C88.4019 93.912 88.5739 93.972 88.7019 94.092C88.8379 94.204 88.9059 94.368 88.9059 94.584C88.9059 94.808 88.8379 94.98 88.7019 95.1C88.5739 95.22 88.4019 95.28 88.1859 95.28ZM96.5813 99V97.08H92.6213V95.388L95.8133 90.24H97.0373L93.7013 95.628V96.096H96.5813V93.96H97.6613V99H96.5813ZM107.276 99V90.24H108.356V93.66H108.368C108.424 93.22 108.604 92.88 108.908 92.64C109.212 92.4 109.616 92.28 110.12 92.28C110.784 92.28 111.312 92.484 111.704 92.892C112.096 93.3 112.292 93.856 112.292 94.56V99H111.212V94.74C111.212 94.244 111.084 93.864 110.828 93.6C110.58 93.328 110.24 93.192 109.808 93.192C109.36 93.192 109.004 93.332 108.74 93.612C108.484 93.892 108.356 94.288 108.356 94.8V99H107.276ZM116.967 94.056C116.639 94.056 116.391 93.976 116.223 93.816C116.055 93.656 115.971 93.44 115.971 93.168C115.971 92.896 116.055 92.68 116.223 92.52C116.391 92.36 116.639 92.28 116.967 92.28C117.295 92.28 117.543 92.36 117.711 92.52C117.879 92.68 117.963 92.896 117.963 93.168C117.963 93.44 117.879 93.656 117.711 93.816C117.543 93.976 117.295 94.056 116.967 94.056ZM116.967 99.12C116.639 99.12 116.391 99.04 116.223 98.88C116.055 98.72 115.971 98.504 115.971 98.232C115.971 97.96 116.055 97.744 116.223 97.584C116.391 97.424 116.639 97.344 116.967 97.344C117.295 97.344 117.543 97.424 117.711 97.584C117.879 97.744 117.963 97.96 117.963 98.232C117.963 98.504 117.879 98.72 117.711 98.88C117.543 99.04 117.295 99.12 116.967 99.12ZM124.031 99.12C123.223 99.12 122.583 98.896 122.111 98.448C121.639 97.992 121.403 97.376 121.403 96.6H122.483C122.483 97.08 122.623 97.46 122.903 97.74C123.183 98.02 123.563 98.16 124.043 98.16C124.523 98.16 124.903 98.02 125.183 97.74C125.463 97.46 125.603 97.08 125.603 96.6V96C125.603 95.52 125.463 95.14 125.183 94.86C124.903 94.58 124.523 94.44 124.043 94.44H123.095V93.504L125.243 91.224H121.643V90.24H126.467V91.248L124.355 93.492C125.075 93.548 125.643 93.8 126.059 94.248C126.475 94.688 126.683 95.272 126.683 96V96.6C126.683 97.376 126.443 97.992 125.963 98.448C125.491 98.896 124.847 99.12 124.031 99.12ZM130.098 99L132.258 95.244L132.222 95.22C132.142 95.348 131.994 95.452 131.778 95.532C131.562 95.604 131.326 95.64 131.07 95.64C130.566 95.64 130.122 95.528 129.738 95.304C129.362 95.072 129.066 94.756 128.85 94.356C128.634 93.956 128.526 93.492 128.526 92.964C128.526 92.396 128.646 91.9 128.886 91.476C129.126 91.052 129.458 90.72 129.882 90.48C130.306 90.24 130.794 90.12 131.346 90.12C131.914 90.12 132.41 90.24 132.834 90.48C133.258 90.712 133.59 91.04 133.83 91.464C134.07 91.88 134.19 92.364 134.19 92.916C134.19 93.3 134.118 93.696 133.974 94.104C133.83 94.504 133.634 94.924 133.386 95.364L131.358 99H130.098ZM131.358 94.8C131.878 94.8 132.298 94.628 132.618 94.284C132.946 93.94 133.11 93.492 133.11 92.94C133.11 92.388 132.946 91.94 132.618 91.596C132.298 91.252 131.878 91.08 131.358 91.08C130.838 91.08 130.414 91.252 130.086 91.596C129.766 91.94 129.606 92.388 129.606 92.94C129.606 93.492 129.766 93.94 130.086 94.284C130.414 94.628 130.838 94.8 131.358 94.8Z" fill="black"/>
<path d="M0.6 12L2.94 8.604L0.744 5.4H2.016L3.324 7.44C3.38 7.528 3.432 7.624 3.48 7.728C3.536 7.832 3.58 7.916 3.612 7.98C3.636 7.916 3.672 7.832 3.72 7.728C3.776 7.624 3.832 7.528 3.888 7.44L5.196 5.4H6.468L4.272 8.616L6.6 12H5.328L3.912 9.84C3.856 9.752 3.8 9.652 3.744 9.54C3.696 9.42 3.652 9.324 3.612 9.252C3.58 9.324 3.532 9.42 3.468 9.54C3.412 9.652 3.352 9.752 3.288 9.84L1.872 12H0.6ZM10.7953 7.056C10.4673 7.056 10.2193 6.976 10.0513 6.816C9.88331 6.656 9.79931 6.44 9.79931 6.168C9.79931 5.896 9.88331 5.68 10.0513 5.52C10.2193 5.36 10.4673 5.28 10.7953 5.28C11.1233 5.28 11.3713 5.36 11.5393 5.52C11.7073 5.68 11.7913 5.896 11.7913 6.168C11.7913 6.44 11.7073 6.656 11.5393 6.816C11.3713 6.976 11.1233 7.056 10.7953 7.056ZM10.7953 12.12C10.4673 12.12 10.2193 12.04 10.0513 11.88C9.88331 11.72 9.79931 11.504 9.79931 11.232C9.79931 10.96 9.88331 10.744 10.0513 10.584C10.2193 10.424 10.4673 10.344 10.7953 10.344C11.1233 10.344 11.3713 10.424 11.5393 10.584C11.7073 10.744 11.7913 10.96 11.7913 11.232C11.7913 11.504 11.7073 11.72 11.5393 11.88C11.3713 12.04 11.1233 12.12 10.7953 12.12ZM17.9906 12.12C17.1826 12.12 16.5386 11.888 16.0586 11.424C15.5866 10.952 15.3506 10.324 15.3506 9.54V5.7C15.3506 4.916 15.5866 4.292 16.0586 3.828C16.5386 3.356 17.1826 3.12 17.9906 3.12C18.7986 3.12 19.4386 3.356 19.9106 3.828C20.3906 4.292 20.6306 4.916 20.6306 5.7V9.54C20.6306 10.06 20.5226 10.516 20.3066 10.908C20.0906 11.292 19.7826 11.592 19.3826 11.808C18.9906 12.016 18.5266 12.12 17.9906 12.12ZM17.9906 11.196C18.4706 11.196 18.8546 11.044 19.1426 10.74C19.4386 10.428 19.5866 10.028 19.5866 9.54V5.7C19.5866 5.212 19.4386 4.816 19.1426 4.512C18.8546 4.2 18.4706 4.044 17.9906 4.044C17.5106 4.044 17.1226 4.2 16.8266 4.512C16.5386 4.816 16.3946 5.212 16.3946 5.7V9.54C16.3946 10.028 16.5386 10.428 16.8266 10.74C17.1226 11.044 17.5106 11.196 17.9906 11.196ZM17.9906 8.28C17.7746 8.28 17.5986 8.22 17.4626 8.1C17.3346 7.98 17.2706 7.808 17.2706 7.584C17.2706 7.368 17.3346 7.204 17.4626 7.092C17.5986 6.972 17.7746 6.912 17.9906 6.912C18.2066 6.912 18.3786 6.972 18.5066 7.092C18.6426 7.204 18.7106 7.368 18.7106 7.584C18.7106 7.808 18.6426 7.98 18.5066 8.1C18.3786 8.22 18.2066 8.28 17.9906 8.28ZM30.9173 14.16L31.8893 11.592L29.4293 5.4H30.5933L32.1533 9.48C32.2173 9.64 32.2773 9.808 32.3333 9.984C32.3893 10.16 32.4293 10.312 32.4533 10.44C32.4773 10.312 32.5173 10.16 32.5733 9.984C32.6293 9.808 32.6853 9.64 32.7413 9.48L34.1933 5.4H35.3333L32.0453 14.16H30.9173ZM39.5766 7.056C39.2486 7.056 39.0006 6.976 38.8326 6.816C38.6646 6.656 38.5806 6.44 38.5806 6.168C38.5806 5.896 38.6646 5.68 38.8326 5.52C39.0006 5.36 39.2486 5.28 39.5766 5.28C39.9046 5.28 40.1526 5.36 40.3206 5.52C40.4886 5.68 40.5726 5.896 40.5726 6.168C40.5726 6.44 40.4886 6.656 40.3206 6.816C40.1526 6.976 39.9046 7.056 39.5766 7.056ZM39.5766 12.12C39.2486 12.12 39.0006 12.04 38.8326 11.88C38.6646 11.72 38.5806 11.504 38.5806 11.232C38.5806 10.96 38.6646 10.744 38.8326 10.584C39.0006 10.424 39.2486 10.344 39.5766 10.344C39.9046 10.344 40.1526 10.424 40.3206 10.584C40.4886 10.744 40.5726 10.96 40.5726 11.232C40.5726 11.504 40.4886 11.72 40.3206 11.88C40.1526 12.04 39.9046 12.12 39.5766 12.12ZM46.7719 12.12C45.9639 12.12 45.3199 11.888 44.8399 11.424C44.3679 10.952 44.1319 10.324 44.1319 9.54V5.7C44.1319 4.916 44.3679 4.292 44.8399 3.828C45.3199 3.356 45.9639 3.12 46.7719 3.12C47.5799 3.12 48.2199 3.356 48.6919 3.828C49.1719 4.292 49.4119 4.916 49.4119 5.7V9.54C49.4119 10.06 49.3039 10.516 49.0879 10.908C48.8719 11.292 48.5639 11.592 48.1639 11.808C47.7719 12.016 47.3079 12.12 46.7719 12.12ZM46.7719 11.196C47.2519 11.196 47.6359 11.044 47.9239 10.74C48.2199 10.428 48.3679 10.028 48.3679 9.54V5.7C48.3679 5.212 48.2199 4.816 47.9239 4.512C47.6359 4.2 47.2519 4.044 46.7719 4.044C46.2919 4.044 45.9039 4.2 45.6079 4.512C45.3199 4.816 45.1759 5.212 45.1759 5.7V9.54C45.1759 10.028 45.3199 10.428 45.6079 10.74C45.9039 11.044 46.2919 11.196 46.7719 11.196ZM46.7719 8.28C46.5559 8.28 46.3799 8.22 46.2439 8.1C46.1159 7.98 46.0519 7.808 46.0519 7.584C46.0519 7.368 46.1159 7.204 46.2439 7.092C46.3799 6.972 46.5559 6.912 46.7719 6.912C46.9879 6.912 47.1599 6.972 47.2879 7.092C47.4239 7.204 47.4919 7.368 47.4919 7.584C47.4919 7.808 47.4239 7.98 47.2879 8.1C47.1599 8.22 46.9879 8.28 46.7719 8.28ZM1.452 28L0.372 21.4H1.308L1.98 26.056C2.004 26.232 2.028 26.428 2.052 26.644C2.076 26.852 2.092 27.024 2.1 27.16C2.116 27.024 2.132 26.852 2.148 26.644C2.172 26.428 2.2 26.232 2.232 26.056L3.06 21.4H4.14L4.968 26.056C5 26.232 5.028 26.428 5.052 26.644C5.084 26.852 5.104 27.024 5.112 27.16C5.128 27.024 5.148 26.852 5.172 26.644C5.196 26.428 5.22 26.232 5.244 26.056L5.94 21.4H6.828L5.7 28H4.512L3.756 23.44C3.724 23.216 3.692 22.98 3.66 22.732C3.636 22.476 3.616 22.28 3.6 22.144C3.592 22.28 3.572 22.476 3.54 22.732C3.508 22.98 3.472 23.216 3.432 23.44L2.64 28H1.452ZM10.7953 23.056C10.4673 23.056 10.2193 22.976 10.0513 22.816C9.88331 22.656 9.79931 22.44 9.79931 22.168C9.79931 21.896 9.88331 21.68 10.0513 21.52C10.2193 21.36 10.4673 21.28 10.7953 21.28C11.1233 21.28 11.3713 21.36 11.5393 21.52C11.7073 21.68 11.7913 21.896 11.7913 22.168C11.7913 22.44 11.7073 22.656 11.5393 22.816C11.3713 22.976 11.1233 23.056 10.7953 23.056ZM10.7953 28.12C10.4673 28.12 10.2193 28.04 10.0513 27.88C9.88331 27.72 9.79931 27.504 9.79931 27.232C9.79931 26.96 9.88331 26.744 10.0513 26.584C10.2193 26.424 10.4673 26.344 10.7953 26.344C11.1233 26.344 11.3713 26.424 11.5393 26.584C11.7073 26.744 11.7913 26.96 11.7913 27.232C11.7913 27.504 11.7073 27.72 11.5393 27.88C11.3713 28.04 11.1233 28.12 10.7953 28.12ZM15.4226 28V27.004L18.3386 23.884C18.7626 23.436 19.0626 23.036 19.2386 22.684C19.4146 22.332 19.5026 21.988 19.5026 21.652C19.5026 21.172 19.3626 20.792 19.0826 20.512C18.8106 20.224 18.4386 20.08 17.9666 20.08C17.4786 20.08 17.0906 20.228 16.8026 20.524C16.5226 20.812 16.3826 21.204 16.3826 21.7H15.3026C15.3266 20.908 15.5786 20.28 16.0586 19.816C16.5386 19.352 17.1746 19.12 17.9666 19.12C18.7746 19.12 19.4146 19.348 19.8866 19.804C20.3666 20.26 20.6066 20.88 20.6066 21.664C20.6066 22.08 20.4906 22.52 20.2586 22.984C20.0346 23.448 19.6466 23.968 19.0946 24.544L16.7306 27.016H20.7146V28H15.4226ZM25.1859 28.12C24.3779 28.12 23.7339 27.888 23.2539 27.424C22.7819 26.952 22.5459 26.324 22.5459 25.54V21.7C22.5459 20.916 22.7819 20.292 23.2539 19.828C23.7339 19.356 24.3779 19.12 25.1859 19.12C25.9939 19.12 26.6339 19.356 27.1059 19.828C27.5859 20.292 27.8259 20.916 27.8259 21.7V25.54C27.8259 26.06 27.7179 26.516 27.5019 26.908C27.2859 27.292 26.9779 27.592 26.5779 27.808C26.1859 28.016 25.7219 28.12 25.1859 28.12ZM25.1859 27.196C25.6659 27.196 26.0499 27.044 26.3379 26.74C26.6339 26.428 26.7819 26.028 26.7819 25.54V21.7C26.7819 21.212 26.6339 20.816 26.3379 20.512C26.0499 20.2 25.6659 20.044 25.1859 20.044C24.7059 20.044 24.3179 20.2 24.0219 20.512C23.7339 20.816 23.5899 21.212 23.5899 21.7V25.54C23.5899 26.028 23.7339 26.428 24.0219 26.74C24.3179 27.044 24.7059 27.196 25.1859 27.196ZM25.1859 24.28C24.9699 24.28 24.7939 24.22 24.6579 24.1C24.5299 23.98 24.4659 23.808 24.4659 23.584C24.4659 23.368 24.5299 23.204 24.6579 23.092C24.7939 22.972 24.9699 22.912 25.1859 22.912C25.4019 22.912 25.5739 22.972 25.7019 23.092C25.8379 23.204 25.9059 23.368 25.9059 23.584C25.9059 23.808 25.8379 23.98 25.7019 24.1C25.5739 24.22 25.4019 24.28 25.1859 24.28ZM32.3813 28.12C31.5733 28.12 30.9293 27.888 30.4493 27.424C29.9773 26.952 29.7413 26.324 29.7413 25.54V21.7C29.7413 20.916 29.9773 20.292 30.4493 19.828C30.9293 19.356 31.5733 19.12 32.3813 19.12C33.1893 19.12 33.8293 19.356 34.3013 19.828C34.7813 20.292 35.0213 20.916 35.0213 21.7V25.54C35.0213 26.06 34.9133 26.516 34.6973 26.908C34.4813 27.292 34.1733 27.592 33.7733 27.808C33.3813 28.016 32.9173 28.12 32.3813 28.12ZM32.3813 27.196C32.8613 27.196 33.2453 27.044 33.5333 26.74C33.8293 26.428 33.9773 26.028 33.9773 25.54V21.7C33.9773 21.212 33.8293 20.816 33.5333 20.512C33.2453 20.2 32.8613 20.044 32.3813 20.044C31.9013 20.044 31.5133 20.2 31.2173 20.512C30.9293 20.816 30.7853 21.212 30.7853 21.7V25.54C30.7853 26.028 30.9293 26.428 31.2173 26.74C31.5133 27.044 31.9013 27.196 32.3813 27.196ZM32.3813 24.28C32.1653 24.28 31.9893 24.22 31.8533 24.1C31.7253 23.98 31.6613 23.808 31.6613 23.584C31.6613 23.368 31.7253 23.204 31.8533 23.092C31.9893 22.972 32.1653 22.912 32.3813 22.912C32.5973 22.912 32.7693 22.972 32.8973 23.092C33.0333 23.204 33.1013 23.368 33.1013 23.584C33.1013 23.808 33.0333 23.98 32.8973 24.1C32.7693 24.22 32.5973 24.28 32.3813 24.28ZM44.2759 28V19.24H45.3559V22.66H45.3679C45.4239 22.22 45.6039 21.88 45.9079 21.64C46.2119 21.4 46.6159 21.28 47.1199 21.28C47.7839 21.28 48.3119 21.484 48.7039 21.892C49.0959 22.3 49.2919 22.856 49.2919 23.56V28H48.2119V23.74C48.2119 23.244 48.0839 22.864 47.8279 22.6C47.5799 22.328 47.2399 22.192 46.8079 22.192C46.3599 22.192 46.0039 22.332 45.7399 22.612C45.4839 22.892 45.3559 23.288 45.3559 23.8V28H44.2759ZM53.9672 23.056C53.6392 23.056 53.3912 22.976 53.2232 22.816C53.0552 22.656 52.9712 22.44 52.9712 22.168C52.9712 21.896 53.0552 21.68 53.2232 21.52C53.3912 21.36 53.6392 21.28 53.9672 21.28C54.2952 21.28 54.5432 21.36 54.7112 21.52C54.8792 21.68 54.9632 21.896 54.9632 22.168C54.9632 22.44 54.8792 22.656 54.7112 22.816C54.5432 22.976 54.2952 23.056 53.9672 23.056ZM53.9672 28.12C53.6392 28.12 53.3912 28.04 53.2232 27.88C53.0552 27.72 52.9712 27.504 52.9712 27.232C52.9712 26.96 53.0552 26.744 53.2232 26.584C53.3912 26.424 53.6392 26.344 53.9672 26.344C54.2952 26.344 54.5432 26.424 54.7112 26.584C54.8792 26.744 54.9632 26.96 54.9632 27.232C54.9632 27.504 54.8792 27.72 54.7112 27.88C54.5432 28.04 54.2952 28.12 53.9672 28.12ZM58.5945 28V27.004L61.5105 23.884C61.9345 23.436 62.2345 23.036 62.4105 22.684C62.5865 22.332 62.6745 21.988 62.6745 21.652C62.6745 21.172 62.5345 20.792 62.2545 20.512C61.9825 20.224 61.6105 20.08 61.1385 20.08C60.6505 20.08 60.2625 20.228 59.9745 20.524C59.6945 20.812 59.5545 21.204 59.5545 21.7H58.4745C58.4985 20.908 58.7505 20.28 59.2305 19.816C59.7105 19.352 60.3465 19.12 61.1385 19.12C61.9465 19.12 62.5865 19.348 63.0585 19.804C63.5385 20.26 63.7785 20.88 63.7785 21.664C63.7785 22.08 63.6625 22.52 63.4305 22.984C63.2065 23.448 62.8185 23.968 62.2665 24.544L59.9025 27.016H63.8865V28H58.5945ZM68.3578 28.12C67.5498 28.12 66.9058 27.888 66.4258 27.424C65.9538 26.952 65.7178 26.324 65.7178 25.54V21.7C65.7178 20.916 65.9538 20.292 66.4258 19.828C66.9058 19.356 67.5498 19.12 68.3578 19.12C69.1658 19.12 69.8058 19.356 70.2778 19.828C70.7578 20.292 70.9978 20.916 70.9978 21.7V25.54C70.9978 26.06 70.8898 26.516 70.6738 26.908C70.4578 27.292 70.1498 27.592 69.7498 27.808C69.3578 28.016 68.8938 28.12 68.3578 28.12ZM68.3578 27.196C68.8378 27.196 69.2218 27.044 69.5098 26.74C69.8058 26.428 69.9538 26.028 69.9538 25.54V21.7C69.9538 21.212 69.8058 20.816 69.5098 20.512C69.2218 20.2 68.8378 20.044 68.3578 20.044C67.8778 20.044 67.4898 20.2 67.1938 20.512C66.9058 20.816 66.7618 21.212 66.7618 21.7V25.54C66.7618 26.028 66.9058 26.428 67.1938 26.74C67.4898 27.044 67.8778 27.196 68.3578 27.196ZM68.3578 24.28C68.1418 24.28 67.9658 24.22 67.8298 24.1C67.7018 23.98 67.6378 23.808 67.6378 23.584C67.6378 23.368 67.7018 23.204 67.8298 23.092C67.9658 22.972 68.1418 22.912 68.3578 22.912C68.5738 22.912 68.7458 22.972 68.8738 23.092C69.0098 23.204 69.0778 23.368 69.0778 23.584C69.0778 23.808 69.0098 23.98 68.8738 24.1C68.7458 24.22 68.5738 24.28 68.3578 24.28ZM75.5531 28.12C74.7451 28.12 74.1011 27.888 73.6211 27.424C73.1491 26.952 72.9131 26.324 72.9131 25.54V21.7C72.9131 20.916 73.1491 20.292 73.6211 19.828C74.1011 19.356 74.7451 19.12 75.5531 19.12C76.3611 19.12 77.0011 19.356 77.4731 19.828C77.9531 20.292 78.1931 20.916 78.1931 21.7V25.54C78.1931 26.06 78.0851 26.516 77.8691 26.908C77.6531 27.292 77.3451 27.592 76.9451 27.808C76.5531 28.016 76.0891 28.12 75.5531 28.12ZM75.5531 27.196C76.0331 27.196 76.4171 27.044 76.7051 26.74C77.0011 26.428 77.1491 26.028 77.1491 25.54V21.7C77.1491 21.212 77.0011 20.816 76.7051 20.512C76.4171 20.2 76.0331 20.044 75.5531 20.044C75.0731 20.044 74.6851 20.2 74.3891 20.512C74.1011 20.816 73.9571 21.212 73.9571 21.7V25.54C73.9571 26.028 74.1011 26.428 74.3891 26.74C74.6851 27.044 75.0731 27.196 75.5531 27.196ZM75.5531 24.28C75.3371 24.28 75.1611 24.22 75.0251 24.1C74.8971 23.98 74.8331 23.808 74.8331 23.584C74.8331 23.368 74.8971 23.204 75.0251 23.092C75.1611 22.972 75.3371 22.912 75.5531 22.912C75.7691 22.912 75.9411 22.972 76.0691 23.092C76.2051 23.204 76.2731 23.368 76.2731 23.584C76.2731 23.808 76.2051 23.98 76.0691 24.1C75.9411 24.22 75.7691 24.28 75.5531 24.28Z" fill="black"/>
</svg>
